<?xml version="1.0" encoding="utf-8"?>
<!-- Generator: Adobe Illustrator 19.0.0, SVG Export Plug-In . SVG Version: 6.00 Build 0)  -->
<svg version="1.1" id="Layer_1" xmlns="http://www.w3.org/2000/svg" xmlns:xlink="http://www.w3.org/1999/xlink" x="0px" y="0px"
	 viewBox="0 0 1024 512" style="enable-background:new 0 0 1024 512;" xml:space="preserve">
<style type="text/css">
	.st0{fill:#F4603C;stroke:#231F20;stroke-miterlimit:10;}
	.st1{fill:none;stroke:#F1F2F2;stroke-miterlimit:10;}
	.st2{fill:none;stroke:#FFFFFF;stroke-miterlimit:10;}
	.st3{font-family:'Mistral';}
	.st4{font-size:25.14px;}
	.st5{fill:#FFFFFF;stroke:#FFFFFF;stroke-miterlimit:10;}
</style>
<rect id="XMLID_1_" x="0.7" y="0" class="st0" width="1024" height="512"/>
<g id="XMLID_15509_">
	<path id="XMLID_31194_" class="st1" d="M857.9,248.8c-0.9-3.5-1.8-7.1-2.7-10.6c-0.5-1.8-0.9-3.6-1.4-5.4c-0.4-1.7-0.7-3.7-1.5-5.2
		c-0.1-0.1-0.2-0.1-0.3-0.1c-0.1,0-0.2,0-0.3,0.1c-2.4,2.2-5.1,4.1-7.7,6c-0.6,0.5-1.3,1-1.9,1.5c-0.5,0.4-0.5,0.4-1.1,0.2
		c-0.4-0.1-0.7-0.4-1-0.5c-1.5-0.8-3-1.5-4.5-2.3c-0.7-0.4-1.4-0.7-2.1-1.1c-0.5-0.2-1-0.6-1.5-0.7c-0.1-0.1-0.2-0.1-0.3,0
		c-0.6,0.1-1.1,0.4-1.6,0.7c-0.7,0.4-1.5,0.7-2.2,1.1c-0.8,0.4-1.6,0.7-2.5,1c-0.9,0.3-1.8,0.6-2.7,0.8c-0.7,0.2-1.4,0.3-2.1,0.5
		c-0.4,0.1-0.8,0.2-1.2,0.3c0,0-0.1,0-0.1,0c0,0-0.1,0-0.1,0c-0.1,0-0.1,0.1-0.1,0.2c0,0.2,0.2,0.4,0.3,0.6l0,0.1c0,0,0,0,0,0
		c0.1,0.1,0.1,0.2,0.2,0.3c0.1,0.1,0.2,0.3,0.3,0.4c0,0,0,0,0,0c0.3,0.5,0.5,0.9,0.8,1.4c0.3,0.8,0.7,1.5,1,2.3
		c0.7,2,1.4,4.1,2.1,6.1c1.3,4.1,2.5,8.3,3.6,12.5c0.1,0.3,0.4,0.5,0.7,0.3c3.4-2.4,6.8-4.8,9.9-7.5c1.3,1.1,3.4,1.4,4.9,2.1
		c1.7,0.7,3.3,1.7,4.9,2.7c0,0.1,0.1,0.1,0.1,0.2c0.1,0.1,0.3,0.2,0.5,0.1c1.7-1,3.3-2.4,4.9-3.6c1.6-1.2,3.3-2.4,4.9-3.6
		C858.3,249.3,858.2,249,857.9,248.8z M852.1,228.2c0.1,0.7,0.3,1.4,0.5,2.1c0.2,0.9,0.4,1.8,0.7,2.7c0.4,1.8,0.9,3.6,1.3,5.4
		c0.8,3.2,1.6,6.4,2.3,9.5c-0.1-0.1-0.2-0.1-0.3,0c-0.7-2.7-1.7-5.5-2.6-8.2c-0.4-1.4-0.9-2.8-1.3-4.2c-0.4-1.5-0.8-3-1.4-4.4
		c0,0,0.1-0.1,0.1-0.1c0.3-0.3-0.1-0.8-0.4-0.5c-2,2-4.2,3.8-6.5,5.5c-0.6,0.4-1.2,1-1.8,1.3c-0.1,0.1-0.2,0.1-0.3,0.1
		c-0.2-0.5-0.4-1-0.6-1.4C845.5,233.5,848.7,230.8,852.1,228.2z M850.6,239.7c0.1,0.5,0.4,0.9,0.7,1.3c0.2,0.2,0.6,0.3,0.5,0.8
		c-0.1,0.3-0.9,0.8-1.1,0.9c-0.1,0.1-0.2,0.3-0.1,0.5c0.2,0.5-0.9,1-1.2,1.3c-0.3,0.3-0.4,0.7-0.5,1.1c-0.3,1.1,0.1,2.2,0.2,3.4
		c0.2,1.6-0.4,0.1-0.7-0.5c-0.2-0.5-0.5-0.9-0.8-1.3c-0.7-0.8-1.4-0.8-2.2-1.1c0-0.1-0.1-0.2-0.1-0.3c-0.5-1.7-1.1-3.4-1.6-5
		c-0.1-0.3-0.2-0.5-0.3-0.8c0.7-0.5,1.3-0.9,2.1-1.2c0.6-0.2,1.2-0.3,1.7-0.6c0.7-0.4,1.2-0.9,1.8-1.3c0.3-0.1,0.9-0.5,1.2,0
		c0.1,0.2,0,0.8,0,1.1C850.4,238.6,850.4,239.2,850.6,239.7z M844.6,245.7C844.6,245.7,844.6,245.8,844.6,245.7
		c-0.5-0.1-1.1-0.3-1.5,0.3c-0.2,0.3-0.1,0.7-0.3,1.1c-0.5,1.4-1.5,0.1-2.1-0.4c-0.3-0.3-0.7-0.4-1.1-0.4c-0.4,0-0.8,0.1-1.2-0.1
		c-0.4-0.2-0.6-0.5-0.9-0.8c-0.5-0.6-0.9-1.1-1.6-1.3c-0.3-1.1-0.6-2.2-0.9-3.2c-0.4-1.4-0.8-2.8-1.2-4.1c0.4,0.4,0.8,0.7,1.2,1.1
		c0.6,0.6,1.1,1.2,1.9,1.3c0.5,0.1,0.9,0.2,1.4,0.6c0.3,0.2,0.5,0.5,0.8,0.7c0.5,0.3,1,0.4,1.5,0.1c0.2,0.3,0.5,0.6,0.7,0.9
		c0.1,0.1,0.3,0.2,0.5,0.1c0.4-0.3,0.7-0.7,1.1-1c0,0.1,0.1,0.1,0.1,0.2C843.5,242.3,844.1,244,844.6,245.7z M842.2,238.3
		c0.2,0.5,0.4,1,0.5,1.5c-0.4,0.3-0.7,0.6-1.1,0.9c-0.2-0.3-0.5-0.6-0.7-0.9c-0.1-0.1-0.3-0.2-0.5-0.1c-0.8,0.7-1.6-0.6-2.3-0.9
		c-0.5-0.3-0.9-0.2-1.4-0.4c-0.7-0.2-1.2-1-1.8-1.5c-0.5-0.4-0.9-0.9-1.4-1.3c-0.1-0.5-0.3-1.1-0.4-1.7c0.5,0.2,0.9,0.5,1.4,0.7
		c1.3,0.6,2.7,1.3,4,1.9c0.6,0.3,1.3,0.6,1.9,0.9C840.8,237.6,841.6,238.1,842.2,238.3z M832.9,231.7c0.9,0.5,1.9,0.9,2.8,1.4
		c2,1,3.9,2,5.8,3c0.1,0.4,0.2,0.8,0.4,1.2c-0.3-0.1-0.5-0.3-0.8-0.4c-1.3-0.6-2.7-1.3-4-1.9c-1.3-0.6-2.6-1.3-3.9-1.8
		c-0.1,0-0.2-0.1-0.3-0.1c-0.2-0.5-0.3-1.1-0.5-1.6C832.5,231.6,832.7,231.7,832.9,231.7z M832.9,235.9c0.5,1.7,1,3.3,1.4,5
		c0.3,0.9,0.5,1.8,0.8,2.7c-0.6-0.1-1.3,0-1.8,0.4c-0.2,0.1-0.4,0.3-0.5,0.6c-0.1,0.3,0.1,0.6,0,0.8c-0.1,0.5-0.9,0.3-1.2,0.8
		c-0.3,0.5-0.4,1.2-0.5,1.9c-0.2-0.3-0.4-0.5-0.5-0.8c-0.3-0.7-0.1-1.2-0.1-1.8c0-0.4-0.2-0.4-0.3-0.8c-0.4-1,0.5-0.7,0.9-1.1
		c0.3-0.3,0.3-0.8,0-1c-0.3-0.2-0.7,0.1-0.7-0.6c0-0.6,0.5-1.3,0.9-1.5c0.2-0.1,0.3-0.5,0-0.6c-0.3-0.2,0.1-1.2,0.1-1.5
		c-0.1-0.4-0.3-0.5-0.6-0.6c-0.2-0.1-0.5-0.1-0.7-0.2c-0.7-0.4-0.7-1.1-0.1-1.5c0.8-0.5,1.7-0.5,2.6-0.5c0,0,0.1,0,0.1,0
		c0,0,0,0,0,0.1c0,0,0.1,0.1,0.1,0.1C832.8,235.7,832.8,235.8,832.9,235.9z M832.6,235.2C832.6,235.2,832.6,235.2,832.6,235.2
		C832.6,235.2,832.6,235.1,832.6,235.2c-1.2-0.4-4.3,0-3.6,1.9c0.3,0.8,1.8,0.8,1.7,1.7c0,0.5-0.3,0.9-0.1,1.3c-0.6,0.5-0.9,1.2-1,2
		c0,0.3,0,0.8,0.3,1c0.1,0.1,0.3,0.1,0.4,0.2c0.1,0.1-0.2-0.1-0.4,0c-0.3,0.1-0.5,0.5-0.6,0.8c0,0.3,0.1,0.3,0.1,0.6
		c0.1,0.4,0.3,0.4,0.3,1.1c0,0.1,0,0.2,0,0.2c0,0,0,0,0,0c-0.3,0-0.5,0.1-0.8,0.2c-0.3,0.1-0.6,0.3-0.9,0.4c-0.2,0.1,0,0.4,0.1,0.3
		c0.3-0.2,0.6-0.3,0.9-0.4c0.3-0.1,0.5-0.2,0.8-0.4c0,0.4,0,0.8,0.1,1.2c0.3,0.7,0.8,1.3,1.3,1.8c0,0,0.1,0.1,0.1,0.1
		c-0.6,0.3-1.1,0.6-1.7,0.9c-0.2,0.1,0,0.3,0.1,0.3c0.7-0.3,1.4-0.6,2-1.1c0.1,0,0.2-0.1,0.2-0.3c0.1-0.6,0.1-1.6,0.4-2.1
		c0.3-0.6,0.8-0.2,1.2-0.6c0.2-0.2,0.3-0.5,0.3-0.8c0-0.4-0.1-0.4,0.2-0.7c0.3-0.4,0.9-0.4,1.4-0.3c0,0.1,0.1,0.3,0.3,0.3
		c0.4,1.4,0.8,2.7,1.2,4.1c-2.4,1.9-4.9,3.7-7.3,5.7c-1.1-3-2.2-5.9-3.3-8.9c-1.2-3-2.3-6.1-3.8-9c2.6-0.6,5.1-1.6,7.6-2.4
		c0.7-0.2,1.6-0.6,2.4-0.6C832.3,234.2,832.5,234.7,832.6,235.2z M828,258.1c-0.6-2.1-1.2-4.3-1.9-6.4c-0.4-1.4-0.9-2.9-1.3-4.3
		c-0.1-0.4-0.3-0.9-0.4-1.3c-0.5-1.7-1.1-3.4-1.8-5c-0.2-0.4-0.3-0.8-0.5-1.3c-0.6-1.5-1.1-3.3-2.3-4.6c0,0,0,0,0.1,0
		c1.5-0.1,3-0.6,4.3-1c1.8-0.6,3.6-1.3,5.4-2.1c0.4-0.2,0.8-0.5,1.3-0.6c0.3-0.1,0.5-0.2,0.8-0.2c0.1,0.5,0.2,1.1,0.4,1.6
		c-0.7,0-1.3,0.3-2.1,0.6c-1.3,0.5-2.6,0.9-3.9,1.3c-1.3,0.4-4.4,1.3-4.3,1.6c0,0.1,2.6,6.3,3.8,9.4c1.2,3.1,2.3,6.3,3.3,9.6
		c0.1,0.3,0.5,0.4,0.7,0.2c2.5-1.9,5-4,7.4-6.1c0.1,0.5,0.3,1,0.4,1.5C834.2,253.4,831.1,255.8,828,258.1z M837.4,249
		c-0.4-1.3-0.8-2.7-1.2-4c0.8,0.5,1.3,1.9,2.3,2.1c0.8,0.2,1.4-0.1,2.1,0.6c0.3,0.3,0.7,0.6,1.2,0.7c0.8,0.2,1.6-0.2,1.9-1
		c0.1-0.3,0.1-0.9,0.5-0.9c0.2,0,0.5,0.3,0.8,0.4c0.6,2.1,1.2,4.2,1.8,6.3c-1.5-0.6-3-1.2-4.5-1.9C840.6,250.5,839,249.5,837.4,249z
		 M843.2,253.1c-0.9-0.4-1.8-0.7-2.7-1c-0.8-0.3-1.5-0.6-2.3-0.9c0-0.2-0.1-0.4-0.2-0.5c-0.1-0.4-0.2-0.8-0.4-1.2
		c1.3,0.9,2.9,1.5,4.3,2.1c1.7,0.8,3.4,1.5,5.1,2.1c0.1,0.5,0.3,1,0.4,1.5C846,254.4,844.6,253.7,843.2,253.1z M845.8,247.1
		c0.4,0.1,0.8,0.2,1.2,0.6c0.7,0.8,1,2.7,2,3.2c1,0.5,1.2-0.9,1.2-1.5c0-1.3-0.9-3.2,0.1-4.3c0.5-0.6,1.5-1,1.2-1.9
		c0.5-0.4,1.2-0.9,1.2-1.5c0.1-0.7-0.8-1.1-1.2-1.6c-0.5-0.8-0.5-1.9-0.5-2.8c0-0.5,0-1.1-0.6-1.3c-0.6-0.2-1.2,0.1-1.7,0.4
		c-0.9,0.5-1.6,1.2-2.5,1.5c-1.1,0.3-2.1,0.8-2.9,1.4c-0.1-0.4-0.3-0.8-0.4-1.2c0.1-0.1,0.3-0.2,0.4-0.3c0.6-0.5,1.2-0.9,1.7-1.4
		c2-1.6,4-3.3,6-4.9c0.2,1.3,0.7,2.5,1,3.8c0.4,1.5,0.8,2.9,1.3,4.4c0.8,2.9,1.6,6,2.7,8.8c0,0,0,0,0,0c-1.3,1-2.7,1.8-4.1,2.6
		c-0.8,0.5-1.7,1-2.5,1.5c-0.6,0.4-1.2,0.7-1.7,1.1C847.1,251.5,846.5,249.3,845.8,247.1z M852.4,252.5c-1.4,1.1-2.8,2.1-4.1,3.3
		c-0.1-0.5-0.3-1.1-0.4-1.6c0.6-0.2,1.1-0.6,1.7-0.9c0.9-0.5,1.8-1.1,2.7-1.6c1.6-1,3.4-2,4.8-3.3c0,0,0,0,0.1-0.1
		c0.1,0.2,0.1,0.4,0.2,0.7C855.5,250.1,854,251.3,852.4,252.5z"/>
	<path id="XMLID_31193_" class="st1" d="M825.6,238.1c-0.5-0.1-1,0.2-1.4,0.4c-0.1,0-0.1,0.3,0.1,0.2c0.5-0.1,1.1-0.1,1.4-0.4
		C825.7,238.2,825.7,238.1,825.6,238.1z"/>
	<path id="XMLID_31192_" class="st1" d="M827.6,237c-0.4,0.1-0.7,0.3-1,0.6c0,0,0,0.1,0.1,0.1c0,0,0.1,0,0.1,0c0,0,0,0,0,0
		c0,0,0,0,0,0c0.4,0,0.7-0.1,1-0.3C828.1,237.3,827.9,236.9,827.6,237z"/>
	<path id="XMLID_31191_" class="st1" d="M827.3,238.8c-0.2,0-0.3,0-0.5,0.1c-0.2,0.1-0.4,0.1-0.5,0.2c-0.2,0.1-0.1,0.5,0.1,0.4
		c0.2-0.1,0.3-0.2,0.5-0.2c0.1-0.1,0.3-0.1,0.4-0.3C827.4,238.9,827.4,238.8,827.3,238.8z"/>
	<path id="XMLID_31190_" class="st1" d="M828.2,238.2C828.2,238.2,828.2,238.3,828.2,238.2C828.3,238.3,828.3,238.2,828.2,238.2z"/>
	<path id="XMLID_31189_" class="st1" d="M824.9,240.4c-0.1-0.1-0.2-0.1-0.3,0c-0.1,0-0.2,0.1-0.2,0.2c0,0,0,0,0,0.1
		c0,0.1,0.1,0.1,0.1,0.1c0,0,0,0,0,0c0.1,0,0.1-0.1,0.2-0.1c0.1,0,0.2,0,0.2-0.1C824.9,240.5,824.9,240.4,824.9,240.4z"/>
	<path id="XMLID_31188_" class="st1" d="M826.6,240.7C826.5,240.7,826.5,240.8,826.6,240.7C826.6,240.7,826.6,240.7,826.6,240.7z"/>
	<path id="XMLID_31187_" class="st1" d="M827.1,240.7c-0.3,0-0.5,0.1-0.7,0.2c-0.2,0.1-0.5,0.3-0.7,0.4c-0.2,0.1-0.1,0.4,0.1,0.3
		c0.3-0.1,0.5-0.2,0.8-0.4c0.2-0.1,0.4-0.2,0.6-0.4C827.2,240.8,827.2,240.7,827.1,240.7z"/>
	<path id="XMLID_31186_" class="st1" d="M829,239.4c-0.2-0.1-0.3,0.1-0.5,0.2c-0.2,0.1-0.4,0.3-0.6,0.4c-0.1,0.1,0,0.2,0.1,0.2
		c0.2-0.1,0.4-0.2,0.6-0.3c0.2-0.1,0.4-0.2,0.4-0.4C829.1,239.4,829.1,239.4,829,239.4z"/>
	<path id="XMLID_31185_" class="st1" d="M828.8,238.3C828.8,238.3,828.8,238.3,828.8,238.3C828.8,238.3,828.8,238.3,828.8,238.3z"/>
	<path id="XMLID_31184_" class="st1" d="M829.6,237.8c-0.2,0-0.3,0.1-0.5,0.3c-0.1,0.1-0.1,0.1-0.2,0.2c-0.1,0.1-0.1,0.2-0.2,0.2
		c0,0,0,0.1,0.1,0.1c0.1,0,0.2,0,0.2-0.1c0.1,0,0.2-0.1,0.3-0.2c0.1-0.1,0.4-0.2,0.4-0.4C829.7,238,829.7,237.8,829.6,237.8z"/>
	<path id="XMLID_31183_" class="st1" d="M828.4,242.1c-0.4,0.1-0.8,0.3-1.2,0.5c-0.4,0.2-0.8,0.4-1.2,0.6c-0.1,0.1,0,0.2,0.1,0.2
		c0.4-0.2,0.9-0.4,1.3-0.6c0.4-0.2,0.8-0.4,1.1-0.6C828.5,242.2,828.5,242.1,828.4,242.1z"/>
	<path id="XMLID_31182_" class="st1" d="M829,243c-0.2,0-0.4,0.2-0.6,0.3c-0.2,0.1-0.4,0.2-0.6,0.3c-0.1,0.1,0,0.3,0.1,0.2
		c0.2-0.1,0.4-0.2,0.7-0.4c0.2-0.1,0.4-0.2,0.5-0.3C829.1,243.1,829,243,829,243z"/>
	<path id="XMLID_31181_" class="st1" d="M828,244.9c-0.5,0.1-0.9,0.4-1.3,0.7c-0.2,0.1,0,0.4,0.1,0.3c0.4-0.2,1-0.4,1.3-0.8
		C828.1,244.9,828.1,244.8,828,244.9z"/>
	<path id="XMLID_31180_" class="st1" d="M829.9,248c-0.2-0.1-0.5,0.1-0.7,0.2c-0.3,0.2-0.5,0.4-0.7,0.6c-0.1,0.2,0.1,0.4,0.3,0.2
		c0.2-0.2,0.4-0.4,0.6-0.5c0.2-0.1,0.5-0.2,0.6-0.4C830,248.1,830,248,829.9,248z"/>
	<path id="XMLID_31179_" class="st1" d="M835.3,248.9c-1.8,0.7-3.5,2-5.2,3c-0.1,0.1,0,0.2,0.1,0.2
		C831.9,251.1,833.9,250.2,835.3,248.9C835.4,248.9,835.4,248.9,835.3,248.9z"/>
	<path id="XMLID_31178_" class="st1" d="M834,247.9C834,247.9,834,247.9,834,247.9C834,247.9,834,247.9,834,247.9z"/>
	<path id="XMLID_31177_" class="st1" d="M844.3,251.4c-2-1.1-4-2.2-6.1-3.1c-0.1,0-0.1,0-0.1,0.1c0,0,0,0.1,0,0.1c0,0,0,0.1,0.1,0.1
		l0.1,0.1c0,0,0,0,0,0c0,0.1,1.3,0.6,1.4,0.7c0.5,0.3,1,0.5,1.5,0.8c1,0.5,2,1,3.1,1.5C844.3,251.6,844.4,251.4,844.3,251.4z"/>
	<path id="XMLID_31176_" class="st1" d="M844.4,250.1c-0.6-0.2-1.2-0.4-1.8-0.6c-0.2-0.1-0.3,0.2-0.1,0.2c0.6,0.2,1.2,0.4,1.8,0.6
		C844.5,250.4,844.6,250.2,844.4,250.1z"/>
	<path id="XMLID_31175_" class="st1" d="M844.7,249.1c-0.2-0.1-0.4-0.1-0.5-0.2l-0.6-0.1c-0.2,0-0.2,0.2,0,0.3
		c0.2,0.1,0.4,0.1,0.6,0.2c0.2,0,0.4,0.1,0.5,0.1C844.8,249.3,844.8,249.1,844.7,249.1z"/>
	<path id="XMLID_31174_" class="st1" d="M844.3,248.3C844.3,248.2,844.3,248.2,844.3,248.3c-0.1,0-0.2,0-0.3,0c-0.1,0-0.1,0.1,0,0.1
		c0.1,0,0.1,0,0.2,0C844.3,248.4,844.4,248.4,844.3,248.3C844.4,248.3,844.4,248.3,844.3,248.3z"/>
	<path id="XMLID_31173_" class="st1" d="M850.6,233c-1.7,1.6-3.6,2.8-5.4,4.2c0,0,0,0.1,0,0.1c2-1.1,3.8-2.7,5.4-4.2
		C850.8,233,850.7,232.9,850.6,233z"/>
	<path id="XMLID_31172_" class="st1" d="M850.7,234c-0.7,0.5-1.4,0.9-2.1,1.3c-0.1,0.1,0,0.3,0.1,0.3c0.8-0.4,1.5-0.8,2.2-1.3
		C851,234.1,850.9,233.9,850.7,234z"/>
	<path id="XMLID_31171_" class="st1" d="M853.6,243.6c-1,0.7-2.1,1.4-3.1,2.2c-0.1,0,0,0.2,0.1,0.1c1.1-0.6,2.2-1.4,3.1-2.2
		C853.8,243.7,853.7,243.6,853.6,243.6z"/>
	<path id="XMLID_31170_" class="st1" d="M854.1,244.3c-0.5,0.3-1,0.7-1.5,1.1c-0.1,0.1,0,0.3,0.2,0.2c0.5-0.4,1-0.7,1.5-1.1
		C854.3,244.4,854.2,244.3,854.1,244.3z"/>
	<path id="XMLID_31169_" class="st1" d="M854.9,245.5c-1.4,0.8-2.9,1.4-4.4,2.2c-0.1,0.1,0,0.2,0.1,0.2c1.5-0.6,3-1.4,4.4-2.2
		C855.1,245.7,855,245.5,854.9,245.5z"/>
	<path id="XMLID_31168_" class="st1" d="M854.1,247c-1,0.5-1.9,1.3-2.8,2c-0.1,0.1,0,0.2,0.1,0.2c0.9-0.6,2-1.2,2.7-2
		C854.2,247.1,854.1,247,854.1,247z"/>
	<path id="XMLID_31167_" class="st1" d="M853.8,248.8c-0.4,0.2-0.8,0.6-1.1,0.8c-0.4,0.3-0.8,0.7-1.2,1c-0.1,0.1,0,0.3,0.2,0.2
		c0.4-0.3,0.8-0.7,1.2-1c0.4-0.3,0.8-0.6,1.1-0.9C854,248.9,853.9,248.8,853.8,248.8z"/>
</g>
<g id="XMLID_15441_">
	<path id="XMLID_15442_" class="st1" d="M898.1,195.8c-1-0.5-2.2-0.8-3.2-1.2c-0.4-0.2-0.8-0.4-1.2-0.6c0.5-0.2,1.1-0.5,1.5-0.7
		c1.2,0.4,2.4,0.9,3.7,1.2c0.1,0,0.3-0.1,0.2-0.2c-1-0.5-2.2-0.9-3.3-1.3c2.1-1.3,3.6-3.1,3.8-5c0,0,0,0,0-0.1
		c0.5-0.7,0.9-1.3,1.3-2c0.2-0.3-0.3-0.6-0.7-0.5c-2,0.4-3,1.1-4.8,0.2c-1.5-0.8-3.1-1.5-4.7-2.2c-2.4-0.9-5.1-1.6-8-1.5
		c0.3-0.5,0.2-0.9-0.1-1.4c-0.2-0.3-0.7-0.4-1.1-0.1c-2.3,2-4.7,4.2-5.1,6.7c-0.1,0-0.2,0-0.3-0.1c-1.4-0.2-3.1-0.6-4.6-0.4
		c-0.2,0-0.3,0.2-0.1,0.3c1.4,0.4,3.2,0.5,4.7,0.7c0.1,0,0.2,0,0.3,0c0,0.2,0,0.4,0,0.6c0,0.1,0,0.3,0.1,0.4
		c-0.6-0.1-1.2-0.1-1.8-0.2c-1.2-0.1-2.7-0.3-3.9,0c-0.3,0.1-0.2,0.3,0.1,0.4c1.1,0.3,2.6,0.1,3.8,0.2c0.7,0,1.3,0.1,2,0.2
		c0.8,2.3,3.7,4.1,6.7,5.2c3,1.1,6.4,0.8,9.4-0.2c1.4,0.9,3.3,1.7,5.1,1.9C898.2,196.3,898.3,195.9,898.1,195.8z M894.5,192.5
		c-0.9-0.3-2-0.7-3-0.7c0,0-0.1,0,0,0.1c0.6,0.4,1.5,0.7,2.4,0.9c-0.3,0.2-0.7,0.3-1.1,0.5c0,0-0.1,0-0.1,0.1
		c-0.3-0.2-0.6-0.4-0.9-0.5c-0.2-0.1-0.7,0-0.5,0.2c0.2,0.2,0.4,0.4,0.6,0.6c-3.2,1-6.6,0.7-9.4-0.7c-1.9-1-3.4-2.1-4.2-3.5
		c0.2,0,0.4,0,0.6,0c0.3,0,0.3-0.3,0.1-0.4c-0.3-0.1-0.6-0.1-0.9-0.2c-0.1-0.3-0.2-0.7-0.2-1c1,0.2,2.1,0.3,3.1,0.4
		c0.2,0,0.2-0.1,0.1-0.2c-1-0.4-2.1-0.6-3.2-0.8c0-0.2,0.1-0.5,0.1-0.7c0.5-1.9,2.2-3.6,3.9-5.2c0.1,0.2,0.1,0.4,0.2,0.5
		c-0.2,0.1-0.1,0.3,0.1,0.3c2.7,0.3,5.1,0.8,7.4,1.6c-0.3,0.6-0.6,1.2-1,1.7c-0.1,0.2,0.3,0.3,0.4,0.2c0.4-0.6,0.8-1.1,1.1-1.7
		c0.3,0.1,0.6,0.2,0.9,0.3c-0.4,0.6-0.9,1.2-1.4,1.8c-0.2,0.2,0.2,0.3,0.4,0.2c0.6-0.6,1-1.2,1.4-1.8c0.4,0.1,0.7,0.3,1.1,0.5
		c0,0,0,0,0,0c-0.5,0.5-1,1.1-1.3,1.7c-0.1,0.2,0.3,0.3,0.4,0.1c0.3-0.6,0.7-1.1,1.2-1.6c0,0,0,0,0,0c1.3,0.6,2.5,1.2,3.7,2
		c0.2,0.1,0.5,0.2,0.8,0.1c0.7-0.3,1.4-0.5,2.1-0.7c-0.2,0.3-0.5,0.7-0.7,1c-0.1,0.1-0.2,0.2-0.2,0.3
		C898.2,189.7,896.6,191.3,894.5,192.5z"/>
	<path id="XMLID_15445_" class="st1" d="M889.5,191.4c-1.1,0.4-2.2,0.1-2.9-0.4c0.4-0.3,0.7-0.6,1-0.9c0,0,0,0,0-0.1
		c0.4,0,0.9,0,1.3-0.1c0.3-0.1,0.5-0.5,0.2-0.6c-0.5-0.3-1-0.5-1.6-0.7c-0.4-0.1-1-0.3-1.4-0.1c-0.2,0-0.5,0.1-0.5,0.3
		c-0.1,0.5,0.5,1,1.1,1.2c-0.3,0.2-0.6,0.5-0.9,0.7c-0.1,0-0.2,0.1-0.2,0.1c-0.6-0.1-1.1-0.3-1.7-0.6c-0.3-0.1-0.6-0.3-0.9-0.5
		c-0.1-0.1-0.2-0.1-0.3-0.2c0,0,0-0.1-0.1-0.1c0.1-0.1,0.2-0.3,0-0.4c-0.3-0.2-0.6-0.2-0.9-0.1c-0.4,0.2-0.2,0.5,0,0.8
		c1,0.9,2.3,1.5,3.8,1.8c0.1,0,0.2,0,0.3,0c0.8,0.8,2.8,1.1,4.1,0.6C890.6,191.8,890.1,191.2,889.5,191.4z"/>
	<path id="XMLID_15446_" class="st1" d="M883.5,186.7c-0.4-1-2.3-1.5-3.8-1.2c-0.7,0.2-0.5,0.9,0.2,0.7c1.1-0.2,2,0.1,2.6,0.7
		C882.9,187.3,883.7,187.1,883.5,186.7z"/>
	<path id="XMLID_15447_" class="st1" d="M895,190.9c-0.7-0.8-2-1.4-3.4-1.3c-0.5,0-0.5,0.5,0,0.6c1,0.2,1.8,0.5,2.3,1.1
		C894.2,191.8,895.4,191.4,895,190.9z"/>
	<path id="XMLID_17_" class="st1" d="M864.5,198.5c0.3-0.4,0.6-0.8,0.9-1.2c0,0.1,0.2,0.2,0.4,0.2c0.9-0.3,2.1-0.7,2.2-1.5
		c0-0.5-0.4-1-1.2-1c-0.1,0-0.2,0.1-0.3,0.1c0,0-0.1,0-0.1,0.1c-0.8,1.1-1.6,2.2-2.4,3.3C863.8,198.6,864.3,198.7,864.5,198.5z
		 M867.3,196.2c-0.3,0.5-1.1,0.7-1.8,1c0,0,0,0-0.1,0c0.4-0.6,0.9-1.2,1.3-1.8C867.3,195.4,867.5,195.9,867.3,196.2z"/>
	<path id="XMLID_14_" class="st1" d="M869.2,199.4c0.1-0.2,0.1-0.4,0.2-0.5c0.2-0.1,0.2-0.2,0.1-0.3c0.2-0.8,0.5-1.6,0.7-2.3
		c0-0.2-0.2-0.2-0.4-0.2c-0.1,0-0.1,0-0.2,0c-1.3,0.7-2.5,1.5-3.6,2.4c-0.2,0.2,0.2,0.4,0.5,0.2c0.2-0.2,0.5-0.3,0.7-0.5
		c0.6,0.2,1.2,0.4,1.8,0.6l-0.2,0.6C868.6,199.6,869.1,199.6,869.2,199.4z M867.4,197.9c0.6-0.4,1.3-0.9,2-1.3l-0.5,1.7
		C868.4,198.2,867.9,198.1,867.4,197.9z"/>
	<path id="XMLID_13_" class="st1" d="M872.2,200.6c0.3-0.4,0.4-0.8,0.4-1.3c0-0.3-0.1-0.5-0.3-0.7c-0.1-0.2-0.2-0.4-0.3-0.5
		c0.3-0.5,0.8-0.5,1.5,0c-0.1,0.2,0.4,0.3,0.5,0.1c0.4-0.8-1.5-1.2-2.3-0.7c-0.4,0.3-0.3,0.6-0.1,0.9c0.2,0.5,0.5,0.9,0.4,1.4
		c-0.1,0.8-1.4,1.6-2.6,1.1c-0.3-0.1-0.6,0.2-0.3,0.3C870.2,201.7,871.5,201.4,872.2,200.6z"/>
	<path id="XMLID_12_" class="st1" d="M874,202.1c0.4-0.3,0.6-0.7,0.6-1.1c0-0.2-0.1-0.4-0.2-0.7c-0.1-0.2-0.2-0.4-0.3-0.5
		c-0.3-0.7,0.4-0.8,2-0.5c0.2,0.2,0.7,0,0.5-0.2c-0.6-0.7-2.2-1-2.9-0.1c-0.4,0.4-0.2,0.9,0,1.3c0.2,0.4,0.3,0.7,0.2,1.1
		c-0.2,0.4-0.5,0.6-1,0.7c0,0-0.2,0-0.5,0.1c0.1-0.1,0-0.2-0.1-0.2c0,0-0.1,0-0.1,0c-0.1,0-0.2,0-0.3,0c0,0,0,0-0.1,0
		c-0.1,0-0.1,0.2-0.1,0.2C872.3,202.9,873.4,202.6,874,202.1z"/>
	<path id="XMLID_9_" class="st1" d="M877,201.4C877,201.4,877,201.4,877,201.4c0.9-0.1,2.5,0.2,2.9-0.6c0.4-0.7-0.9-1.1-1.8-1.2
		c-0.2,0-0.3,0.1-0.4,0.2c0,0,0,0,0,0c-0.5,0.7-1,1.3-1.6,1.9c-0.2,0.2,0.3,0.4,0.5,0.2C876.7,201.7,876.8,201.5,877,201.4z
		 M879,200.9c-0.5,0.2-1.1,0.1-1.6,0.1c0.3-0.4,0.6-0.7,0.9-1.1c0.3,0,0.5,0.1,0.8,0.2C879.4,200.3,879.5,200.7,879,200.9z"/>
	<path id="XMLID_6_" class="st1" d="M883,201.6c-0.2-0.6-1.3-1-2-0.4c0,0,0,0,0,0.1c-0.9,0.4-1.9,0.9-1.5,1.7
		c0.3,0.6,1.1,0.8,1.9,0.4C882.1,202.9,883.2,202.3,883,201.6z M880.8,203.1c-0.8,0.2-1.1-0.4-0.9-0.8c0.2-0.4,0.9-0.7,1.4-0.9
		c0.1,0,0.1-0.1,0.1-0.1c0.5-0.3,1,0,1,0.4c0,0.2-0.1,0.4-0.3,0.6C881.8,202.6,881.2,203,880.8,203.1z"/>
	<path id="XMLID_3_" class="st1" d="M885.3,204.7c-0.6,0.3-1-0.5-1.2-1c0.8,0,1.6-0.2,1.8-0.8c0.1-0.5-0.4-1-1.2-1
		c-0.2,0-0.3,0.2-0.3,0.3c-0.6,0.6-1.1,1.2-1.7,1.9c-0.2,0.2,0.3,0.4,0.5,0.2c0.1-0.1,0.3-0.3,0.4-0.4c0.3,0.4,0.2,0.9,0.8,1.1
		c0.3,0.2,0.8,0.3,1.2,0.1C885.8,204.9,885.6,204.6,885.3,204.7z M885.3,202.9c-0.2,0.4-0.8,0.5-1.3,0.4c0.3-0.3,0.6-0.7,0.9-1
		C885.2,202.4,885.4,202.7,885.3,202.9z"/>
	<path id="XMLID_20_" class="st1" d="M886.8,206c0.6-0.8,1.3-1.6,1.9-2.4c0,0,0,0,0,0c0.5,0.1,0.9,0.3,1.4,0.4
		c0.3,0.1,0.5-0.3,0.2-0.3c-1-0.3-1.9-0.6-2.9-0.9c-0.3-0.1-0.5,0.3-0.2,0.3c0.3,0.1,0.7,0.2,1,0.3c-0.6,0.8-1.3,1.6-1.9,2.4
		C886.2,206,886.6,206.2,886.8,206z"/>
	<path id="XMLID_15448_" class="st1" d="M874.3,192.3c-1.6-1.1-4.4,0.6-2.7,1.7C873.1,195.1,875.9,193.5,874.3,192.3z"/>
	<path id="XMLID_15449_" class="st1" d="M871.3,191.1c-0.6-0.4-1.6,0.2-1,0.6C870.9,192.2,871.9,191.5,871.3,191.1z"/>
	<path id="XMLID_15450_" class="st1" d="M873.2,190.8c-0.6-0.4-1.6,0.2-1,0.6C872.8,191.8,873.8,191.2,873.2,190.8z"/>
	<path id="XMLID_15451_" class="st1" d="M875.3,191.1c-0.6-0.4-1.6,0.2-1,0.6C874.8,192.2,875.9,191.6,875.3,191.1z"/>
	<path id="XMLID_15452_" class="st1" d="M907.7,184.5c-1.6-1.1-4.4,0.6-2.7,1.7C906.5,187.3,909.3,185.6,907.7,184.5z"/>
	<path id="XMLID_15453_" class="st1" d="M887.4,210.1c4.2-4.2,8.5-8.3,12.7-12.5c2.1-2,4.1-4.1,6.2-6.1c2.1-2.1,4.6-4.2,6.3-6.5
		c0.1-0.1,0-0.3-0.1-0.4c0,0,0-0.1-0.1-0.1c-1.2-0.8-2.9-1.4-4.5-2c1.2-1.5,2.4-2.9,3.5-4.5c0.1-0.2-0.1-0.5-0.4-0.6
		c-5.1-0.9-10.1-2.1-15.2-3.1c-4.2-0.9-8.7-2.1-13.1-2.6c-0.1-0.3-0.8-0.4-1.1-0.1c0,0,0,0-0.1,0c-0.3,0-0.4,0.2-0.3,0.3
		c-2.2,2.2-3.9,4.6-5.8,6.8c-2,2.4-4,4.7-6.1,7.1c-4.1,4.7-8.3,9.4-12.7,14c-0.4,0.4,0,0.8,0.6,1c9.8,2.7,19.1,5.9,28.1,9.4
		c0.3,0.1,0.6,0.1,0.9,0.1C886.7,210.5,887.1,210.4,887.4,210.1z M895.4,175.2c4.8,1,9.6,1.9,14.3,2.9c-1.2,1.2-2.2,2.5-3.3,3.8
		c-0.3-0.1-0.5-0.2-0.7-0.3c-1.2-0.5-2.5-1-3.7-1.5c0.8,0.2,1.6,0.3,2.4,0.4c0.1,0,0.2-0.1,0.1-0.1c-1.6-0.6-3.5-1-5.3-1.5
		c-0.5-0.2-1-0.4-1.6-0.6c-1.4-0.6-2.9-1.2-4.3-1.9c3.7,0.9,7.3,2,11,2.9c0.1,0,0.1,0,0-0.1c-3.6-1.2-7.5-2.1-11.3-3
		c-2.3-1-4.6-2.1-7-3C889.1,174.1,892.4,174.6,895.4,175.2z M859,199.9c4.1-4.6,8.2-9.1,12.1-13.7c1.5-1.7,3.1-3.5,4.7-5.3
		c0,0.3,0.1,0.5,0.3,0.7c0.5,0.3,1.4,0.4,2,0l0.1-0.1c0.5-0.3,0.6-1,0.1-1.3c-0.5-0.3-1.3-0.4-1.9-0.1c2.2-2.5,4.4-5.1,6-7.7
		c3.5,2.2,7.8,3.9,11.9,5.5c-0.2,0.1-0.3,0.3-0.1,0.4c0.3,0.2,0.7,0.1,0.8-0.1c0.5,0.2,1,0.4,1.4,0.6c2.5,1.1,5,2.1,7.6,3.1
		c1,0.4,2,0.9,3.1,1.3c-0.1,0-0.2,0.1-0.2,0.2c-0.2-0.1-0.5,0.1-0.3,0.2c0.1,0.1,0.2,0.1,0.3,0c0,0,0,0,0,0c0.3,0.2,0.7,0,0.8-0.2
		c1.2,0.5,2.4,0.9,3.7,1.2c-4.8,3.6-8.5,8-12.6,11.9c-28.2,27-6.9,6.6-12.8,12.3C877.9,205.1,868.7,202.1,859,199.9z"/>
	<path id="XMLID_15457_" class="st1" d="M909.4,184.3c-0.4-0.3-1.1,0.1-0.7,0.4C909.2,185,909.8,184.5,909.4,184.3z"/>
	<path id="XMLID_15458_" class="st1" d="M909.4,185.3c-0.4-0.3-1.1,0.1-0.7,0.4C909.1,186,909.8,185.5,909.4,185.3z"/>
	<path id="XMLID_15459_" class="st1" d="M886.2,177.8l-0.1-0.1c-0.5-0.3-1.4-0.4-2,0c-0.5,0.4-0.6,0.9-0.1,1.3l0.1,0.1
		c0.5,0.3,1.4,0.4,2,0C886.7,178.7,886.7,178.2,886.2,177.8z"/>
	<path id="XMLID_15460_" class="st1" d="M886.6,176.6c-0.4-0.3-1.1,0.1-0.7,0.4C886.3,177.3,887,176.9,886.6,176.6z"/>
	<path id="XMLID_15461_" class="st1" d="M887.7,177.3c-0.4-0.3-1.1,0.1-0.7,0.4C887.4,178,888.1,177.6,887.7,177.3z"/>
	<path id="XMLID_15462_" class="st1" d="M887.8,178.2c-0.4-0.3-1.1,0.1-0.7,0.4C887.5,178.9,888.2,178.4,887.8,178.2z"/>
	<path id="XMLID_15463_" class="st1" d="M877.7,179.1l-0.1,0.1c-0.4,0.3,0.2,0.7,0.6,0.4l0.1-0.1
		C878.7,179.2,878.1,178.8,877.7,179.1z"/>
	<path id="XMLID_15464_" class="st1" d="M879.4,179.5c-0.4-0.3-1.1,0.1-0.7,0.4C879.1,180.2,879.8,179.8,879.4,179.5z"/>
	<path id="XMLID_15465_" class="st1" d="M880,180.2c-0.4-0.3-1.1,0.1-0.7,0.4C879.7,180.9,880.4,180.5,880,180.2z"/>
	<path id="XMLID_15466_" class="st1" d="M894,178.5c-1.4-1-3.8,0.5-2.4,1.5C893,181,895.4,179.5,894,178.5z"/>
	<path id="XMLID_15467_" class="st1" d="M895.7,179c-0.4-0.3-1.1,0.1-0.7,0.4C895.4,179.7,896.1,179.3,895.7,179z"/>
	<path id="XMLID_15468_" class="st1" d="M895.3,179.9c-0.4-0.3-1.1,0.1-0.7,0.4C895,180.6,895.7,180.2,895.3,179.9z"/>
</g>
<g id="XMLID_15296_">
	<g id="XMLID_15297_">
		<path id="XMLID_31265_" class="st2" d="M821.6,275.7c-1,0.4-2,0.6-3.1,0.7c-0.5,0.1-0.5,0.6,0.1,0.5c1.2-0.1,2.4-0.4,3.5-0.8
			C822.6,276,822.1,275.5,821.6,275.7z"/>
		<path id="XMLID_31264_" class="st2" d="M825.5,274.3c-0.8,0.3-1.7,0.7-2.5,1c-0.5,0.2,0,0.6,0.5,0.4c0.8-0.3,1.7-0.7,2.5-1
			C826.4,274.5,825.9,274.1,825.5,274.3z"/>
		<path id="XMLID_31263_" class="st2" d="M829.3,272.7c-0.6,0.5-1.4,0.8-2.3,1.1c-0.5,0.1-0.2,0.6,0.3,0.5c1-0.3,1.9-0.7,2.6-1.2
			C830.3,272.8,829.7,272.5,829.3,272.7z"/>
		<path id="XMLID_31262_" class="st2" d="M832.2,270.7c-0.4,0.4-1,0.8-1.6,1.2c-0.4,0.2,0.1,0.6,0.5,0.4c0.8-0.4,1.4-0.8,1.9-1.4
			C833.2,270.7,832.5,270.4,832.2,270.7z"/>
		<path id="XMLID_31261_" class="st2" d="M834.8,268.4c-0.3,0.4-0.6,0.9-1.1,1.2c-0.4,0.3,0.3,0.6,0.6,0.3c0.5-0.4,1-0.8,1.2-1.3
			C835.7,268.3,834.9,268.1,834.8,268.4z"/>
		<path id="XMLID_31260_" class="st2" d="M836.6,266.1c-0.4,0.4-0.7,0.9-1.1,1.3c-0.2,0.3,0.5,0.5,0.8,0.2c0.4-0.4,0.7-0.9,1.1-1.3
			C837.6,266,836.9,265.8,836.6,266.1z"/>
		<path id="XMLID_31259_" class="st2" d="M943,260.9c-0.5-0.4-0.8-0.9-0.9-1.4c-0.1-0.3-0.9-0.3-0.8,0c0.1,0.6,0.5,1.1,1.1,1.6
			C942.6,261.5,943.3,261.2,943,260.9z"/>
		<path id="XMLID_31258_" class="st2" d="M945.5,263.4c-0.7-0.4-1.2-0.8-1.7-1.3c-0.3-0.3-1,0-0.7,0.3c0.5,0.5,1.1,1,1.9,1.4
			C945.4,264,945.9,263.6,945.5,263.4z"/>
		<path id="XMLID_31257_" class="st2" d="M948.8,265.5c-0.8-0.3-1.5-0.7-1.9-1.3c-0.3-0.3-0.9,0-0.7,0.3c0.5,0.6,1.3,1.1,2.2,1.4
			C948.9,266.1,949.2,265.6,948.8,265.5z"/>
		<path id="XMLID_31256_" class="st2" d="M953.9,267.9c-1.3-0.4-2.4-0.9-3.4-1.5c-0.4-0.2-0.9,0.2-0.5,0.4c1,0.7,2.2,1.2,3.6,1.6
			C954.1,268.5,954.4,268,953.9,267.9z"/>
		<path id="XMLID_15298_" class="st2" d="M967.3,306.3c0-0.1,0-0.1-0.1-0.2c0-0.1,0-0.2,0-0.4c0-0.4,0.1-0.8,0-1.2
			c0.1-0.8,0.1-1.7,0-2.5c0.1-2.4-0.1-4.8-0.6-7.3c0-0.1-0.1-0.2-0.2-0.3c-0.2-1.3-0.4-2.5-0.6-3.8c-0.4-4.7-0.8-9.4-1.3-14
			c-0.5-4.6-0.7-9.3-2.2-13.8c-0.3-1-1-2.1-1.9-2.9c0,0-0.1-0.1-0.1-0.1c0,0,0,0,0,0c-1.2-1-2.9-1.7-5.1-1.8c-4.6-0.8-10.5,0-15,0.4
			c-3.3,0.1-6.7,0.2-10,0.3c-0.6,0-1.2,0-1.8,0.1c0-0.6,0-1.3-0.3-1.8c0-0.1-0.2-0.2-0.3-0.2c0,0,0,0-0.1,0c-0.9-0.4-2.9,0-3.9,0.2
			c-0.8,0.1-2,0.2-3.1,0.5l-1.1,0.1c-0.2,0-0.4,0.1-0.4,0.3c0,0.1,0,0.2,0,0.3c-0.2,0.3-0.2,0.6,0,1c-2.9,0.1-5.7,0.2-8.6,0.3
			c-2.1,0-4.1,0.1-6.2,0.2c0,0,0,0,0,0c-0.1-0.1-0.1-0.2-0.1-0.2c0.7-0.4,1.3-0.9,1.8-1.4c0.7-0.7,1.8-2.1,0.8-2.9
			c-0.8-0.6-2.3-0.2-3.2,0.2c0-0.7,0-1.4,0-2.1c0.8-0.1,1.6-0.3,2.3-0.6c1.6-0.5,2.8-1.5,2.6-2.6c-0.1-0.6-0.3-1-0.7-1.4
			c0,0,0,0,0,0c0,0-0.1-0.1-0.1-0.1c-0.2-0.2-0.4-0.4-0.7-0.6c-2.7-1.8-7.6-1.6-11.2-1.6c-3.2,0-6.4,0.2-9.6,0.5
			c-2.5,0.2-5.1,0.4-7.5,0.8c-2.2,0.2-4.4,0.5-6.1,1.3c-0.4,0.1-0.7,0.2-1,0.4c-0.2,0.1-0.3,0.1-0.5,0.2c-0.2,0.1-0.2,0.2-0.2,0.3
			c-0.2,0.1-0.3,0.3-0.4,0.4c-0.9,0.8-1.1,1.8-0.1,2.7c0.4,0.5,1.1,0.9,2.1,1.2c0.6,0.2,1.3,0.2,1.9,0.3c0,0,0,0,0,0
			c-0.1,0-0.2,0.1-0.1,0.2c0.7,2.1,0.9,4.2,0.4,6.3c-3.9,0.2-7.8,0.4-11.7,0.6c0,0,0-0.1,0-0.1c-0.1-0.3-0.1-0.5-0.2-0.7l0-0.6
			c0-0.1-0.2-0.3-0.5-0.2c-0.3,0-0.7,0-1,0.1c-0.6,0-1.4,0.1-2.1,0.1c-1.1,0.1-2.2,0.1-3.3,0.2c-1.6,0.1-3.6,0-5.1,0.3c0,0,0,0,0,0
			c-0.1,0-0.2,0-0.2,0c-0.1,0-0.1,0-0.2,0.1c-0.1,0.1-0.2,0.1-0.3,0.2c-0.4,0.4-0.1,0.9,0,1.3c-0.4,0-0.8,0.1-1.3,0.1
			c-3.2,0.2-6.4,0.4-9.7,0.6c-0.5,0-1.1,0.1-1.6,0.1c-2.8-0.1-5.6,0.1-8.3,0.5c-2.9,0.2-5.8,0.4-8.5,1.1c-0.1,0-0.1,0-0.2,0
			c-0.2,0.1-0.5,0.1-0.7,0.2c-0.1,0-0.2,0-0.3,0.1c0,0,0,0,0,0c-0.3,0.1-0.7,0.2-1,0.4c-0.2,0.1-0.4,0.1-0.5,0.2
			c-0.1,0-0.2,0.1-0.2,0.2c-2.3,1.3-3.4,3.3-3.7,5.3c-0.7,1.9-0.7,4-0.4,6c0.1,0.5,0.2,1.1,0.3,1.6c0.5,3.2,1.6,6.5,2.3,9.5
			c0,0,0,0,0,0c0.5,2.5,0.8,5.1,1.1,7.6c0.8,6.2,1.3,12.6,4,18.7c1.7,3.9,5.1,7.5,11.1,8.9c3.3,1.3,7.6,1.5,11.5,1.5
			c3.7,0.1,7.4,0,11.1-0.3c0.1,0.4,0.3,0.7,0.5,1c0.1,0.2,0.3,0.4,0.5,0.5c0.2,0.1,0.4,0.2,0.7,0.2c0.5,0.2,1,0.3,1.7,0.3
			c1.1,0.1,1.9-0.1,2.5-0.5c0.2-0.1,0.5-0.1,0.6-0.3c0.3-0.3,0.4-0.7,0.4-1.1c0.1-0.2,0.1-0.4,0.1-0.7c3.6,0,7.2,0,10.8-0.1
			c10.1-0.1,20.2-0.5,30.3-1c7.9-0.3,15.8-0.8,23.7-1.4c1.8-0.1,3.5-0.3,5.3-0.5c0.4,1.1,1.9,2.1,3.9,2c0.6,0,1.2-0.1,1.7-0.3
			c0.6-0.1,1.1-0.2,1.5-0.4c0.8-0.5,0.5-1.3,0.6-2c1.7-0.2,3.4-0.4,5.1-0.6c0,0,0.1,0,0.1,0c0.2,0.1,0.5,0.1,0.7-0.1
			c3.9-0.5,8-1.1,11.4-2.4c2.3-0.9,3.9-2,5-3.3C965.4,311.8,967.3,309.3,967.3,306.3z M964.8,301.6c-0.1,0-0.1,0-0.2,0
			c-0.5,0.1-1,0.1-1.6,0.2c0.6-0.1,1.1-0.2,1.7-0.3C964.8,301.5,964.8,301.6,964.8,301.6z M943.8,259c4-0.2,8.8-0.7,12.5,0.2
			c1.4,0.4,2.5,1.1,3.3,2.1c0.3,0.4,0.6,0.8,0.9,1.2c0.7,1.5,0.9,3.2,1.2,4.5c0.2,0.9,0.3,1.7,0.5,2.6c-0.1,0-0.3,0-0.4,0
			c0.1-0.2-0.1-0.4-0.4-0.4c-0.3,0-0.4,0.2-0.4,0.3c-0.5,0-1.1-0.1-1.7-0.1c0.2-0.1,0.2-0.4-0.2-0.5c-1.3-0.1-2.6-0.4-3.8-0.7
			c-0.5-0.1-0.9,0.3-0.4,0.5c0.2,0.1,0.5,0.1,0.7,0.2c-3-0.6-5.9-1.5-8.4-2.7c-1.4-0.9-2.7-1.8-4-2.7c-0.2-0.1-0.4-0.3-0.5-0.4
			c-1.1-1.2-1.8-2.5-2-3.9C941.9,259.2,942.8,259.1,943.8,259z M925.3,257.6c0.4,0,0.8-0.1,1.2-0.1c0.3-0.2,0.4-0.2,0.3,0.2
			c0.2,0.3,0.2,0.7,0.2,1.1c-2.1,0.1-4.2,0.1-6.3,0.2c0-0.1,0-0.2,0-0.3C920.2,258,924.8,257.6,925.3,257.6z M906.9,264.9
			c-0.6-0.1-1.2-0.2-1.8-0.2c-0.2,0-0.4,0-0.4,0.1c-0.1,0-0.2,0.1-0.2,0.2c-0.1,0.3-0.3,0.6-0.4,0.8c-1.3-1.6-3-3.8-2-5.4
			c0.3,0,0.7,0,1,0C905.2,261.3,906.2,263.3,906.9,264.9z M908.4,266.3c0-0.2-0.1-0.5-0.2-0.7c0.8,0.1,1.5,0.3,2.1,0.5
			c1.6,0.6,2.9,2.4,3.9,3.4c1.1,1,2.1,2,3.2,3c0.4,0.4,1.5,1,1.6,1.5c0.2,0.8-0.9,1-1.7,1.3c-0.1,0-0.1,0.1-0.2,0.1
			c-2.2,1-4.4,2-6.4,3.2c-1.7-2.1-3.5-4.1-5.6-6c-0.6-0.5-1.3-1-1.8-1.6c-0.7-0.8-0.5-1.2-0.1-2c0.3-0.6,0.6-1.1,0.8-1.7
			c0.2,0.2,0.4,0.4,0.6,0.6c0.2,0.2,0.6,0.4,1,0.4c0.2,0.3,0.6,0.6,1,0.8c1.1,0.5,2.5,0.2,2.6-0.7
			C909.5,267.6,909.3,266.8,908.4,266.3z M908.3,267.1c0.1,0.2,0.2,0.4,0.2,0.6c0,0.2,0.2,0.5,0,0.7c-0.2,0.2-0.7,0.3-1,0.3
			c-0.2,0-0.4-0.1-0.5-0.2c-0.1-0.1-0.3-0.2-0.3-0.3c0.3-0.1,0.6-0.2,0.8-0.3c0.1,0,0.1,0,0.2-0.1
			C908,267.6,908.2,267.4,908.3,267.1z M907.4,267c-0.2,0.3-0.6,0.5-1.1,0.7c0-0.1-0.1-0.2-0.1-0.3c0-0.2-0.1-0.5,0.1-0.6
			c0.3-0.3,0.8-0.1,1.2,0c0,0,0,0,0,0C907.5,266.8,907.5,266.9,907.4,267z M907.4,266.1c-1.1-0.2-1.9,0-2,0.9c0,0.2,0,0.4,0,0.6
			c-0.2-0.2-0.5-0.5-0.6-0.8c0,0,0-0.1,0-0.2c0-0.1-0.1-0.1-0.1-0.2c0.2-0.4,0.4-0.8,0.6-1.3c0.6,0.1,1.3,0.2,2,0.3c0,0,0,0.1,0,0.1
			c0,0.1,0.1,0.1,0.1,0.1c0.1,0.1,0.1,0.3,0.1,0.4C907.5,266.1,907.4,266.1,907.4,266.1z M903.9,255.8c0.4-0.3,2-1.3,2.6-0.3
			c0.4,0.7-1,1.9-1.6,2.4c-0.2,0.1-0.5,0.4-0.8,0.6c-0.3-0.9-0.2-1.9-0.2-2.6C903.9,255.9,903.9,255.9,903.9,255.8
			C903.9,255.8,903.9,255.8,903.9,255.8z M903.5,259.1c-0.3,0.2-0.5,0.3-0.7,0.4c0,0-0.1,0-0.2,0c0,0-0.1,0-0.1,0c0,0,0,0,0,0
			c-0.1,0-0.3-0.1-0.4,0c0,0,0,0-0.1,0c0,0,0,0,0,0c0.2,0,0.4,0,0.4-0.2c0.1-0.8,0.2-1.6,0.6-2.3c0,0,0-0.1,0.1-0.1
			C903.1,257.5,903.1,258.3,903.5,259.1z M876.2,253.9c0.1,0,0.3,0,0.4,0c0,0,0,0,0,0.1c0.3,0.8,0.5,1.6,0.8,2.5
			c0,1.4,0.2,2.7,1.2,3.9c-0.6,0-1.3,0.1-1.9,0.1C877.1,258.2,876.9,256.1,876.2,253.9z M879,257.1c-0.3-0.9-0.6-1.7-0.8-2.6
			c0-0.2,0-0.4,0-0.6c0,0,0,0,0-0.1c1.5,0,3,0,4.4-0.1c4.1-0.1,8.1-0.2,12.2-0.4c1.6-0.1,3.3-0.1,5-0.1c0.2,0,0.3,0,0.5,0
			c0.4,1.3,0.6,2.7,0.8,4c-0.4-0.5-1-0.9-1.6-1.3c-0.6-0.4-2.2-1.3-3.1-0.6c-0.8,0.6,0.4,1.9,1,2.5c0.5,0.4,1.1,0.8,1.8,1.1
			c0.5,0.2,1.1,0.3,1.6,0.5c-6.8,0.2-13.6,0.5-20.3,0.7C879.5,259.3,879.4,258.2,879,257.1z M899.3,258.4c-1-0.5-1.7-1.1-2.1-1.8
			c-0.1-0.2-0.2-0.4-0.2-0.5c0.4-0.4,0.9-0.4,1.3,0c0.5,0.3,1,0.6,1.5,1c0.6,0.5,1.1,1.1,1.4,1.7c0,0.1,0,0.3,0,0.4
			C900.5,258.8,899.9,258.7,899.3,258.4z M901.1,253.2c0.7,0,1.3-0.1,2-0.1c0,0.9-0.1,1.7,0,2.6c-0.6,0.5-1,1.2-1.2,1.8
			C901.8,256.1,901.5,254.6,901.1,253.2z M889.2,247.2c1.9-0.1,4.6-0.4,7.5-0.4c1.3,0,2.6,0,3.8,0.1c-3.9,0-7.9,0.1-11.7,0.3
			C888.9,247.2,889.1,247.2,889.2,247.2z M873.2,249.7C873.2,249.7,873.2,249.7,873.2,249.7C873.2,249.7,873.2,249.6,873.2,249.7
			c1.8-1.2,5.4-1.4,7.8-1.7c0.9-0.1,1.8-0.2,2.6-0.3C880.1,248.1,876.6,248.8,873.2,249.7z M873.4,250.1c9.4-2.7,19.9-2.8,30.1-2.8
			c0.5,0.1,1,0.3,1.5,0.5c-10.4,1.1-20.8,2.1-31.3,3C873.7,250.6,873.6,250.4,873.4,250.1z M873.9,251.3c10.6-1,21.3-2,31.9-3.1
			c0.3,0.2,0.6,0.4,0.8,0.6c0.3,0.3,0.5,0.5,0.6,0.7c-10.8,1.8-21.9,2.8-33.1,2.8C874.1,251.9,874,251.6,873.9,251.3z M875.3,252.8
			c-0.4,0-0.8,0-1.1-0.1c11.2,0,22.3-1,33.2-2.8c0.5,2.5-7.6,2.5-10,2.5l-8.1,0.2c-2.7,0.1-5.4,0.1-8.1,0.2c-1.4,0-2.7,0.1-4.1,0.1
			C876.4,252.9,875.9,252.9,875.3,252.8z M857.3,260.6c1.4-0.1,4.4-0.6,4.7,0.5c-3.3,0.2-6.6,0.4-9.9,0.6c0-0.1,0-0.1-0.1-0.2
			C851.4,260.9,857.1,260.6,857.3,260.6z M819.2,267.3c0.2-0.3,0.5-0.5,0.8-0.8c1.7-1.2,3.9-1.9,6.3-2.4c3.1-0.4,6.4-0.4,9.5-0.6
			c0.7,0,1.4-0.1,2.1-0.1c-0.2,0.5-0.5,1-0.7,1.5c-0.2,0.3,0.7,0.4,0.8,0.1c0.3-0.5,0.5-1,0.8-1.5c0,0,0-0.1,0-0.1
			c0.2,0,0.4,0,0.6,0c0,1.9-0.7,3.8-2.1,5.5c-1,1.3-2.4,2.4-4,3.5c-0.1,0.1-0.3,0.2-0.4,0.3c-0.9,0.6-2,1.1-3.1,1.7
			c-2.3,1.1-4.8,1.9-7.5,2.6c-1.4,0.3-2.7,0.5-4.1,0.6c0-0.3-0.1-0.6-0.1-0.9c-0.1-1-0.3-2.1-0.4-3.2
			C817.6,271.3,818,269.3,819.2,267.3z M815.6,277.7L815.6,277.7c0.5,0,0.5-0.4,0.1-0.4l-0.2,0c-0.3-1.6-0.4-3.3-0.2-4.9
			c0.1-0.1,0.2-0.2,0.3-0.3c0-0.4,0.1-0.9,0.2-1.3c0.1-0.3,0.2-0.5,0.3-0.7c0-0.1,0.1-0.2,0.1-0.3c-0.3,1.2-0.4,2.4-0.3,3.7
			c0.1,1.5,0.3,3.1,0.5,4.6c-0.2,0.1-0.5,0.1-0.7,0.2C815.7,278.1,815.7,277.9,815.6,277.7z M821.7,309.7c-1.5-5-2-10.2-2.7-15.3
			c-0.6-5-1.6-9.8-2.9-14.7c0-0.1-0.1-0.3-0.1-0.4c0.2-0.1,0.4-0.1,0.6-0.2c0.4,2.3,0.9,4.6,1.4,6.9c1.7,7.2,3.7,14.4,5.6,21.6
			c0,0.1-0.1,0.2-0.1,0.3c0.1,0.7,0.3,1.4,0.5,2c-0.8,0.1-1.5,0.3-2.2,0.5C821.8,310.2,821.7,309.9,821.7,309.7z M822.5,312.2
			l1.2-0.5c0.4-0.1,0.1-0.5-0.3-0.4c-0.4,0.1-0.7,0.3-1.1,0.4c-0.1-0.2-0.1-0.3-0.2-0.5c0,0,0.1,0,0.1,0c0.6-0.2,1.3-0.4,2-0.5
			c0.3,1,0.6,1.9,0.9,2.9c0.3,1.9,0.9,3.7,2.3,5.4c0.1,0.2,0.3,0.3,0.4,0.5c0.2,0.3,0.4,0.6,0.7,0.8
			C825.3,318.2,823.6,315.2,822.5,312.2z M844.5,321.2c0.4,0.3,0.6,0.7,0.7,1.1c-4.5,0-9-0.4-12.9-1.7c-2-1.2-3.6-2.7-4.5-4.3
			c-0.4-0.7-0.7-1.4-0.9-2.1c0-0.1-0.1-0.2-0.1-0.3c-0.3-0.8-0.5-1.7-0.7-2.5c0.3,0,0.5,0,0.8,0c0.5,0,0.7-0.5,0.2-0.5
			c-0.3,0-0.6,0-0.9,0c0-0.1,0-0.2-0.1-0.2c0.4,0,0.7-0.1,1.1-0.1c4.7-0.2,8.5,1.1,11.6,3c3.5,2.4,6,5.8,7.7,8.8c-0.1,0-0.3,0-0.4,0
			c-0.2-0.5-0.5-1-0.9-1.4C844.9,320.6,844.2,320.9,844.5,321.2z M845.7,324.2c-3.1,0-6.7-0.1-9.8-0.7c0,0,0.1,0,0.1-0.1
			c0.5,0.1,0.9,0.1,1.4,0.2c3.4,0.3,7,0.3,10.6,0.2c0.2,0.1,0.4,0.1,0.5,0c0.9,0,1.8,0,2.7-0.1c1,0,2,0,3,0c0.4,0,0.7,0,1.1,0
			c0,0,0,0.1,0,0.1C852.1,324.1,848.9,324.2,845.7,324.2z M860.9,324.7c-0.3,0.7-1.3,0.8-2.3,0.7c-1.2-0.1-1.6-0.6-1.8-1.2
			c1.4-0.1,2.8-0.2,4.2-0.4C861,324.1,861,324.4,860.9,324.7z M937,321.9c-1.4,0.3-2.8-0.3-3.1-1.2c1.6-0.1,3.2-0.3,4.8-0.5
			C938.5,321,938.3,321.6,937,321.9z M944.5,318.4c-4.8,0.7-9.6,1-14.4,1.4c-5.6,0.5-11.2,0.9-16.9,1.3c-14.8,0.9-29.7,1.5-44.6,1.6
			c-6.4-0.4-12.9-0.5-19.4-0.4c-0.4,0-0.7,0-1.1,0c-3.6-6-10-14-22.1-12.5c0,0,0-0.1,0-0.1c-0.3-1.8-0.5-3.6-0.8-5.3
			c-1.6-7.3-4.3-14.5-6.1-21.9c-0.2-0.7-0.3-1.5-0.5-2.2c-0.1-0.6-0.2-1.2-0.3-1.7c11.7-1.9,22.1-7.3,22.7-15.3
			c4.2-0.2,8.4-0.5,12.6-0.7c11.7-0.7,23.4-1.3,35.2-1.7c4.1-0.2,8.3-0.3,12.4-0.4c-0.9,1.9,1.1,4.3,2.5,6c0,0,0,0.1,0,0.1
			c0,0,0,0,0,0c-0.4,0.8-0.8,1.7-1.3,2.5c-0.7,1.5-0.6,1.3,0.8,2.6c2.7,2.4,5,4.8,7,7.4c0.1,0.2,0.5,0.2,0.7,0.1
			c2.7-1.6,5.5-3,8.6-4.2c0.1,0,0.1-0.1,0.2-0.1c0.2-0.1,0.3-0.2,0.5-0.3c0.1-0.1,0.1-0.2,0.1-0.3c-0.6-1.1-2.1-2.1-3.1-3
			c-1.3-1.2-2.6-2.4-3.9-3.6c-0.7-0.7-1.4-1.6-2.6-2.1c-0.8-0.3-1.8-0.4-2.8-0.6c0,0,0,0,0,0c0,0-0.1-0.1-0.1-0.1
			c-0.7-1.5-1.6-3.4-3.5-4.6c6.4-0.2,12.8-0.4,19.2-0.6c3.3-0.1,6.6-0.2,9.9-0.3c1.9,0,3.9,0,5.8-0.1c0,0.9,0.4,1.7,1.1,2.4
			c1.6,2.9,5.4,5.2,9.9,6.7c3.5,1.6,7.7,2.6,12.1,2.3c0.1,0.6,0.2,1.2,0.3,1.8c0,0.5,0,1,0,1.5c0,0.1,0.1,0.2,0.2,0.3
			c0.3,2.5,0.6,5.1,0.8,7.6c0.4,4.1,0.8,8.2,1.1,12.3c0,1,0.1,1.9,0.1,2.9c0,1.2,0,2.3,0,3.5c-5.8,0.9-11,3.3-14.8,6.1
			C945.2,310.1,944.4,314,944.5,318.4z M963.3,311.4c-3.3,3.4-9.9,5.6-16,6.6c0-0.5,0.1-1,0.1-1.5c0-0.3-0.8-0.3-0.8,0
			c0,0.5-0.1,1.1-0.1,1.6c-0.2,0-0.3,0.1-0.5,0.1c0-0.4-0.1-0.8-0.1-1.2c0-0.3,0-0.6,0.1-1c0.4-3.5,2.5-6.9,6.1-9.5
			c1.1-0.7,2.2-1.4,3.5-2c2.6-1.2,5.7-2.1,9.3-2.4c0,0,0.1,0,0.1,0c0,0.2,0,0.4,0,0.5c-0.3,0.1-0.6,0.1-1,0.2
			c-0.5,0.1-0.2,0.6,0.3,0.5l0.6-0.1c-0.1,1.4-0.2,2.7-0.3,4C964.3,308.6,964,310,963.3,311.4z"/>
		<path id="XMLID_31223_" class="st2" d="M946.9,314c-0.1,0.6-0.2,1.1-0.4,1.7c-0.1,0.3,0.8,0.4,0.8,0.1c0.1-0.6,0.2-1.1,0.4-1.7
			C947.8,313.8,947,313.7,946.9,314z"/>
		<path id="XMLID_31222_" class="st2" d="M948.5,311.3c-0.3,0.6-0.6,1.1-1.1,1.6c-0.3,0.3,0.5,0.5,0.8,0.2c0.4-0.5,0.8-1,1.1-1.6
			C949.4,311.2,948.6,311,948.5,311.3z"/>
		<path id="XMLID_31221_" class="st2" d="M950.4,308.7c-0.4,0.5-0.7,1-1.1,1.5c-0.2,0.3,0.5,0.5,0.8,0.2c0.4-0.5,0.7-1,1.1-1.5
			C951.4,308.6,950.6,308.4,950.4,308.7z"/>
		<path id="XMLID_31220_" class="st2" d="M953.7,306.2c-0.8,0.5-1.5,1.1-2,1.7c-0.3,0.3,0.5,0.5,0.8,0.2c0.5-0.6,1.1-1.1,1.9-1.6
			C954.8,306.3,954.1,306,953.7,306.2z"/>
		<path id="XMLID_31219_" class="st2" d="M958.4,304.5c-1.1,0.2-2.1,0.6-3.1,1c-0.4,0.2,0,0.6,0.5,0.4c0.9-0.4,1.8-0.7,2.9-0.9
			C959.2,304.8,959,304.3,958.4,304.5z"/>
		<path id="XMLID_31218_" class="st2" d="M962.9,303.2c-1,0.2-2,0.4-2.9,0.7c-0.5,0.1-0.2,0.6,0.3,0.5c0.9-0.3,1.9-0.5,2.9-0.7
			C963.7,303.6,963.4,303.1,962.9,303.2z"/>
		<path id="XMLID_31217_" class="st2" d="M831.5,311.6c-0.7-0.1-1.4-0.2-2.1-0.2c-0.5-0.1-0.7,0.5-0.2,0.5c0.7,0.1,1.4,0.2,2.1,0.2
			C831.8,312.2,832,311.6,831.5,311.6z"/>
		<path id="XMLID_31216_" class="st2" d="M835.5,312.7c-0.7-0.3-1.5-0.6-2.3-0.7c-0.5-0.1-0.7,0.4-0.2,0.5c0.7,0.1,1.3,0.4,1.9,0.6
			C835.4,313.3,836,312.9,835.5,312.7z"/>
		<path id="XMLID_31215_" class="st2" d="M838.5,314.3c-0.5-0.3-1-0.5-1.6-0.8c-0.5-0.2-0.8,0.3-0.4,0.5c0.5,0.2,1,0.4,1.4,0.7
			C838.3,315,838.9,314.6,838.5,314.3z"/>
		<path id="XMLID_31214_" class="st2" d="M841.5,316.3c-0.5-0.3-1-0.6-1.6-1c-0.4-0.2-0.9,0.2-0.5,0.4c0.5,0.3,1,0.6,1.6,1
			C841.4,316.9,841.9,316.5,841.5,316.3z"/>
		<path id="XMLID_31213_" class="st2" d="M844.5,319.6c-0.5-0.6-1.1-1.2-1.8-1.7c-0.3-0.3-1,0-0.7,0.3c0.7,0.5,1.2,1,1.7,1.6
			C844,320.1,844.8,319.9,844.5,319.6z"/>
		<path id="XMLID_31209_" class="st2" d="M864.3,274.3c-0.2-0.1-0.5-0.1-0.7-0.2c-0.2-0.1-0.4-0.1-0.6-0.2c-0.8-0.3-1.5-0.6-2.3-0.9
			c0.2-0.3,0.4-0.6,0.5-0.8c0.2-0.4,0.5-0.7,0.7-1.2c0.3,0.2,0.6,0.4,0.9,0.6c0.1,0.1,0.1,0.1,0.2,0.2c0.3,0.3,0.9,0,0.7-0.2
			c0-0.1,0-0.1-0.1-0.2c-0.1,0-0.1-0.1-0.2-0.1c-0.4-0.4-0.8-0.7-1.2-1.1c0.4-0.9,0.6-1.9,0.4-2.7c-0.2-0.8-1.2-2.1-2.8-1.8
			c-1.5,0.3-1.2,1.5-0.9,2.2c0.4,1,1.2,1.8,2.3,2.6c0,0.1-0.1,0.1-0.1,0.2c-0.3,0.7-0.7,1.4-1.2,2c-0.6-0.2-1.2-0.3-1.8-0.3
			c-1.4,0-2.8,0.5-3,1.4c-0.1,0.9,1,1.6,2.4,1.4c1.2-0.2,2.1-0.9,2.7-1.6c1.2,0.4,2.4,0.8,3.5,1.2c0.1,0,0.2,0,0.3,0
			C864.5,274.8,864.8,274.4,864.3,274.3z M860.8,268.9c-0.3-0.3-0.7-0.6-0.7-0.9c-0.3-0.3-0.1-0.5,0.7-0.5c0.6-0.4,0.9-0.4,0.9,0
			c0.3,0.4,0.1,1.2,0.1,1.6c0,0,0,0,0,0.1c0,0.1-0.1,0.3-0.1,0.4C861.4,269.4,861.1,269.1,860.8,268.9z M858.5,273.7
			c-0.2,0.2-0.2,0.1,0-0.4c0,0,0.1,0,0.1,0c0.1,0,0.2,0,0.3-0.1l0.2,0.1c-0.1,0.1-0.2,0.2-0.3,0.2
			C858.6,273.6,858.6,273.6,858.5,273.7z"/>
		<path id="XMLID_46_" class="st2" d="M867.4,272.3c-0.3-0.2-0.8-0.4-1.3-0.3c0,0-0.1,0-0.1,0c-0.8-0.1-0.9,1.3-0.7,1.6
			c0.2,0.6,1.4,1.2,2.4,0.7C868.7,273.9,868.1,272.9,867.4,272.3z M867,274c-0.5,0.1-0.9-0.2-1-0.4c0-0.1-0.1-0.4-0.1-0.7
			c0.1,0,0.2-0.1,0.2-0.2c0,0,0,0,0,0c0.1,0,0.1,0,0.2-0.1c0.2,0,0.4,0.2,0.5,0.2c0.1,0.1,0.2,0.2,0.3,0.3
			C867.3,273.3,867.6,273.8,867,274z"/>
		<path id="XMLID_45_" class="st2" d="M871.1,271.2c-0.7,0.5-0.5,1.2-0.3,1.8c0.1,0.3,0.1,0.6-0.1,0.8c-0.5,0.4-0.9,0-1-0.3
			c-0.2-0.5-0.3-1-0.3-1.5c0-0.3-0.8-0.3-0.8,0c0,0.7,0.1,2.9,2,2.5c0.7-0.1,1.1-0.5,1.1-1c0.1-0.6-0.7-1.4,0-1.9
			C872.1,271.2,871.4,270.9,871.1,271.2z"/>
		<path id="XMLID_42_" class="st2" d="M876,272.5c-0.5,1-2.4,0.8-3.1,0.1c0,0-0.1-0.1-0.1-0.1c0.1,0,0.2,0,0.2-0.1
			c0.7-0.6,1-1.3,0.8-2c0-0.2-0.4-0.3-0.7-0.2c-1.5,0.8-2.1,2.2-0.6,3.1c1.4,0.8,3.6,0.5,4.2-0.7C877,272.3,876.2,272.2,876,272.5z
			 M873,271.1c-0.1,0.2-0.2,0.5-0.4,0.7C872.7,271.5,872.8,271.3,873,271.1z"/>
		<path id="XMLID_33_" class="st2" d="M877.3,283.2c2.5,0.2,4.8-1.2,3.8-2.8c-0.4-0.7-1.7-0.6-2.7-0.4c-0.7,0.2-1.4,0.4-1.9,0.8
			c0.1-0.6,0.1-1.2-0.2-1.8c-0.3-0.6-1.3-1.2-2.4-1c-1.8,0.3-1.7,1.7-1.2,2.8c-1.3-0.8-3.4-1.2-4.8-0.3c-0.9,0.6-0.4,1.4,0.5,1.8
			c0.6,0.3,1.3,0.4,2,0.5c-0.1,0-0.2,0.1-0.4,0.1c-0.1,0-0.2,0-0.3,0.1c0,0,0,0-0.1,0c-1,0.4-1.6,1.1-0.8,1.9c1,1.1,3.1,1,4.4,0.3
			c-0.3,1.3-0.1,3,1.7,3.1c1.7,0,1.9-1.5,1.8-2.8c0.2,0.2,0.4,0.4,0.6,0.5c0.7,0.4,2,0.9,3,0.4c0.8-0.4,0.5-1.3,0-1.8
			c-0.8-0.7-2.1-0.9-3.3-1c0.1-0.1,0.2-0.2,0.2-0.3C877.3,283.2,877.3,283.2,877.3,283.2z M874.5,278.5c1.7,0.3,1.4,1.9,1.1,2.9
			c-0.3,0-0.6-0.1-0.9,0c0-0.1-0.3-0.3-0.5-0.2c-0.1,0-0.2,0.1-0.3,0.1c-0.3-0.4-0.5-0.8-0.5-1.2
			C873.3,279.8,873.2,278.3,874.5,278.5z M873.7,283.5c-0.1,0-0.1,0.1-0.1,0.1c-0.4,0.6-0.9,1.3-1.9,1.5c-1.7,0.2-2.1-1.1-1.2-1.7
			c0,0,0,0,0,0c0.8-0.3,1.7-0.4,2.6-0.2c0.1,0,0.1,0,0.2,0C873.3,283.2,873.5,283.4,873.7,283.5z M870.2,282.2
			c-0.5-0.1-0.9-0.2-1.3-0.3c-0.8-0.4-0.8-1,0.3-1.2c1.6-0.3,3.3,0.4,3.8,1.4c0,0,0,0.1,0.1,0.1c0,0.1,0,0.1,0,0.2c0,0,0,0-0.1,0
			C872,282.4,871.1,282.4,870.2,282.2z M876,285.5c0,0.4,0,0.7-0.1,1.1c-0.1,0.5,0.1,0.8-0.9,0.6c-0.8-0.2-0.7-0.2-0.7-0.6
			c0-0.2,0-0.4-0.1-0.7c0-0.6,0.1-1.2,0.3-1.7c0-0.1,0-0.2-0.1-0.2c0.4,0.2,0.8,0.2,1.3,0.2C875.8,284.6,875.9,285,876,285.5z
			 M875.8,283.5c-1.2,0.2-2.3-0.8-1.9-1.4c0.1,0,0.2-0.1,0.3-0.1c0.1,0,0.2,0,0.3,0c0.3-0.1,0.7-0.1,1-0.1c0,0.2,0.3,0.2,0.6,0.2
			c0.1,0.1,0.2,0.1,0.3,0.2C876.6,282.7,876.6,283.4,875.8,283.5z M879.2,284.6c0.3,0.2,0.6,0.4,0.8,0.6c0.2,0.4,0.1,0.9-0.9,0.8
			c-1.3-0.2-1.9-1.2-2.3-2c0,0,0.1,0,0.1,0C877.7,284.2,878.5,284.3,879.2,284.6z M876.6,281.7c0.5-0.6,3.1-2.1,3.8-1
			c0.7,1.1-1.3,2.1-3,2c-0.1,0-0.1,0-0.2,0c0-0.2-0.1-0.3-0.2-0.5C877,282,876.8,281.9,876.6,281.7z"/>
		<path id="XMLID_30_" class="st2" d="M853.3,278.2c-0.4-0.7-1.5-0.8-2.5-0.6c-1.1,0.3-2,0.8-2.4,1.5c-0.5-0.7-1.2-1.3-2.4-1.5
			c-1.1-0.2-2.6-0.1-3.3,0.6c-0.9,0.8-0.3,1.8,0.6,2.5c0.5,0.4,1.2,0.7,1.8,1.1c1.2,0.7,2.3,1.5,3.3,2.3c0.3,0.2,0.9,0,0.7-0.2
			C850.6,281.9,854.9,280.8,853.3,278.2z M851.6,281.2c-1,0.8-2.2,1.3-2.9,2.2c-1.2-0.9-2.5-1.7-3.9-2.5c-0.5-0.3-1-0.6-1.3-1.1
			c-0.4-0.9,0.3-1.8,1.9-1.6c1.5,0.1,2.3,1.1,2.7,1.9c0,0,0,0.1,0,0.1c0,0.1,0,0.2,0.2,0.2c0,0,0,0,0,0.1c0.1,0.3,0.9,0.1,0.8-0.2
			c0-0.1-0.1-0.1-0.1-0.2c0.1-0.4,0.4-0.9,0.8-1.2c0.7-0.6,1.9-0.9,2.9-0.3C853.5,279.2,852.2,280.7,851.6,281.2z"/>
		<path id="XMLID_24_" class="st2" d="M841.8,296.3 M845,298.2"/>
		<path id="XMLID_26_" class="st2" d="M847.8,297.8"/>
		<path id="XMLID_22_" class="st2" d="M844.2,295.3"/>
		<path id="XMLID_28_" class="st2" d="M846.6,294.2"/>
		<path id="XMLID_27_" class="st2" d="M845.3,295.7"/>
		<path id="XMLID_23_" class="st2" d="M847.8,293.8"/>
		<path id="XMLID_48_" class="st2" d="M846.7,292.1"/>
	</g>
	<path id="XMLID_15331_" class="st2" d="M893.9,310.5 M894.4,312"/>
	<path id="XMLID_15335_" class="st2" d="M910.1,312.2 M911.1,311 M911.2,313.3 M909.7,311.3"/>
	<path id="XMLID_15338_" class="st2" d="M915.6,309.9 M913.1,311"/>
</g>
<text id="XMLID_2_" transform="matrix(1.0437 0 0 1 843.6189 310.8154)" class="st2 st3 st4">Kathmandu</text>
<g id="XMLID_15252_">
	<path id="XMLID_117_" class="st1" d="M965.9,224.5c-0.1-0.3-0.2-0.5-0.4-0.8c-0.6-1.1-1.5-2-2.6-2.2c-1.1-0.2-2.1,0.7-2.9,1.5
		c-0.9,0.9-1.6,1.9-2.2,3c-0.7,1.3-1.3,2.7-1.8,4.1c-0.5,1.4-0.9,2.9-1.6,4.1c-0.4-0.4-1.2-0.8-2.4-0.9c-0.1,0-0.2,0-0.3,0
		c-0.4-0.1-0.7-0.1-1.1-0.2c0.1-0.4,0.1-0.9,0-1.3c0,0,0-0.1,0-0.1c0-0.1,0-0.2-0.1-0.2c0,0-0.1,0-0.1,0c0,0,0,0,0,0
		c-0.7-0.2-1.4-0.3-2.1-0.4c-0.5-0.1-1.4-0.5-1.9-0.4c-0.4,0.1-0.4,1.3-0.5,1.9c-0.5-0.1-1-0.1-1.5-0.2c-1.9-0.3-8-1.2-9.1-1.3
		c-0.1,0-0.2,0-0.4-0.1c-2-0.6-4-1-6.1-1.1c-1-0.2-2.3-0.5-2.5,1c-0.1,0.8-0.1,1.8-0.2,2.6c0,0.5,0,1-0.1,1.5
		c-0.3,3.1-0.9,9.3-1.1,12.1c-0.1,0.5-0.2,1-0.2,1.6c0,0.2,0,0.4,0,0.6c0,0.5,0,1.2,0,1.2c0.2,0.5,0.4,0.8,1.9,1
		c0.8,0.1,1.6,0.3,2.4,0.4c1,0.3,2,0.5,2.9,0.7c3.8,0.7,7.7,1,11.6,1.2c1.8,0.2,3.2,0.4,4,0.5c1.3,0.1,2.8,0.5,4.1,0.3
		c0.6-0.1,1.1-0.4,1-1.2c0,0,0.1-0.6,0.2-1.4c0.1-0.4,0.2-0.9,0.3-1.3c0.3-1.5,0.5-3,0.7-4.5c0.2-1.8,0.4-3.6,0.6-5.4
		c0.1-0.7,0.2-1.5,0.2-2.3c0.1-0.6,0.1-1.3,0.2-1.9c0-0.1,0-0.1,0-0.2c0,0,0.1,0,0.1,0c2.8-0.9,5.8-1.9,8.3-3.8
		c1.6-1.3,3-3.3,2.9-5.9C966.4,226,966.2,225.2,965.9,224.5z M950.1,231.7c0,0,0.1,0,0.1,0.1c0.2,0.2,0.2,0.6,0.2,1
		c0,0.1,0,0.2-0.1,0.3c-0.1,0-0.3,0-0.4-0.1C950.1,232.6,950.1,232.2,950.1,231.7C950.1,231.8,950.1,231.7,950.1,231.7z
		 M949.4,231.5c0.2,0,0.4,0.1,0.6,0.1c0,0,0,0,0,0.1c0,0.4-0.1,0.9-0.1,1.3c-0.2,0-0.3,0-0.5-0.1C949.3,232.5,949.4,232,949.4,231.5
		z M948.5,231.5c0.1,0,0.4,0,0.6,0.1c-0.1,0.4-0.1,1-0.2,1.4c-0.2,0-0.5,0-0.7-0.1C948.4,232.5,948.5,231.9,948.5,231.5z
		 M947.9,231.3c0.1,0,0.3,0.1,0.4,0.1c-0.1,0.5-0.1,1-0.2,1.5c0,0,0,0,0,0c-0.2,0-0.3,0-0.5-0.1c0.1-0.3,0.2-0.6,0.2-0.9
		C947.8,231.7,947.9,231.5,947.9,231.3z M947.7,231.2c-0.1,0.2-0.1,0.4-0.1,0.5c-0.1,0.3-0.1,0.7-0.2,1c-0.2,0-0.3,0-0.5-0.1
		c0.1-0.5,0.3-1.1,0.2-1.6C947.3,231.1,947.5,231.2,947.7,231.2z M946.9,231.1c0,0.2,0,0.3-0.1,0.5c-0.1,0.3-0.1,0.7-0.2,1
		c-0.1,0-0.2,0-0.3,0C946.4,232,946.4,231.3,946.9,231.1z M941.3,232.7c2.4,0.3,4.8,0.4,7.2,0.7c0.6,0.1,1.1,0.1,1.7,0.2
		c0,0,0,0.1,0.1,0.1c0.7,0.1,1.5,0.1,2.3,0.3c0,0,0,0,0.1,0c0.8,0.2,1.6,0.6,1.9,1.5c-2.8-0.4-13.3-0.9-15.1-3
		C940.1,232.5,940.7,232.6,941.3,232.7z M926.5,238.5c0.1-0.9,0.1-1.7,0.2-2.6c1.5,0.7,3.1,0.9,4.7,1.2c1.5,0.3,3.1,0.5,4.7,0.5
		c-0.1,0.1-0.1,0.1-0.1,0.2c-1.7,2.1-2.3,5.4-1.6,8.3c0.2,0.7,0.5,1.4,0.8,2c-1.6-0.1-7.8-1.6-9.6-1.7
		C926,243.7,926.3,241.1,926.5,238.5z M938.9,236.4c1.5-0.2,2.6,0.5,3.7,1.6c0.2,0.4,0.5,0.7,0.7,1c0.4,0.6,0.8,1.3,1,2.1
		c0.5,1.6,0.4,3.1,0.1,4.8c-0.2,0.6-0.5,1.1-0.8,1.7c-1.9,3.1-5.6,4.1-7.8,1c-1.8-2.6-1.9-6.6-0.3-9.4
		C936.3,237.6,937.5,236.5,938.9,236.4z M952.8,252.1C952.8,252.1,952.8,252.1,952.8,252.1c-0.5,1.4-1.3,1.8-2.5,1.8
		c-1.1-0.1-2.1-0.1-3.2-0.2c-0.7,0-1.4-0.1-2.1-0.1c-2.2-0.2-4.4-0.5-6.6-0.8c-2.3-0.3-4.6-0.6-6.9-0.9c-1.1-0.2-2.1-0.3-3.2-0.5
		c-0.8-0.2-1.7-0.4-2.4-0.8c-0.4-0.3-0.6-0.7-0.7-1.1c0-0.6,0-1.3,0.1-1.9c0.1-0.3,0.1-0.6,0.1-0.8c2.2,0.3,7.2,1.5,9.9,1.8
		c1,1.6,2.3,2.5,4.1,2.4c1.2-0.1,2.3-0.6,3.2-1.5c1.8,0.1,8.7,1,10.4,1.1C952.9,251,952.8,251.6,952.8,252.1z M953.9,244
		c-0.3,2-0.5,4.1-0.8,6.1c-2-0.2-3.5-0.5-5.2-0.7c-1.6-0.2-3.2-0.6-4.8-0.6c1-1.1,1.7-2.6,2.1-4.2c0.4-1.8-0.1-3.4-0.8-4.9
		c-0.2-0.4-0.4-0.9-0.7-1.3c3.6,0.7,6.6,1,10.8,1.4C954.2,241.3,954.1,242.6,953.9,244z M954.7,236.9
		C954.7,236.9,954.7,236.9,954.7,236.9c-0.1,0.1,0,0.2,0,0.3c0,0.4-0.1,0.8-0.1,1.2c-0.1,0.5-0.2,0.9-0.2,1.2
		c-3.1-0.3-6.1-0.9-10.9-1.5c-0.1,0-0.9-1-1.5-1.3c-1.6-1.5-4.2-1-5.8,0.5c0,0,0,0,0,0c-1.6-0.2-3.3-0.3-4.9-0.6
		c-1.6-0.3-3.1-0.9-4.7-1.2c0-0.4,0-0.9,0.1-1.3c0-1.1-0.1-2.9,0.7-3.8c0,0,0,0,0,0c0.2-0.1,0.4-0.1,0.6,0c0.9-0.1,1.9,0.3,2.8,0.4
		c0.9,0.1,1.7,0.3,2.6,0.4c0.6,0.1,1.2,0.2,1.8,0.3c1.2,0.3,2.4,0.6,3.7,0.8c1.3,2,4.1,2,5.9,2.3c3.2,0.5,6.5,1,9.7,1.2
		C954.7,236.1,954.7,236.4,954.7,236.9z M954.9,234.7c0-0.1-0.1-0.2-0.2-0.2c0.6-1.1,1-2.3,1.5-3.5c0.5-1.3,1-2.6,1.6-3.9
		c0.6-1.1,1.2-2.2,2-3.1c0.9-1,2.2-2.3,3.4-2c0.4,0.1,0.8,0.3,1.1,0.6c-0.2-0.1-0.3-0.1-0.5-0.2c-1.3-0.2-2.5,0.6-3.4,1.6
		c-1.1,1.4-1.9,3.2-2.7,4.9C956.7,230.9,955.8,232.8,954.9,234.7z M961.9,233c-1.1,0.6-2.2,1.1-3.3,1.6c-1.1,0.5-2.3,1-3.4,1.4
		c0-0.2,0-0.5-0.1-0.8c0,0,0.1,0,0.2,0c1.6-1,3.3-1.9,4.9-2.7c1.2-0.6,2.5-1.2,3.6-2.3c0.9-0.9,1.6-2.2,1.7-3.7
		c0.1-1.3-0.2-2.8-1.2-3.4c0,0,0,0,0,0c0.7,1.3,1.1,2.7,0.7,4.3c-0.4,1.5-1.5,2.6-2.5,3.3c-1.2,0.8-2.5,1.4-3.8,2
		c-1.2,0.6-2.3,1.3-3.5,2c1.4-2.9,2.7-5.9,4.3-8.6c0.8-1.4,1.9-2.9,3.3-3.2c1-0.2,1.8,0.2,2.5,1c0.6,1.2,0.9,2.8,0.7,4.2
		C965.5,230.6,963.6,232.1,961.9,233z"/>
	<path id="XMLID_111_" class="st1" d="M942.1,242.5c-0.1-0.8,0-1.3-1-2.4c-0.3-0.3-0.6-0.4-1-0.5c-1.8-0.2-3.4,1.9-2.9,4.2
		c0.5,2.1,2.8,3.3,4.2,1.7C941.9,244.8,942.2,243.6,942.1,242.5z M940.2,240.1c0.4,0.1,0.7,0.4,0.9,0.7c-0.5-0.6-1.1-0.9-1.9-0.6
		c-0.2,0-0.3,0.1-0.4,0.2C939.2,240.1,939.7,240,940.2,240.1z M939.3,240.6c0.1,0,0.2,0,0.3-0.1c-0.3,0-0.7,0.2-1,0.4
		C938.8,240.8,939,240.7,939.3,240.6z M937.5,243.1c0-0.1,0-0.1,0.1-0.2c0,0.3,0,0.6,0.1,0.8c0,0.1,0,0.2,0.1,0.3
		C937.6,243.7,937.5,243.4,937.5,243.1C937.5,243.1,937.5,243.1,937.5,243.1z M941.4,243.7c-0.3,2.1-1.9,2-2.9,1.2
		c-0.2-0.4-0.4-0.9-0.5-1.2c-0.1-0.5-0.2-1.2,0-1.7c0.4-0.6,1-1,1.6-1C940.8,240.8,941.6,242.3,941.4,243.7z"/>
	<path id="XMLID_102_" class="st1" d="M936.1,232.2C936.1,232.2,936.1,232.2,936.1,232.2c0-0.1-0.1-0.2-0.1-0.2c-0.1,0-0.1,0-0.2,0
		c0,0-5.3-0.9-5.7-0.9c-0.1,0-0.2,0-0.3,0.1c-0.1,0-0.2,0-0.2,0.1c-0.3,1.3-0.5,2.6-0.5,3.9c0,0.1,0.1,0.2,0.2,0.2
		c0.5,0,1,0.1,1.5,0.1c1.6,0.2,3.9,0.7,4.6,0.8c0.1,0,0.1-0.1,0.1-0.2c0,0,0,0,0-0.1C935.8,234.9,936.2,232.3,936.1,232.2z
		 M931.7,231.8c0.5,0.1,1.1,0.2,1.6,0.3c0,0.1,0,0.3-0.1,0.4c-1-0.3-2.1-0.4-3.2-0.5C930.4,231.4,931,231.7,931.7,231.8z
		 M931.1,235.2c-0.2,0-0.4,0-0.7,0c-0.2,0-0.4-0.1-0.6-0.1c-0.2,0-0.3,0-0.3-0.1c0-0.1,0-0.3,0-0.4c1.1,0.2,2.2,0.5,3.3,0.6
		c0,0.1,0,0.2,0,0.3C932.3,235.4,931.7,235.3,931.1,235.2z M929.7,233.8c0-0.1,0-0.3,0-0.4c1.1,0.3,2.2,0.5,3.3,0.5
		c0,0.2,0,0.4-0.1,0.5C931.9,234.3,930.8,233.9,929.7,233.8z M933,234.5c0,0.2,0,0.4-0.1,0.6c-1.1-0.3-2.2-0.5-3.3-0.7
		c0-0.2,0-0.3,0-0.5C930.8,234.1,931.9,234.5,933,234.5z M929.8,233.2c0-0.2,0-0.4,0.1-0.6c0,0,0,0,0,0c1.1,0.2,2.2,0.4,3.3,0.6
		c0,0.2,0,0.4-0.1,0.6C932,233.6,930.9,233.5,929.8,233.2z M929.9,232.4c0-0.1,0.1-0.2,0.1-0.3c1.1,0.2,2.2,0.4,3.2,0.5
		c0,0.2,0,0.3-0.1,0.5C932.1,232.8,931,232.6,929.9,232.4z M935.6,234.1c-0.1,0.5-0.2,1-0.2,1.5c0,0.1,0,0.2-0.1,0.3c0,0,0,0,0,0
		c-0.7-0.2-1.5-0.3-2.2-0.4c0.1-1.1,0.3-2.3,0.4-3.4c0.8,0.1,1.6,0.2,2.4,0.3c0,0,0,0,0,0C935.7,233,935.6,233.6,935.6,234.1z"/>
	<path id="XMLID_99_" class="st1" d="M935.4,232.8c0-0.1-0.1-0.1-0.1-0.1c-0.4-0.2-1-0.2-1.4-0.2c-0.1,0-0.1,0-0.1,0.1
		c-0.1,0.8-0.3,1.6-0.3,2.4c0,0,0,0,0,0c-0.1,0.1-0.1,0.2,0,0.3c0.5,0.1,1,0.2,1.5,0.3c0.1,0,0.1,0,0.1-0.1
		C935.3,234.6,935.4,233.7,935.4,232.8C935.4,232.8,935.4,232.8,935.4,232.8z M935,235.3c-0.4-0.1-0.7-0.2-1.1-0.2
		c0.1-0.6,0.3-1.2,0.2-1.8c0-0.2-0.1-0.2,0.1-0.2c0.1,0,0.2,0,0.3,0c0.2,0,0.5,0,0.7-0.1c0,0,0,0,0,0
		C935.1,233.8,935.1,234.6,935,235.3z"/>
	<path id="XMLID_96_" class="st1" d="M935.9,244.4c0.7,3.1,4.1,4.8,6.1,2.5c1-1.1,1.3-2.8,1.2-4.4c-0.1-1.2,0-1.9-1.5-3.5
		c-0.4-0.4-0.9-0.6-1.4-0.7C937.6,238,935.2,241.1,935.9,244.4z M940.5,239.1c2.2,0.6,2.5,3.9,1.9,6.2c-0.4,1-1,1.7-1.9,1.9
		c-2,0.4-4-1.1-4.1-3.7C936.1,240.7,938.4,238.5,940.5,239.1z"/>
	<path id="XMLID_93_" class="st1" d="M945.2,247.8c0.2,1,1.3,1.5,2,0.8c0.3-0.4,0.4-0.9,0.4-1.4c0-0.4,0-0.6-0.5-1.1
		c-0.1-0.1-0.3-0.2-0.5-0.2C945.8,245.8,945,246.8,945.2,247.8z M946.7,246.1c0.7,0.2,0.8,1.2,0.6,2c-0.1,0.3-0.3,0.6-0.6,0.6
		c-0.6,0.1-1.3-0.4-1.3-1.2C945.3,246.7,946,246,946.7,246.1z"/>
	<path id="XMLID_90_" class="st1" d="M945.9,247.4c0,0.2,0,0.4,0.1,0.6c0.2,0.4,0.7,0.3,0.9-0.1c0.1-0.2,0.1-0.6,0.1-0.9
		c0-0.2-0.2-0.4-0.3-0.4c-0.3-0.2-0.7,0.1-0.7,0.5c0,0,0,0.1,0,0.1C945.9,247.3,945.9,247.3,945.9,247.4
		C945.9,247.4,945.9,247.4,945.9,247.4z M946.2,247.7c0-0.2,0-0.4,0-0.6c0,0,0,0,0-0.1c0,0,0,0,0.1,0c0.1,0,0.2,0,0.3,0
		c0.1,0.1,0.1,0.1,0.1,0.2c0,0.1,0,0.2,0,0.3C946.6,247.7,946.3,247.8,946.2,247.7z"/>
	<path id="XMLID_89_" class="st1" d="M940,237c0.1,0,0.3,0.2,0.2,0.4c0,0.2-0.2,0.3-0.3,0.3c-0.1,0-0.3-0.2-0.2-0.4
		C939.7,237.1,939.8,236.9,940,237z"/>
	<path id="XMLID_88_" class="st1" d="M938,237.2c0.4,0.1,0.4,0.9-0.1,0.9C937.4,237.9,937.5,237.1,938,237.2z"/>
	<path id="XMLID_87_" class="st1" d="M936.3,238.5c0.2,0,0.4,0.3,0.4,0.6c0,0.3-0.2,0.5-0.5,0.5c-0.2,0-0.4-0.3-0.4-0.6
		C935.8,238.7,936,238.5,936.3,238.5z"/>
	<path id="XMLID_86_" class="st1" d="M935.3,240.7c0.3,0,0.2,0.6-0.1,0.6C935,241.2,935,240.6,935.3,240.7z"/>
	<path id="XMLID_85_" class="st1" d="M935,242.9c0.4,0.1,0.3,0.8-0.1,0.7C934.6,243.5,934.7,242.8,935,242.9z"/>
	<path id="XMLID_84_" class="st1" d="M935.1,245.5c0-0.1,0.2-0.2,0.3-0.2c0.1,0.1,0.2,0.2,0.1,0.4c0,0.1-0.2,0.2-0.3,0.2
		C935.1,245.8,935,245.6,935.1,245.5z"/>
	<path id="XMLID_83_" class="st1" d="M936.1,246.8c0.4,0.1,0.3,0.9-0.1,0.8C935.6,247.6,935.6,246.8,936.1,246.8z"/>
	<path id="XMLID_82_" class="st1" d="M937.6,248.5c0.1,0,0.3,0.2,0.2,0.4c0,0.2-0.2,0.3-0.3,0.3c-0.1,0-0.3-0.2-0.2-0.4
		C937.3,248.6,937.4,248.5,937.6,248.5z"/>
	<path id="XMLID_81_" class="st1" d="M939.6,249.1c0.3,0,0.2,0.6,0,0.5C939.3,249.6,939.3,249,939.6,249.1z"/>
	<path id="XMLID_80_" class="st1" d="M941.4,248.4c0.3,0,0.2,0.6-0.1,0.6C941.1,248.9,941.1,248.3,941.4,248.4z"/>
	<path id="XMLID_79_" class="st1" d="M942.8,247.2c0.3,0,0.2,0.6-0.1,0.6C942.4,247.7,942.5,247.1,942.8,247.2z"/>
	<path id="XMLID_78_" class="st1" d="M943.6,245.4c0.3,0,0.2,0.6,0,0.5C943.2,245.9,943.3,245.4,943.6,245.4z"/>
	<path id="XMLID_77_" class="st1" d="M944,243.3c0.3,0,0.3,0.7-0.1,0.6C943.6,243.9,943.7,243.2,944,243.3z"/>
	<path id="XMLID_76_" class="st1" d="M943.7,240.6c0.3,0,0.2,0.6-0.1,0.6C943.4,241.2,943.4,240.6,943.7,240.6z"/>
	<path id="XMLID_75_" class="st1" d="M942.3,238.3c0.3,0,0.3,0.7-0.1,0.7C941.9,238.9,942,238.3,942.3,238.3z"/>
</g>
<g id="XMLID_15505_">
	<path id="XMLID_31255_" class="st1" d="M876.9,223.8c-1.3,0.7-2.6,1.3-4,1.6c-1.2,0.3-2.4,0.2-3.6,0.4c-0.4,0-0.5,0.6-0.1,0.7
		c1.4,0.3,2.9,0.2,4.3-0.1c0.3,1.4,0.9,2.8,1.3,4.2c0.4,1.4,0.6,2.8,1.1,4.2c0.2,0.4,1,0.3,1-0.2c0-2.7-1.1-6-2.5-8.5
		c1.2-0.4,2.3-0.9,3.2-1.6C878.2,224.1,877.5,223.5,876.9,223.8z"/>
	<path id="XMLID_31252_" class="st1" d="M879.9,230.9c1-0.4,2.4-1.3,2.2-2.2c-0.4-1.4-2.9-0.7-3.8-0.4c-0.3,0.1-0.2,0.5,0.1,0.6
		c0.1,0.8,0.3,1.5,0.5,2.3c0.2,1.1,0.3,2.2,0.5,3.2c0,0.3,0.6,0.2,0.6-0.1c0-1-0.2-1.9-0.4-2.9c1,0.9,2,1.8,2.9,2.8
		c0.3,0.3,0.8-0.1,0.5-0.4C881.9,232.8,880.9,231.8,879.9,230.9z M881.1,229.4c-0.2,0.6-1.2,0.9-1.9,1.1c-0.1-0.6-0.3-1.2-0.5-1.7
		C879.5,228.5,881.7,227.9,881.1,229.4z"/>
	<path id="XMLID_31249_" class="st1" d="M888.1,232.9c-1.1-1.8-2.2-3.6-3.4-5.5c-0.1-0.1-0.1-0.1-0.2-0.2c-0.2-0.2-0.7-0.1-0.6,0.2
		c0.1,1.2,0.2,2.4,0.2,3.6c-0.2,0.1-0.2,0.4,0,0.5c0,0.6,0,1.2,0,1.8c0,0.4,0.7,0.5,0.7,0.1c0-0.6,0-1.2,0-1.9
		c0.5-0.1,1-0.2,1.6-0.3c0.4,0.6,0.8,1.2,1.1,1.8C887.7,233.5,888.3,233.2,888.1,232.9z M884.8,230.9c0-0.8-0.1-1.6-0.1-2.4
		c0.4,0.7,0.9,1.5,1.3,2.2C885.6,230.8,885.2,230.9,884.8,230.9z"/>
	<path id="XMLID_31248_" class="st1" d="M890.9,225.5C890.9,225.5,890.9,225.5,890.9,225.5c-0.2-0.2-0.5-0.2-0.6,0
		c-0.5,0.7-0.4,2.1-0.5,2.8c-0.1,0.7-0.1,1.5,0,2.2c-0.9-1.3-1.9-2.6-3-3.8c-0.3-0.3-0.8,0.1-0.5,0.4c1.3,1.6,2.5,3.2,3.7,4.8
		c0.2,0.3,0.7,0.2,0.6-0.2c-0.2-1.1-0.2-2.1-0.1-3.2c0-0.6,0-2,0.3-2.6c0,0,0,0,0,0l0,0C891,225.8,891,225.6,890.9,225.5z"/>
	<path id="XMLID_31245_" class="st1" d="M896,229.8c-0.6,1.1-1.8,2.1-3.2,1c-0.4-0.4-0.6-0.8-0.7-1.3c0,0,0.1,0,0.2,0
		c1.6-0.1,4-1.4,3.6-3.1c-0.2-0.7-0.8-1.1-1.6-1c-0.9,0.1-1.6,0.8-2.1,1.4c-1,1.4-1.2,3.5,0.4,4.6c1.7,1.3,3.2,0.1,4.1-1.4
		C896.9,229.7,896.2,229.5,896,229.8z M893,226.8c0.2-0.2,0.3-0.4,0.5-0.5c1.4,0.2,1.9,0.6,1.4,1.1c-0.4,0.9-1.8,1.4-2.8,1.4
		c0,0,0,0-0.1,0c0-0.3,0.1-0.6,0.2-0.9C892.5,227.6,892.7,227.2,893,226.8z"/>
	<path id="XMLID_31244_" class="st1" d="M896.3,222.2c-0.1-0.4-0.8-0.1-0.6,0.3c1,2.7,1.9,5.4,2.6,8.1c0.1,0.4,0.8,0.3,0.7-0.1
		C898.2,227.7,897.3,225,896.3,222.2z"/>
	<path id="XMLID_31241_" class="st1" d="M901.2,216.3c-0.1-0.3-0.4-0.3-0.5-0.2c-5.9,0.9-11.8,1.8-17.7,2.7
		c-2.8,0.4-5.6,0.8-8.4,1.4c-2.9,0.7-5.8,1.6-8.8,2.1c-0.4,0.1-0.3,0.6,0,0.6c2.2,5.7,3.7,11.7,4.5,17.7c0,0.2,0.3,0.3,0.5,0.2
		c5.4-1.7,11.2-1.8,16.7-2.9c5.2-1,10.2-2.6,15.5-3.4c0.1,0,0.1,0,0.2,0c0.4,0,0.9-0.1,1.3-0.3c0.2-0.1,0.3-0.2,0.3-0.4
		C903.7,228.2,902.5,222.2,901.2,216.3z M903.3,230.1c0.1,0.8,0.3,1.6,0.4,2.4c0.1,0.7,0.4,1.3-0.2,1.6c-5.7,0.8-11.2,2.6-16.8,3.6
		c-5.3,1-10.7,1.1-15.8,2.7c-0.8-5.9-2.3-11.7-4.5-17.3c2.7-0.5,5.2-1.3,7.8-1.9c2.9-0.7,5.8-1.1,8.7-1.5c5.9-0.9,11.7-1.8,17.6-2.7
		c0.7,2.9,1.3,5.9,1.9,8.8C902.8,227.1,903.1,228.6,903.3,230.1z"/>
	<path id="XMLID_31238_" class="st1" d="M907.1,230.5c0-0.4-0.5-0.7-0.9-0.9c0.3-0.2,0.5-0.5,0.5-0.9c-0.1-0.4-0.5-0.7-0.9-0.8
		c0.5-0.2,0.8-0.5,0.7-1c-0.2-0.5-0.7-0.8-1.3-0.8c0.4-0.2,0.6-0.7,0.5-1.1c0-0.2-0.2-0.5-0.4-0.6c-0.1,0-0.2,0-0.3,0
		c0.3-0.2,0.4-0.6,0.4-0.9c-0.1-0.4-0.4-0.7-0.9-0.9c0.4-0.2,0.8-0.6,0.6-1.1c-0.1-0.3-0.4-0.5-0.7-0.6c-0.1-0.1-0.2-0.1-0.3-0.1
		c0.3-0.2,0.5-0.4,0.5-0.8c0-0.5-0.3-0.7-0.6-0.8c0.2-0.2,0.4-0.5,0.3-0.8c-0.1-0.4-0.5-0.7-0.9-0.7c0.3-0.2,0.5-0.6,0.4-1
		c-0.1-0.4-0.6-0.7-1-0.7c0.5-0.7,0.3-1.8-0.5-2.2c-0.5-0.2-1.1-0.1-1.5,0.2c-0.3,0.2-0.5,0.4-0.6,0.7c-0.2-0.5-0.6-0.9-1.1-0.8
		c-0.3,0.1-0.5,0.4-0.7,0.6c-0.1,0.2-0.2,0.4-0.1,0.7c-0.2-0.3-0.4-0.5-0.7-0.8c-0.3-0.3-0.6-0.3-1-0.1c-0.5,0.3-0.8,0.7-0.8,1.2
		c-0.1-0.1-0.2-0.3-0.3-0.4c-0.2-0.2-0.5-0.4-0.9-0.3c-0.3,0.1-0.5,0.4-0.5,0.7c0,0.1-0.1,0.3-0.1,0.4c-0.3-0.5-0.7-0.9-1.3-0.8
		c-0.5,0.1-0.8,0.6-0.9,1.1c-0.3-0.4-0.7-0.8-1.2-0.7c-0.6,0.1-0.8,0.6-0.9,1c-0.3-0.4-0.6-0.8-1.2-0.7c-0.6,0.1-1,0.5-1.1,1
		c-0.3-0.4-0.9-0.9-1.4-0.8c-0.5,0.1-0.8,0.5-0.9,1c-0.2-0.4-0.6-0.6-1.1-0.5c-0.5,0.1-0.7,0.4-0.8,0.8c-0.3-0.4-0.8-0.8-1.3-0.6
		c-0.6,0.1-0.9,0.6-1,1.1c-0.3-0.3-0.7-0.6-1.2-0.5c-0.5,0.1-0.8,0.5-0.9,0.9c-0.3-0.4-0.7-1-1.3-0.8c-0.5,0.1-0.8,0.6-0.9,1
		c-0.3-0.5-0.8-0.9-1.5-0.7c-0.5,0.2-0.8,0.7-0.9,1.2c-0.3-0.4-0.7-0.7-1.2-0.7c-0.4,0.1-0.6,0.5-0.7,1c-0.3-0.4-0.7-0.8-1.2-0.7
		c-0.5,0.2-0.8,0.7-0.9,1.2c-0.3-0.5-0.8-0.9-1.3-0.8c-0.5,0.2-0.9,0.5-1,1c-0.3-0.4-0.7-0.7-1.3-0.4c-0.5,0.2-0.7,0.7-0.7,1.2
		c-0.5-0.4-1.2-1.1-1.8-0.5c-0.5,0.5-0.9,1.4-0.5,2c-0.7,0.1-1.4,0.7-1.3,1.4c0,0.3,0.3,0.7,0.6,0.9c0.2,0.1,0.5,0.2,0.8,0.2
		c-0.3,0.3-0.5,0.7-0.4,1.1c0.2,0.5,0.5,0.7,1,0.7c-0.2,0.3-0.3,0.7-0.1,1c0.2,0.2,0.4,0.4,0.7,0.5c-0.4,0.3-0.7,0.7-0.6,1.2
		c0.1,0.5,0.6,0.7,1.1,0.8c-0.3,0.2-0.6,0.6-0.5,1c0.1,0.5,0.4,0.7,0.9,0.7c-0.5,0.3-0.9,0.7-0.8,1.3c0.1,0.5,0.6,0.7,1.1,0.7
		c-0.2,0.3-0.3,0.7-0.2,0.9c0.1,0.3,0.3,0.4,0.6,0.5c-0.4,0.2-0.7,0.5-0.5,1c0.1,0.4,0.5,0.7,1,0.7c-0.3,0.3-0.4,0.7-0.2,1.1
		c0.1,0.3,0.4,0.6,0.7,0.7c-0.4,0.3-0.8,0.7-0.6,1.2c0.2,0.5,0.6,0.6,1.1,0.6c-0.7,1,0.1,2.9,1.4,2.3c0,0.3,0.3,0.5,0.7,0.5
		c0.6,0,1.2-0.4,1.5-0.9c0.1,0.2,0.1,0.4,0.3,0.5c0.3,0.2,0.7,0.4,1.1,0.4c0.6,0,1-0.5,1.1-1c0.3,0.4,0.8,0.7,1.4,0.5
		c0.5-0.1,0.9-0.5,1.1-1c0.3,0.4,0.7,0.8,1.3,0.6c0.6-0.2,0.9-0.6,0.9-1.2c0.3,0.4,0.8,0.7,1.4,0.5c0.5-0.1,0.7-0.4,0.8-0.8
		c0.3,0.4,0.8,0.7,1.4,0.5c0.5-0.1,0.8-0.5,0.9-0.9c0.2,0.3,0.5,0.5,0.9,0.5c0.2,0,0.4-0.2,0.5-0.4c0.1-0.2,0.2-0.5,0.3-0.7
		c0.4,0.5,0.8,0.9,1.6,0.6c0.5-0.2,0.8-0.6,0.9-1c0.3,0.4,0.6,0.6,1.1,0.5c0.5-0.1,0.9-0.6,1-1c0.4,0.5,0.9,0.9,1.6,0.6
		c0.5-0.2,0.7-0.6,0.8-1c0.2,0.4,0.6,0.7,1.1,0.6c0.6-0.1,0.8-0.7,0.9-1.2c0.2,0.4,0.5,0.7,1,0.6c0.5-0.1,0.7-0.4,0.8-0.8
		c0.2,0.3,0.6,0.6,1.1,0.6c0.7,0,0.8-0.6,0.8-1.1c0.3,0.4,0.7,0.8,1.3,0.7c0.6-0.1,0.7-0.6,0.8-1.1c0.1,0.2,0.2,0.4,0.3,0.5
		c0.2,0.2,0.5,0.2,0.8,0.2c0.6-0.1,0.8-0.6,0.9-1.1c0.3,0.4,0.8,0.9,1.3,0.7c0.4-0.1,0.7-0.5,0.7-0.8c0.3,0.3,0.7,0.4,1.2,0.3
		c0.5-0.1,0.7-0.6,0.7-1c0.7,0.3,1.7,0.2,1.9-0.6c0.1-0.7-0.1-1.5-0.8-1.8c0.5-0.2,1-0.5,0.8-1c-0.1-0.4-0.4-0.7-0.8-0.9
		C906.9,231.2,907.1,230.9,907.1,230.5z M905.7,231.3c-0.2,0-0.2,0.2-0.1,0.3c0,0.1,0.1,0.2,0.2,0.1c0.4-0.2,1,0.2,1,0.6
		c0.1,0.5-0.5,0.7-1,0.8c-0.1,0-0.2,0.1-0.1,0.2c0,0.1,0,0.2,0.1,0.2c0.8,0.1,0.9,0.7,1,1.3c0,0.4-0.1,0.6-0.5,0.8
		c-0.3,0.1-0.7,0-1-0.1c0,0-0.1,0-0.1,0c-0.1,0-0.2,0-0.2,0.1c0,0.3-0.1,0.7-0.4,0.9c-0.4,0.3-1,0-1.2-0.4c0,0,0,0-0.1-0.1
		c0,0,0,0,0,0c-0.1-0.2-0.4-0.1-0.3,0.1c0.1,0.3-0.2,1-0.7,1c-0.4,0-0.7-0.5-0.9-0.8c0-0.1-0.1-0.1-0.2-0.1c-0.1,0-0.2,0-0.3,0.1
		c0,0.3-0.1,0.6-0.3,0.8c-0.2,0.3-0.7,0.5-1,0.2c-0.2-0.2-0.2-0.7-0.7-0.8c-0.2,0-0.2,0.2-0.1,0.3c0,0.4,0,0.8-0.4,1
		c-0.5,0.3-1-0.4-1.2-0.7c0-0.1-0.1-0.1-0.2-0.1c-0.1,0-0.2,0-0.2,0.1c0,0.4,0.1,1.2-0.6,1.1c-0.5,0-0.8-0.4-0.9-0.8
		c0-0.1-0.1-0.1-0.1-0.1c-0.1-0.1-0.3,0-0.3,0.1c0,0.4,0,0.9-0.5,1.1c-0.5,0.2-0.7-0.5-0.9-0.8c0-0.1-0.1-0.1-0.2-0.1
		c-0.1,0-0.2,0-0.2,0.1c0,0.4-0.1,1-0.4,1.2c-0.6,0.4-1.1-0.4-1.2-0.8c0-0.1-0.1-0.1-0.2-0.1c-0.1-0.1-0.3,0-0.3,0.2
		c0.2,0.5,0,1.1-0.6,1.3c-0.7,0.3-1.1-0.4-1.4-0.8c-0.1-0.1-0.3-0.1-0.3,0c0,0-0.1,0.1,0,0.1c0.1,0.4-0.4,1-0.8,1.1
		c-0.6,0.1-0.8-0.5-1-0.9c0-0.1-0.1-0.1-0.2-0.1c-0.1,0-0.2,0-0.2,0.2c0.2,0.5,0,1.1-0.5,1.3c-0.7,0.3-1.1-0.2-1.4-0.7
		c-0.1-0.1-0.2-0.1-0.3,0c0,0-0.1,0.1-0.1,0.1c0,0.3-0.2,1-0.5,1c-0.4,0.1-0.8-0.4-0.9-0.7c0,0-0.1-0.1-0.1-0.1
		c-0.1-0.1-0.3-0.1-0.3,0.1c0,0.1,0,0.2,0,0.4c0,0.5-0.3,0.7-0.8,0.7c-0.3,0.2-0.6,0.1-0.8-0.2c-0.2-0.1-0.3-0.3-0.4-0.5
		c-0.1-0.1-0.3-0.1-0.3,0.1c0.1,0.6-0.4,1-1,0.9c-0.4-0.1-0.6-0.3-0.8-0.6c0-0.1-0.1-0.1-0.1-0.1c-0.1,0-0.2,0-0.2,0.1
		c0,0.5-0.1,1.1-0.7,1.2c-0.6,0.2-1-0.4-1.2-0.9c-0.1-0.2-0.3-0.1-0.3,0.1c0,0,0,0,0,0c0,0.4-0.3,1-0.8,1.1
		c-0.6,0.2-1.1-0.1-1.2-0.6c0,0,0-0.1-0.1-0.1c0-0.2-0.3-0.2-0.3,0c0,0.5-0.3,1.3-1.1,1.2c-0.2,0-0.6-0.2-0.8-0.3
		c-0.2-0.2-0.2-0.5-0.2-0.8c0,0,0-0.1,0-0.1c0,0,0,0,0-0.1c0-0.2-0.4-0.1-0.3,0.1c0,0,0,0,0,0.1c-0.1,0.2-0.2,0.5-0.3,0.7
		c-0.1,0.1-0.2,0.2-0.3,0.3c-0.5,0.4-0.8,0.3-1.1-0.3c0.1-0.1-0.1-0.3-0.3-0.2c-0.3,0.2-1,0.1-1.2-0.1c-0.2-0.1-0.2-0.6-0.2-0.8
		c0-0.4,0.1-0.8,0.5-1.1c0.1-0.1,0-0.3-0.1-0.3c-0.4,0.1-1.4,0.3-1.2-0.7c0.1-0.3,0.7-0.6,1-0.8c0,0,0.1,0,0.1-0.1c0,0,0,0,0,0
		c0.1-0.1-0.1-0.4-0.2-0.2c-0.4,0.4-0.9,0-1-0.4c-0.1-0.4,0.1-1,0.7-1c0.1,0,0.1,0,0.1-0.1c0,0,0.1,0,0.1,0c0.2-0.1,0.1-0.3-0.1-0.3
		c-0.5,0.2-1.4,0.2-1.5-0.5c-0.1-0.6,0.8-0.8,1.3-0.9c0,0,0.1,0,0.1-0.1c0,0,0.1,0,0.1,0c0.2-0.1,0.1-0.3-0.1-0.3
		c-0.4,0.2-1.1,0.3-1.3-0.1c-0.2-0.3,0-1.1,0.5-1.1c0.1,0,0.2,0,0.2-0.1c0.1-0.1,0-0.3-0.2-0.2c-0.6,0.2-1.6,0.3-1.5-0.5
		c0.1-0.6,0.7-0.9,1.2-1.1c0,0,0,0,0.1,0c0,0,0,0,0,0c0.2-0.1,0.1-0.3-0.1-0.3c-0.5,0.2-1.2,0.1-1.3-0.4c-0.1-0.5,0.4-0.9,0.9-0.9
		c0.1,0,0.2-0.1,0.2-0.1c0.2-0.1,0-0.3-0.2-0.3c-0.6,0.2-1.4,0.1-1.6-0.5c-0.2-0.6,0.4-1,1-1.1c0.1,0,0.1-0.1,0.1-0.2
		c0,0,0.1-0.1,0.1-0.1c0.1-0.1-0.1-0.3-0.3-0.2c-0.3,0.3-0.9,0.1-1.1-0.2c-0.2-0.4,0-0.8,0.5-0.8c0.1,0,0.1-0.1,0.1-0.1
		c0.1-0.1,0-0.3-0.2-0.2c-0.6,0.2-1.3,0.1-1.4-0.5c-0.1-0.5,0.4-0.9,0.9-1c0.1,0,0.1-0.1,0.1-0.2c0-0.1-0.1-0.2-0.2-0.1
		c-0.7,0.2-1.6,0.3-1.8-0.5c-0.2-0.7,0.5-1.2,1.2-1.2c0.2,0,0.2-0.2,0.1-0.3c-0.4-0.5-0.2-1.2,0.2-1.7c0.1-0.1,0.4-0.3,0.6-0.2
		c0.1,0,0.2,0.1,0.3,0.2c0.3,0.2,0.5,0.4,0.8,0.6c0,0,0.1,0,0.1,0c0,0,0,0.1,0,0.1c0.1,0.2,0.4,0,0.3-0.1c-0.2-0.4,0-1.1,0.4-1.3
		c0.7-0.3,1,0.4,1.2,0.8c0,0,0,0,0,0c0,0,0,0,0,0c0.1,0.2,0.4,0.1,0.3-0.1c-0.1-0.4,0-1.3,0.7-1.4c0.6-0.1,1,0.5,1.3,0.9
		c0,0,0,0.1,0,0.1c0,0.1,0.2,0.1,0.3,0.1c0.1,0,0.2-0.1,0.1-0.2c0,0,0-0.1-0.1-0.1c0-0.4,0.2-0.8,0.5-1.1c0.6-0.6,1.2,0.4,1.3,0.8
		c0,0,0,0.1,0.1,0.1c0,0,0.1,0,0.1,0c0.1,0,0.1,0,0.1-0.1c0,0,0-0.1,0-0.1c0-0.3,0.1-1.4,0.6-1.3c0.4,0.1,0.7,0.6,0.9,0.9
		c0,0,0,0,0,0c0,0.1,0.1,0.1,0.2,0.1c0.1,0,0.2-0.1,0.2-0.2c0,0,0,0,0,0c0-0.4,0.1-1,0.5-1.3c0.7-0.4,1.2,0.3,1.4,0.8c0,0,0,0,0,0.1
		c0.1,0.1,0.3,0.1,0.3,0c0-0.4,0.2-1,0.7-1.2c0.5-0.1,0.9,0.5,1.1,0.9c0,0,0,0,0.1,0.1l0,0c0,0.2,0.3,0.2,0.3,0
		c0.1-0.4,0.2-0.9,0.7-1c0.5-0.1,0.9,0.3,1.1,0.7c0,0,0,0,0,0c0,0,0,0,0,0c0,0.2,0.4,0.1,0.3-0.1c-0.1-0.5,0-1,0.5-1.3
		c0.6-0.3,1.3,0.3,1.4,0.8c0,0.1,0.1,0.1,0.2,0.1c0.1,0.1,0.3,0,0.2-0.1c-0.2-0.5,0.1-1.1,0.7-1.1c0.5,0,0.8,0.5,0.9,0.9
		c0,0,0,0,0,0c0,0,0,0,0,0c0,0,0.1,0.1,0.1,0.1c0.1,0,0.2-0.1,0.1-0.2c-0.1-0.4,0.1-1,0.6-1.2c0.6-0.2,1.1,0.5,1.3,0.9
		c0,0.1,0.1,0.1,0.2,0.1c0.1,0.1,0.3,0,0.3-0.1c-0.1-0.6,0.4-1.1,1.1-1.1c0.5,0,0.7,0.6,0.9,0.9c0,0,0,0,0.1,0.1
		c0.1,0.1,0.3,0.1,0.3,0c0-0.4,0-1.1,0.6-1.2c0.6-0.1,0.9,0.5,1.1,0.9c0,0,0,0,0,0.1c0,0,0,0,0,0c0,0.2,0.3,0.1,0.3-0.1
		c-0.1-0.4,0.2-1.6,1-1.3c0.4,0.1,0.8,0.9,1,1.2c0.1,0.1,0.3,0.1,0.3,0c0,0,0-0.1,0-0.1c-0.1-0.4-0.1-1,0.2-1.3
		c0.4-0.3,1.1,0.7,1.2,1c0,0.1,0.2,0.1,0.3,0.1c0.1,0,0.2-0.1,0.1-0.2c-0.2-0.5,0-1.2,0.6-1.4c0.6-0.3,1.2,0.8,1.4,1.2
		c0.1,0.1,0.2,0.1,0.3,0c0.1,0,0.2-0.1,0.2-0.2c-0.1-0.2-0.1-0.5,0-0.7c0.1-0.2,0.2-0.6,0.5-0.7c0.5-0.2,0.8,0.7,0.9,1.1
		c0,0,0,0,0,0c0,0.1,0,0.1,0.1,0.1c0.1,0.1,0.3,0.1,0.3-0.1c0,0,0,0,0-0.1c0.1-0.3,0.1-0.6,0.4-0.9c0.3-0.3,1-0.5,1.4-0.3
		c0.8,0.4,0.7,1.6,0,2c-0.2,0.1,0,0.3,0.2,0.2c0,0,0,0,0,0c0,0,0,0,0,0c0.5-0.2,1,0.1,1,0.5c0.1,0.4-0.3,0.8-0.7,0.9
		c-0.1,0-0.2,0.2-0.1,0.2c0,0.1,0.1,0.2,0.2,0.1c0.4-0.2,1,0,1.1,0.4c0.1,0.5-0.3,0.8-0.8,0.7c-0.1,0-0.2,0.1-0.1,0.2
		c0,0.1,0.1,0.2,0.2,0.2c0.4-0.1,1.1-0.1,1.1,0.4c0,0.2-0.1,0.4-0.3,0.6c-0.1,0.1-0.2,0.1-0.3,0.1c-0.1,0-0.1,0-0.2,0.1c0,0,0,0,0,0
		c0,0,0,0,0,0c-0.1,0-0.2,0-0.2,0.1c0,0,0,0,0,0c0,0.1,0,0.1,0.1,0.2c0,0,0,0,0,0c0,0.1,0.1,0.1,0.2,0.1c0.5-0.1,0.9-0.1,1.3,0.3
		c0.4,0.6-0.3,0.9-0.8,1.1c-0.1,0-0.1,0.1-0.1,0.1c0,0.1,0.1,0.2,0.2,0.2c0.5-0.1,1,0.2,1.1,0.7c0.1,0.4-0.3,0.8-0.8,0.9
		c-0.2,0-0.2,0.2-0.1,0.3c0,0.1,0.1,0.1,0.1,0.1c0.4,0,1-0.3,1.1,0.2c0.1,0.5-0.2,1-0.8,1.1c-0.2,0-0.2,0.2-0.1,0.3
		c0,0.1,0.1,0.2,0.2,0.2c0.5-0.1,1.1,0,1.4,0.5c0.3,0.6-0.4,0.9-1,0.9c-0.2,0-0.2,0.3,0,0.3c0,0.1,0.1,0.1,0.2,0.1
		c0.5-0.1,1,0.1,1,0.6c0.1,0.4-0.3,0.6-0.7,0.7c0,0-0.1,0-0.1,0c0,0-0.1,0-0.1,0c-0.2,0-0.1,0.3,0.1,0.3c0,0,0.1,0,0.1,0
		c0.4,0,1.1,0.2,1.2,0.6C906.9,231,906.2,231.3,905.7,231.3z"/>
</g>
<g id="XMLID_15254_">
	<path id="XMLID_15255_" class="st2" d="M211,205.6c0.8,1.3,1.1,2.8,1.2,3.9c0.3,2.8,0.4,5.6,0.3,8.4c0,0-0.1,0-0.1,0
		c-2.3,0.9-4.8,1.6-7.4,2c-1.2,0.2-2.9,0.4-4.6,0.5c0,0,0.1-0.1,0.1-0.2c0.2-3.1,0.3-6.2,0.5-9.2c0.2-2.9,0.3-6,3.8-8
		C207.6,203,209.7,204.1,211,205.6z M197.6,210.6c0.6-2.6,1.9-4.8,4.5-6.5c-1.4,1.5-1.9,3.3-2.1,5.1c-0.4,3.7-0.4,7.4-0.6,11.1
		c0,0.1,0,0.1,0.1,0.2c-1.1,0-2.1-0.1-3-0.4C196.5,217,196.8,213.8,197.6,210.6z M194.7,213.5c0.4,0.1,0.7,0.2,1,0.3
		c0.1,0,0.1,0,0.2,0.1c-0.2,1.2-0.3,2.5-0.4,3.7c0,0-0.1,0-0.1,0c-1.8,0.4-3.5,0.8-5.3,1.1c-0.8-0.5-1.8-1.2-2.5-1.9c0,0,0,0,0,0
		c0.8-0.8,1.9-1.5,3.2-2C191.9,214.3,193.3,213.6,194.7,213.5z M187.8,213.9c1-0.6,3.1-0.8,5-0.7c-0.9,0.3-1.7,0.7-2.5,1
		c-1.2,0.5-2.3,1.2-3.2,1.9C186.7,215.4,186.7,214.5,187.8,213.9z M124.8,213.7c0.8-2.3,2.1-4,5.3-5.3c1.2-0.5,2.4-0.8,3.5-0.8
		c5.4,0.9,7.9,3.4,9.2,6.5c-6-1.1-12.3-1-18.2,0.3C124.6,214.2,124.7,214,124.8,213.7z M124.3,215.1c0,0,0.1,0,0.1,0
		c6-1.4,12.4-1.5,18.6-0.3c0.3,0.8,0.5,1.6,0.6,2.4c-2.3-0.9-6.1-0.9-8.5-1c-3.9-0.1-7.8,0.2-11.6,0.8
		C123.9,216.4,124.1,215.8,124.3,215.1z M122.6,219.8c0.3-0.7,0.5-1.3,0.7-2c3.2-0.6,6.5-0.9,9.8-0.9c1.7,0,3.5,0.1,5.2,0.2
		c1.6,0.1,4.1,0.2,5.4,1c0.3,2.1,0.5,4.2,0.8,6.1c-8.3-1-16.7-0.5-24.5,1.4C121,223.6,121.9,221.7,122.6,219.8z M119.8,226.3
		c0,0,0.1,0,0.1,0c7.9-2,16.4-2.5,24.9-1.5c0.1,0.5,0.2,0.9,0.4,1.4c-8.8-0.2-17.6,0.4-26,2c-0.1,0-0.2-0.1-0.3-0.1
		C119.2,227.5,119.5,226.9,119.8,226.3z M118.4,230.1c0-0.4,0-1,0.5-1.3c0.1,0,0.2,0,0.3,0c8.5-1.6,17.3-2.3,26.2-2
		c0.1,0.2,0.1,0.4,0.2,0.5c-9.1,1.4-18.4,2.4-27.5,3.8C118.3,230.8,118.4,230.5,118.4,230.1z M80.6,249.3c0.5-1.1,1-2.2,1.6-3.2
		c0.2,0.1,0.4,0.2,0.6,0.3c0,0,0,0,0,0.1c-0.7,1.8-1.2,3.5-1.5,5.4c-0.5-0.1-1.1-0.1-1.6-0.2C80,250.9,80.3,250.1,80.6,249.3z
		 M83.7,246.9c1.9,0.8,4.1,1.3,6.4,1.4c1.6,0.1,3.1,0,4.6-0.2c0.7-0.1,1.4-0.2,2.1-0.4c0.2,0,0.4,0,0.5,0c1.8-0.3,2.6,0.4,2.4,2
		c-0.3,0.2-0.7,0.4-1,0.6c-1.7,0.9-3.8,1.6-5.9,2c-3.5,0.6-7,0.2-10.5-0.2C82.6,250.3,83.1,248.6,83.7,246.9z M96.4,262.3
		c-2.2,0-4.4-0.1-6.6-0.3c4.5,0.3,9.1-0.3,13.4-1c6.2-1,12.1-2.5,17.8-4.3c0.2,0.2,0.4,0.4,0.7,0.6
		C114.2,260.1,105.4,262.1,96.4,262.3z M155,276.8c-0.6,1.1-1.6,2-3,2.6c-3,0.9-6.9,0.4-9.8-1.3c-3.5-2-5.6-5-7.5-7.7
		c6.5-1.4,13-2.8,19.9-3c0.6,1.2,1.1,2.4,1.4,3.6C156.3,273,156,275,155,276.8z M153.9,265.8c0.2,0.3,0.3,0.6,0.5,1
		c-7,0.2-13.5,1.6-20,3c-0.2-0.3-0.4-0.5-0.5-0.8c-0.1-0.2-0.3-0.4-0.4-0.6c6.5-1.7,13.2-3.2,20.4-3
		C153.8,265.5,153.8,265.7,153.9,265.8z M151.3,257.8c0.4,2.4,1.2,4.7,2.2,7c-7.2-0.1-14,1.3-20.5,3.1c-1.7-2.4-3.4-4.8-5.5-7.1
		c0,0,0.1,0,0.1,0c7-3,15-4.7,23.5-5.1C151.1,256.4,151.1,257.1,151.3,257.8z M151,255c-8.7,0.4-16.9,2.1-24.1,5.2c0,0,0,0,0,0
		c-0.7-0.7-1.4-1.3-2.1-2c7.6-3.4,16.7-5.8,26.2-5.3C151,253.6,151,254.3,151,255z M151,249.1c0.1,1.1,0,2.1,0,3.2
		c-9.8-0.5-19.1,1.9-26.8,5.4c-1.9-1.7-3.9-3.3-5.1-5.2c-1.1-1.8-1.4-3.6,0.4-5c0.4-0.2,0.8-0.4,1.3-0.6c0.2-0.1,4.8-1.6,7-2.1
		c4.9-1.1,15.4-2.5,15.4-2.5C148.7,242.3,150.8,246.2,151,249.1z M151.6,245.8c-0.2-0.4-0.5-0.8-0.8-1.2
		C151.2,245,151.4,245.4,151.6,245.8z M153.7,247.8c-0.1-0.2-0.1-0.5-0.2-0.7c18-4.3,34.4-10.4,49.2-18
		C189.6,238.1,170.6,242.2,153.7,247.8z M153.2,246.4c-0.2-0.4-0.4-0.7-0.6-1.1c-0.2-0.4-0.4-0.7-0.7-1c-1.7-2-4.9-2.6-8.1-2.6
		c-0.1,0-0.1,0-0.2,0c0,0-0.1,0-0.1,0c-0.2,0-0.4,0-0.6,0c-0.1-0.1-1.2,0-1.6,0.1c-0.8,0-2.6,0.3-2.7,0.3c-3.8,0.5-7.5,1.2-11.1,2.1
		c-0.1,0-0.1,0-0.2,0.1c-1.6,0.4-3.3,0.8-4.9,1.2c-2,0.6-4.1,1.3-5,2.6c-1.7,2.1-0.1,4.9,1.9,6.9c0.4,0.4,0.8,0.8,1.2,1.2
		c-6.1,1.9-12.5,3.5-19.2,4.5c-6,0.9-13.4,1.5-19-0.8c0,0,0,0,0,0c0.1-0.1,0-0.2-0.2-0.3c-2.5-1.4-1.6-4-0.4-5.6
		c0.3-0.4-0.6-0.7-0.9-0.3c-0.9,1.2-1.6,2.9-1.2,4.3c-1.1-1.6-0.9-3.4-0.1-5.5c0,0,0,0,0,0c3.8,0.9,7.9,1.2,12,0.8
		c3.5-0.4,8.7-1.6,10.6-3.6c1.7-1.8-1.1-2.9-3.8-2.5c-0.3,0-0.6,0.1-0.9,0.1c0,0,0,0-0.1,0c-2.4,0.2-4.4,0.4-6.8,0.2
		c-2.2-0.2-7.2-0.8-7-2.7c0,0,0-0.1,0-0.1c1.6-2,3.8-3.8,6.8-5.3c9.4-4.7,21.7-6.6,33.3-8.1c12.2-1.6,24.3-3.3,36.2-5.5
		c12-2.2,23.9-4.8,35.8-7.3c0,0.7-0.1,1.5-0.1,2.2c0,0.3,0.4,0.3,0.7,0.3c2.2,0.7,5.1,0.3,7.4,0.1c3.3-0.4,6.4-1.1,9.2-2.2
		c0,0.8,0,1.5,0.1,2.3c-0.3-0.1-0.6-0.2-1-0.3c-0.1,0-0.2,0-0.3,0c-0.6,0-1.2,0.1-1.9,0.2c-3,0.2-5.7,1.1-7.7,2.5
		c-0.3,0.2-2.5,2.2-2.2,2.9c-0.2,0.1-0.3,0.4,0.1,0.6c1.1,0.4,2.3,0.9,3.4,1.3C188.1,235.8,171.5,242.1,153.2,246.4z M100.9,247.7
		c0.7,0.2,0.9,0.6,0.7,1C101.6,248.2,101.3,247.9,100.9,247.7z M213.5,230.4c-1-0.3-2-0.5-2.9-0.8c-1.1-0.3-2.5-0.8-3.9-1.4
		C208.9,229,211.2,229.7,213.5,230.4C213.5,230.4,213.5,230.4,213.5,230.4z M213.9,229.8c-1.9-0.5-3.9-1.1-5.8-1.7
		c-1.4-0.4-6-1.5-6.6-2.6c0.7-1.1,2.8-2.1,4.1-2.6c0.5-0.2,2.6-1.1,4.4-1.4c0.6,0,1.2,0,1.8,0l9.3,3.7
		C217.6,225.9,215.1,227.6,213.9,229.8z M214.8,230c1.2-2.2,3.8-3.8,7.3-4.6c0.2,0.1,0.4,0.2,0.6,0.2c0.3,0.1,0.6,0.2,1,0.4
		c-3,1-5.1,2.7-5.8,4.8C216.7,230.6,215.7,230.3,214.8,230z M227.9,230.2c-0.2,0-0.4,0-0.5,0.2c-0.2,0.3-0.5,0.5-0.9,0.7
		c-1.1,0.4-2.5,0.7-3.7,0.7c-1.3-0.1-2.8-0.3-4.1-0.6c0.6-2.1,2.8-3.8,5.9-4.7c1.2,0.5,2.5,1.1,3.1,1.8
		C228.4,229,228.3,229.7,227.9,230.2z"/>
	<path id="XMLID_15282_" class="st2" d="M111.2,242C111.2,242,111.2,242,111.2,242c-0.8,0.1-1.5,0.4-2,0.8c-0.1,0.1-0.3,0.2-0.4,0.3
		c-0.1,0.1-0.1,0.1-0.1,0.2c-0.7,1.2,0.3,2.7,2.2,3.1c1.4,0.3,2.9,0,3.8-0.7c0.2,0,0.4-0.1,0.4-0.3c0,0,0,0,0,0
		c0.2-0.3,0.4-0.6,0.4-0.9C115.7,243.2,113.4,241.1,111.2,242z M111.2,245.7c-1.3-0.4-2-1.4-1.5-2.2c0.1-0.1,0.2-0.2,0.3-0.3
		c0.2-0.1,0.4-0.2,0.6-0.2c0.1,0,0.2,0,0.2,0c0.5-0.1,1,0,1.5,0.1c0.3,0.2,0.6,0.3,0.8,0.5c0.6,0.6,1.1,1.6,0.2,2
		c-0.1,0-0.1,0.1-0.2,0.2C112.5,245.9,111.8,245.9,111.2,245.7z"/>
	<path id="XMLID_15285_" class="st2" d="M122.4,239.1c-1.6,0.1-2.3,1.4-1.9,2.3c0.4,1.1,1.9,2,3.7,1.8c0.9-0.1,2.7-1,2.2-2.3
		C126,239.9,124.2,238.7,122.4,239.1z M124.3,242.5c-1.2,0.2-2.3-0.2-2.7-0.9c-0.6-1,1.4-1.6,2-1.6c0.7,0.2,1.3,0.7,1.6,1.2
		C125.6,241.9,124.5,242.5,124.3,242.5z"/>
	<path id="XMLID_15288_" class="st2" d="M131.4,239.2C131.5,239.2,131.5,239.2,131.4,239.2c0.7,0.8,2.2,1.3,3.6,1
		c1.5-0.3,2.2-1.4,1.7-2.4C135.7,235.8,129.5,236.2,131.4,239.2z M134.7,239.6c-1,0.3-2.2-0.2-2.4-0.9c-0.3-0.7,0.6-1.3,1.6-1.4
		C134.8,237.3,137.9,238.6,134.7,239.6z"/>
	<path id="XMLID_15291_" class="st2" d="M145.1,234.5c-0.2,0-0.4,0.1-0.6,0.2c-0.9,0.4-1.1,1.3-0.7,2c0.5,0.9,2.1,1.6,3.6,1.3
		C151.3,237.3,147.9,233.6,145.1,234.5z M145.2,235.2c0.6-0.3,1.4-0.2,1.4-0.2c0.5,0.2,2.7,1.5,0.7,2.4c-0.1,0-0.1,0-0.2,0
		C143.3,237.5,144.7,235.6,145.2,235.2z"/>
	<path id="XMLID_31817_" class="st2" d="M158.1,235.8c1.5-0.2,2.5-1.1,2.2-2.1c-0.4-1.3-2.7-1.5-2.9-1.5c0,0-4,0.3-3.1,2.1
		C154.9,235.2,156.5,235.9,158.1,235.8z M155.5,234c0-0.5,0.9-1,2-1.1c0.9,0,1.8,0.4,1.9,1c0.1,0.6-0.6,1.2-1.6,1.3
		C156.8,235.2,155.5,234.6,155.5,234z"/>
</g>
<g id="XMLID_56_">
	<path id="XMLID_141_" class="st2" d="M138,282.9c-2.7,1-5.3,1.9-8,2.9c1.7-1.7,2.7-3.7,2.6-5.4c-0.2-2.5-2.7-3.9-6.1-3.3
		c-3.9,0.7-6.9,3.9-8.5,6.5c-0.8,1.4-1.4,2.8-1.7,4.2c-0.1,0.5-0.2,1.1-0.3,1.8c-0.4-0.5-1-0.9-1.4-1.2c-1.1-0.9-2.5-1.6-4-2.1
		c-2.9-0.9-7.3-1.5-10.7,0.6c-2.9,1.8-3.9,4.5-2.4,6.5c1,1.4,3.1,2.3,5.5,2.4c-2.6,1-5.3,2-7.9,3c-0.4,0.2-0.6,0.5-0.4,0.8
		c0.6,0.7,1.1,1.4,1.5,2.2c0,0,0,0,0,0.1c0.2,0.8,0.7,1.5,0.9,2.3c0.1,0.7,0.1,1.4,0.3,2c0,0.1,0,0.2,0.1,0.2c0,0.1,0,0.1,0.1,0.2
		c0,0.1,0.1,0,0.2,0c0,0,0,0,0,0c0.1,0,0.2,0,0.3,0c0,0,0.1,0,0.1,0c0.1,0,0.1,0,0.2-0.1c0.8-0.3,1.5-0.5,2.2-0.8
		c1.2,3.1,2.8,6.1,4,9.3c1.2,3.2,2.1,6.5,2.9,9.8c0,0.2,0.3,0.2,0.6,0.1c4-1.3,7.9-2.7,11.8-4.1c2.3-0.8,4.6-1.6,6.9-2.5
		c2.3-0.8,4.6-1.8,6.9-2.6c3.9-1.5,7.8-3,11.6-4.6c0.2-0.1,0.4-0.3,0.3-0.5c-1.6-3-3-6.1-4.2-9.3c-1.2-3.2-1.9-6.5-3-9.6
		c0.7-0.3,1.5-0.6,2.2-0.9c0.1,0,0.1,0,0.2-0.1c0,0,0.1,0,0.1,0c0.1,0,0.2-0.1,0.3-0.2c0,0,0,0,0,0c0.1,0,0.2,0,0.1-0.1
		c0-0.1,0-0.1-0.1-0.2c0-0.1,0-0.1-0.1-0.2c-0.3-0.6-0.8-1.1-1.1-1.7c-0.4-0.7-0.5-1.6-0.9-2.3c0,0,0,0,0,0
		c-0.2-0.9-0.3-1.8-0.3-2.7C138.8,282.9,138.4,282.7,138,282.9z M131.5,286.2c0.2,0.3,0.2,0.7,0.1,1.2c-0.4,1.3-2.5,1.8-3.6,1.3
		c-0.4-0.2-0.6-0.5-0.7-0.9C128.7,287.2,130.1,286.7,131.5,286.2z M125.5,280c-2.7,0.7-5.4,2.7-7,4.9c1-2.3,3-4.6,5.6-6.1
		c3.6-2.1,7-0.6,7.3,2.1c0.2,2.1-1.7,3.9-3.5,5.6c-0.1,0-0.2,0.1-0.3,0.1c0.7-0.6,1.3-1.3,1.8-2c0.8-1.2,1.4-3.4-0.4-3.7
		c0,0-0.1,0-0.1,0.1c0.7,1.2,0.5,2.4-0.4,3.8c-0.7,1.1-1.8,1.9-3,2.6c0.8-0.6,1.4-1.3,1.8-2.1c0.6-1.2-0.3-2.8-2-2.8
		c-3.2,0-6.1,3-7.4,5.6c0.4-1.1,0.8-2.1,1.6-3.2c1.4-1.9,3.8-3.2,6-4.6C125.7,280.1,125.7,280,125.5,280z M121.7,284.8
		c1.4-1.3,3.9-2.3,4.7-0.6c0.7,1.4-1.8,2.9-3.1,3.9c0,0-0.1,0.1-0.1,0.1c-1.7,0.6-3.4,1.2-5.1,1.8
		C118.9,288.1,119.8,286.5,121.7,284.8z M121.2,292.1c0.4-0.3,0.8-0.5,1.3-0.6c1.7-0.4,2.8,0.6,2.4,1.9c-0.3,0.9-1.6,1.5-2.7,1.5
		C121.9,293.9,121.6,293,121.2,292.1z M116.8,291.6c0.9-0.3,1.8-0.6,2.7-1c0.4,1.9,1.4,3.7,2.1,5.5c0.1,0.3,0.2,0.6,0.3,0.8
		c0,0-0.1,0-0.1,0c-0.9,0.3-1.7,0.7-2.6,1c-0.9,0.3-1.8,0.6-2.7,0.9c0,0-0.1,0-0.1,0c-0.1-0.3-0.2-0.6-0.3-0.8c-0.6-1.8-1-3.8-2-5.5
		C115.1,292.3,116,292,116.8,291.6z M109.8,293.2c0,0-0.1,0-0.1,0c-1.7,0.2-4.5,0.6-4.9-0.9c-0.5-1.8,2.1-2.6,4-2.6
		c2.5,0,4.2,0.7,6.1,1.6C113.1,291.8,111.4,292.5,109.8,293.2z M110.1,294.1c1.1-0.4,2.2-0.8,3.2-1.2c0.1,0.7,0.3,1.3,0.5,1.9
		c-0.8,0.7-2.2,0.9-3.1,0.5C110.2,295.2,110,294.7,110.1,294.1z M98.8,292.9c-1.6-2.2,0-5.5,4.2-6.3c3-0.6,6,0,8.3,1
		c-2.7-0.6-6-0.4-8.6,0.8c-0.1,0.1-0.1,0.2,0.1,0.2c2.6-0.4,5.2-0.9,7.6-0.4c1.3,0.3,2.3,0.8,3.3,1.3c-2.6-1.2-6.8-1.5-9.2,0.6
		c-1.3,1.1-0.9,2.9,0.4,3.4c0.8,0.4,1.8,0.5,2.8,0.4c-1.4,0.2-2.7,0.4-4,0c-1.6-0.5-2.5-1.3-2.7-2.6c0,0-0.1,0-0.1,0
		c-1.2,1.5,0.7,2.7,2.1,3.1c0.8,0.2,1.7,0.4,2.7,0.4c-0.1,0-0.2,0.1-0.3,0.1C102.6,294.8,100.1,294.7,98.8,292.9z M103.4,298.2
		c-0.4,1.3-2.5,1.8-3.6,1.3c-0.6-0.3-0.7-0.7-0.7-1.3c1.3-0.5,2.7-1,4-1.5C103.4,297.1,103.5,297.7,103.4,298.2z M97.9,298.7
		c0,0.7,0.4,1.2,1,1.6c1.6,1,4.3-0.1,5.4-1.7c0.6-0.9,0.4-1.7-0.1-2.3c1.5-0.6,3-1.1,4.4-1.7c0.1,0,0.2-0.1,0.3-0.1
		c0,0.7,0.4,1.2,1,1.6c1.1,0.7,2.9,0.4,4.2-0.5c0.4,1,0.8,1.9,1.1,2.8c0.1,0.3,0.2,0.6,0.3,0.8c-1.3,0.5-2.6,0.9-3.9,1.4
		c0.5-1.5-1-2.8-3-2.6c-1.1,0.1-2.1,0.5-3,1.2c-0.6,0.6-0.7,1.2-0.7,1.7c-0.1,0.7,0.2,1.3,0.8,1.7c0.3-0.1,0.6-0.2,0.9-0.3
		c-1.4,0.5-2.8,1-4.2,1.5c-0.3-0.9-1.6-1.6-3-1.5c-0.5,0-1,0.1-1.4,0.3c0-0.1-0.1-0.2-0.1-0.3c-0.4-1.2-1-2.2-1.8-3.2
		C96.8,299.1,97.4,298.9,97.9,298.7z M118.7,308.7c-0.2,0-0.3-0.1-0.4-0.1c-0.9-0.4-0.8-1.4-0.4-2.2
		C118.2,307.2,118.4,307.9,118.7,308.7z M107.2,302.3c-0.2,0-0.3-0.1-0.4-0.1c-1-0.5-0.8-1.5-0.3-2.4c0.5-0.4,1-0.6,1.5-0.8
		c1.7-0.4,2.8,0.6,2.4,1.9c0,0.1-0.1,0.2-0.2,0.4C109.2,301.6,108.2,301.9,107.2,302.3z M106.7,318.3c0.3-0.2,0.7-0.4,1.1-0.5
		c1.7-0.4,2.8,0.6,2.4,1.9c-0.3,0.9-1.6,1.5-2.6,1.5C107.3,320.2,107,319.3,106.7,318.3z M104.3,311.4c0.3-0.2,0.6-0.3,1-0.4
		c1.7-0.4,2.8,0.6,2.4,1.9c-0.3,0.8-1.3,1.3-2.2,1.5c0-0.1-0.1-0.2-0.1-0.3C104.9,313.1,104.6,312.2,104.3,311.4z M101.2,305.3
		c0.1,0,0.2-0.1,0.3-0.1c0.2,0.2,0.4,0.3,0.6,0.5c0.3,0.2,0.5,0.4,0.9,0.5c0.4,0.1,0.7-0.3,0.6-0.5c-0.2-0.2-0.4-0.3-0.7-0.5
		c-0.1-0.1-0.3-0.2-0.5-0.2c0.6-0.2,1.3-0.5,1.9-0.7c0.2,0.2,0.5,0.3,0.7,0.4c0.2,0.1,0.5,0.2,0.8,0.3c0.1,0.2,0,0.5-0.1,0.8
		c-0.4,1.3-2.5,1.8-3.6,1.3C101.9,306.4,101.6,305.8,101.2,305.3z M98.4,305.5c0.1-0.6,0-1.3-0.1-1.9c0.2-0.1,0.4-0.2,0.5-0.2
		c1.3-0.3,2.2,0.2,2.4,1C100.3,304.8,99.4,305.1,98.4,305.5z M108.2,324c-0.1-0.6-0.3-1.2-0.4-1.9c1.3-0.2,2.7-1,3.4-2
		c1.1-1.7-0.6-3.3-2.7-3.1c-0.7,0.1-1.3,0.2-1.9,0.5c-0.3-0.8-0.5-1.6-0.8-2.4c1.2-0.3,2.3-1,2.9-1.9c1.1-1.7-0.6-3.3-2.7-3.1
		c-0.7,0.1-1.3,0.2-1.9,0.5c-0.4-0.9-0.7-1.7-1.2-2.6c1.5,0,3.2-0.9,3.9-2c0.7-1,0.4-1.9-0.4-2.5c0.3-0.1,0.6-0.2,0.8-0.3
		c0.2,0.1,0.5,0.2,0.8,0.3c0.3,0.1,0.8,0.4,1.2,0.2c0.1,0,0.1-0.1,0.1-0.1c0.1-0.4-0.5-0.5-0.9-0.6c-0.1,0-0.2-0.1-0.3-0.1
		c0.7-0.3,1.5-0.5,2.2-0.8c0,0,0,0,0,0.1c0.1,0.2,0.4,0.2,0.7,0.3c0.2,0.1,0.5,0.2,0.7,0.3c0.1,0,0.2,0,0.3,0c0,0,0,0,0.1,0
		c0.1-0.1,0.1-0.2,0-0.3c-0.2-0.2-0.4-0.4-0.7-0.5c-0.1,0-0.2-0.1-0.3-0.1c0.8-0.3,1.7-0.6,2.5-0.9c0.1,0.1,0.2,0.1,0.3,0.2
		c0.2,0.1,0.5,0.3,0.8,0.2c0.1,0,0.2-0.1,0.2-0.2c0-0.2-0.2-0.4-0.4-0.5c0,0,0,0,0,0c0.4-0.2,0.9-0.3,1.3-0.5
		c0.6,1.7,1.2,3.5,1.8,5.2c0,0,0,0.1,0,0.1c-0.1,0.1-0.3,0.2-0.4,0.3c-0.6,0.6-0.7,1.2-0.7,1.7c-0.1,0.8,0.3,1.4,1,1.8
		c0.5,0.3,1,0.4,1.6,0.4c0.3,0.8,0.6,1.6,0.9,2.5c0.5,1.4,0.9,2.9,1.5,4.3c-0.6-0.6-1.5-0.9-2.5-0.8c-1.1,0.1-2.1,0.5-3,1.2
		c-0.6,0.6-0.7,1.2-0.7,1.7c-0.1,0.8,0.3,1.4,1,1.8c0.2,0.1,0.4,0.2,0.6,0.3C113.9,321.8,111,322.9,108.2,324z M116.7,317.3
		c0.5-0.4,1-0.6,1.5-0.8c1.7-0.4,2.8,0.6,2.4,1.9c-0.4,1.3-2.5,1.8-3.6,1.3C116.1,319.3,116.2,318.2,116.7,317.3z M121.4,319.1
		c0.1-0.1,0.1-0.2,0.2-0.3c0.2-0.4,0.3-0.7,0.4-1c0.1,0.3,0.3,0.6,0.5,0.9C122,318.9,121.7,319,121.4,319.1z M126.4,317.3
		c-1.1,0.4-2.2,0.7-3.3,1.1c-0.4-2.3-1.4-4.5-2.1-6.7c-0.8-2.3-1.6-4.5-2.4-6.8c-0.6-1.7-1.2-3.5-1.8-5.2c0.5-0.2,1-0.3,1.4-0.5
		c0.3,0.1,0.6,0.2,0.9,0.4c0.3,0.1,0.8,0.4,1.3,0.2c0.1,0,0.1-0.1,0.1-0.1c0-0.3-0.5-0.5-0.8-0.6c-0.1-0.1-0.3-0.1-0.5-0.2
		c0.1,0,0.2-0.1,0.4-0.1c0.9-0.3,1.8-0.6,2.7-1c0.7,1.7,1.3,3.4,2,5.1c0.9,2.2,1.8,4.5,2.7,6.7c0.9,2.2,1.6,4.4,2.7,6.5
		C128.5,316.5,127.4,316.9,126.4,317.3z M123.5,298.1C123.5,298.1,123.5,298.1,123.5,298.1c0.1-0.1,0.2-0.2,0.3-0.2
		c0.2,0,0.4,0,0.5-0.1c0.1-0.1,0.1-0.2,0.1-0.2c0.2-0.1,0.4-0.2,0.7-0.2c1.7-0.4,2.8,0.6,2.4,1.9c-0.4,1-1.8,1.6-2.9,1.5
		C124.2,299.8,123.9,299,123.5,298.1z M126.5,305.6c0.4-0.3,0.9-0.6,1.4-0.7c1.7-0.4,2.8,0.6,2.4,1.9c-0.3,1-1.6,1.5-2.7,1.5
		C127.2,307.4,126.9,306.5,126.5,305.6z M129.9,314.3c0.9,0,1.6,0.4,1.8,1c-0.5,0.2-0.9,0.3-1.4,0.5
		C130.2,315.3,130.1,314.8,129.9,314.3z M132.8,314.9c-0.4-0.9-1.6-1.5-2.9-1.4c-0.1,0-0.2,0-0.3,0c-0.5-1.5-1.2-2.9-1.7-4.3
		c0,0,0,0,0,0c1.3-0.2,2.7-1,3.3-2c1.1-1.7-0.6-3.3-2.7-3.1c-0.9,0.1-1.6,0.3-2.3,0.8c-0.3-0.8-0.6-1.5-0.9-2.3
		c-0.1-0.3-0.2-0.6-0.4-0.9c1.4-0.1,2.8-1,3.5-2c0.7-1.1,0.3-2.1-0.7-2.7c0,0,0,0,0,0c0.1,0,0.2-0.2,0.1-0.2
		c-0.4-0.2-0.8-0.3-1.3-0.4c-0.1,0-0.2,0-0.3,0c0.7-0.3,1.4-0.6,2.1-0.8c0.4-0.1,0.8-0.3,1.2-0.4c0.2,0.1,0.5,0.2,0.7,0.2
		c0,0,0,0,0,0c0,0.1,0,0.1,0,0.2c-0.1,0.8,0.3,1.4,1,1.8c1.6,1,4.3-0.1,5.4-1.7c0.8-1.2,0.2-2.4-1.1-2.9c0.3-0.1,0.6-0.2,0.8-0.3
		c0.1,0,0.2,0.1,0.3,0.1c0.2,0.1,0.4,0.1,0.6,0c0,0,0.1-0.1,0.1-0.1c0-0.1-0.2-0.2-0.3-0.3c0.2-0.1,0.4-0.1,0.5-0.2
		c0.4,3.2,1.5,6.2,2.6,9.2c0,0.1,0.1,0.2,0.1,0.4c-0.9,0.2-1.6,0.6-2.3,1.1c-0.6,0.6-0.7,1.2-0.7,1.7c-0.1,0.8,0.3,1.4,1,1.8
		c1,0.7,2.6,0.4,3.8-0.3c0.3,0.6,0.6,1.3,0.9,1.9c-0.9,0.2-1.7,0.6-2.4,1.2c-0.6,0.6-0.7,1.2-0.7,1.7c-0.1,0.5,0.1,1,0.4,1.4
		c-2.4,0.9-4.8,1.8-7.2,2.7C133.1,314.7,133,314.8,132.8,314.9z M129.2,291.8c0.5-0.4,1-0.6,1.5-0.8c1.6-0.4,2.6,0.5,2.5,1.6
		c-1.3,0.5-2.5,1-3.8,1.5C128.5,293.6,128.7,292.7,129.2,291.8z M131.4,295.1C131.4,295.1,131.5,295.1,131.4,295.1
		c0.2-0.1,0.2-0.1,0.2-0.2c0-0.1-0.1-0.1-0.1-0.2c0.1-0.3,0.2-0.5,0.3-0.8c0.5-0.2,1-0.4,1.4-0.5c0.3,0,0.6,0.1,0.9,0.1
		c0.2,0,1,0.3,1.1,0c0,0,0-0.1,0-0.1c0.5,0.4,0.7,1,0.5,1.6c-0.4,1.3-2.5,1.8-3.6,1.3C131.5,296.1,131.4,295.7,131.4,295.1z
		 M141.8,305.1c-0.8,0.5-2,0.6-2.7,0.3c-1-0.5-0.8-1.5-0.3-2.4c0.5-0.4,1-0.6,1.5-0.8c0.1,0,0.2,0,0.3,0
		C141,303.1,141.4,304.1,141.8,305.1z M141.2,311.7c-0.2,0.1-0.4,0.2-0.6,0.2C140.7,311.8,141,311.8,141.2,311.7z M141.6,311.5
		c-0.7-0.5-0.6-1.5-0.1-2.3c0.5-0.4,1-0.6,1.5-0.8c0.1,0,0.3-0.1,0.4-0.1c0.3,0.7,0.7,1.4,1.1,2.1
		C143.5,310.8,142.5,311.2,141.6,311.5z M134.4,292.2c0-1.2-1.4-2.1-3.1-2c-1.1,0.1-2.1,0.5-3,1.2c-0.6,0.6-0.7,1.2-0.7,1.7
		c-0.1,0.6,0.1,1,0.5,1.4c0,0-0.1,0-0.1,0c-1.7,0.7-3.4,1.3-5.2,2c-0.1-0.3-0.2-0.5-0.3-0.8c0,0,0-0.1,0-0.1c1.3-0.2,2.6-1,3.3-2
		c1.1-1.7-0.6-3.3-2.7-3.1c-0.8,0.1-1.6,0.3-2.2,0.7c-0.2-0.3-0.3-0.7-0.5-1c1.6-0.6,3.2-1.2,4.7-1.8c0.4-0.1,0.8-0.3,1.2-0.4
		c0.1,0.5,0.5,1,1,1.3c1.6,1,4.3-0.1,5.4-1.7c0.5-0.7,0.4-1.4,0.1-2c1.6-0.6,3.2-1.2,4.8-1.8c0,0.4,0.1,0.8,0.1,1.2
		c-1.1,0.1-2.1,0.5-2.9,1.2c-0.6,0.6-0.7,1.2-0.7,1.7c-0.1,0.8,0.3,1.4,1,1.8c1.1,0.7,2.9,0.4,4.2-0.5c0.2,0.2,0.4,0.5,0.6,0.7
		C138,290.8,136.2,291.5,134.4,292.2z M138.3,287.6c0.1,0.4,0.3,0.8,0.5,1.2c-0.8,0.6-2.1,0.8-2.9,0.4c-1-0.5-0.8-1.5-0.3-2.4
		c0.5-0.4,1-0.6,1.5-0.8c0.2-0.1,0.5-0.1,0.7-0.1C137.9,286.5,138,287.1,138.3,287.6z"/>
	<path id="XMLID_138_" class="st2" d="M116.9,313.6c1.1-1.7-0.6-3.3-2.7-3.1c-1.1,0.1-2.1,0.5-3,1.2c-0.6,0.6-0.7,1.2-0.7,1.7
		c-0.1,0.8,0.3,1.4,1,1.8C113.1,316.3,115.9,315.2,116.9,313.6z M112.4,314.5c-1-0.5-0.8-1.5-0.3-2.4c0.5-0.4,1-0.6,1.5-0.8
		c1.7-0.4,2.8,0.6,2.4,1.9C115.5,314.5,113.5,315.1,112.4,314.5z"/>
	<path id="XMLID_135_" class="st2" d="M114.7,306.9c1.1-1.7-0.6-3.3-2.7-3.1c-1.1,0.1-2.1,0.5-3,1.2c-0.6,0.6-0.7,1.2-0.7,1.7
		c-0.1,0.8,0.3,1.4,1,1.8C110.9,309.5,113.7,308.4,114.7,306.9z M109.9,305.4c0.5-0.4,1-0.6,1.5-0.8c1.7-0.4,2.8,0.6,2.4,1.9
		c-0.4,1.3-2.5,1.8-3.6,1.3C109.2,307.3,109.3,306.3,109.9,305.4z"/>
	<path id="XMLID_132_" class="st2" d="M137.1,301.6c1.1-1.7-0.6-3.3-2.7-3.1c-1.1,0.1-2.1,0.5-3,1.2c-0.6,0.6-0.7,1.2-0.7,1.7
		c-0.1,0.8,0.3,1.4,1,1.8C133.3,304.2,136,303.1,137.1,301.6z M132.2,300.1c0.5-0.4,1-0.6,1.5-0.8c1.7-0.4,2.8,0.6,2.4,1.9
		c-0.4,1.3-2.5,1.8-3.6,1.3C131.6,302,131.7,301,132.2,300.1z"/>
	<path id="XMLID_59_" class="st2" d="M135.3,307.3c-1.1,0.1-2.1,0.5-3,1.2c-0.6,0.6-0.7,1.2-0.7,1.7c-0.1,0.8,0.3,1.4,1,1.8
		c1.6,1,4.3-0.1,5.4-1.7C139.2,308.7,137.5,307.1,135.3,307.3z M137.1,310.1c-0.4,1.3-2.5,1.8-3.6,1.3c-1-0.5-0.8-1.5-0.3-2.4
		c0.5-0.4,1-0.6,1.5-0.8C136.4,307.8,137.5,308.9,137.1,310.1z"/>
</g>
<path id="XMLID_174_" class="st2" d="M214.1,293c-2.4-0.4-4.8-0.8-7.3-1.3c2-0.4,3.6-1.4,4.2-2.6c0.9-1.7-0.4-3.7-3.2-4.7
	c-3.3-1.1-6.9-0.1-9.2,1c-1.2,0.6-2.2,1.3-3,2.2c-0.3,0.3-0.7,0.7-1,1.1c-0.1-0.5-0.4-1-0.6-1.3c-0.5-1-1.2-2.1-2.1-3
	c-1.8-1.8-4.9-3.9-8.4-3.9c-2.9,0-4.8,1.5-4.6,3.4c0.2,1.3,1.4,2.8,3.1,3.9c-2.4-0.4-4.8-0.8-7.3-1.1c-0.4-0.1-0.7,0.1-0.6,0.4
	c0.2,0.7,0.2,1.4,0.2,2.1c0,0,0,0,0,0c-0.2,0.6-0.1,1.3-0.3,1.9c-0.2,0.5-0.5,1-0.6,1.5c0,0.1-0.1,0.1,0,0.2c0,0,0,0.1,0,0.1
	c0,0,0.1,0.1,0.1,0c0,0,0,0,0,0c0.1,0,0.1,0.1,0.3,0.1c0,0,0.1,0,0.1,0c0,0,0.1,0,0.2,0c0.7,0.1,1.3,0.3,2,0.4c0,0,0,0,0,0
	c-0.4,2.6-0.4,5.3-0.8,7.9c-0.5,2.6-1.1,5.2-1.9,7.8c0,0.1,0.2,0.3,0.4,0.3c3.5,0.7,7.1,1.3,10.7,2c2.1,0.4,4.2,0.8,6.3,1.1
	c2.1,0.4,4.2,0.7,6.3,1c3.6,0.6,7.1,1.1,10.7,1.6c0.2,0,0.5,0,0.5-0.2c0.1-2.7,0.3-5.4,0.7-8c0.4-2.6,1.2-5.1,1.7-7.7
	c0.7,0.1,1.4,0.2,2,0.3c0,0,0.1,0,0.2,0c0,0,0.1,0,0.1,0c0.1,0,0.2,0,0.3,0c0,0,0,0,0,0c0,0,0.1,0,0.1,0c0,0,0-0.1,0-0.1
	c0,0,0-0.1,0-0.2c0-0.5-0.1-1.1-0.1-1.6c0-0.6,0.3-1.3,0.3-1.9c0,0,0,0,0,0c0.2-0.7,0.5-1.3,0.9-1.9
	C214.7,293.3,214.5,293.1,214.1,293z M213.3,293.6c-0.2,0.4-0.4,0.7-0.5,1.1c-1.1,0.3-2,0.9-2.9,1.4c-1.1,0.5-2.5,1-3.5,1.6
	c-1.6-0.2-3.1-0.5-4.7-0.7c-0.5-0.1-0.9-0.1-1.4-0.2c1.4-0.6,2.8-1.2,4.1-1.8c1.5-0.7,3.1-1.3,4.4-2.1
	C210.3,293.1,211.8,293.3,213.3,293.6z M205.8,286.1c-2.4-0.6-5.2-0.3-7.4,0.5c1.7-1.1,4.2-1.9,6.8-1.9c3.6,0,5.6,2.4,4.6,4.3
	c-0.7,1.5-2.9,1.9-5,2.4c-0.1,0-0.2,0-0.3,0c0.8-0.1,1.6-0.4,2.2-0.6c1.1-0.5,2.5-1.7,1.2-2.7c0,0-0.1,0-0.1,0
	c0,1.1-0.6,1.8-1.8,2.4c-1,0.5-2.2,0.5-3.4,0.5c0.9,0,1.6-0.3,2.3-0.7c1-0.6,1-2-0.3-2.7c-2.4-1.3-5.9-0.5-7.9,0.8
	c0.7-0.6,1.5-1.1,2.6-1.5c1.9-0.7,4.2-0.7,6.5-0.7C205.9,286.2,206,286.1,205.8,286.1z M200.9,287.8c1.6-0.3,4,0,3.8,1.5
	c-0.1,1.2-2.5,1.3-4,1.4c0,0-0.1,0-0.1,0c-1.5-0.3-3.1-0.6-4.6-0.8C197.5,288.9,198.8,288.1,200.9,287.8z M194.4,290.4
	c0.8,0.1,1.6,0.3,2.4,0.4c-0.5,1.4-0.5,3.1-0.7,4.6c0,0.2-0.1,0.5-0.1,0.7c0,0,0,0-0.1,0c-0.8-0.1-1.6-0.3-2.4-0.4
	c-0.8-0.1-1.6-0.3-2.4-0.4c0,0,0,0-0.1,0c0-0.2,0.1-0.5,0.1-0.7c0.3-1.5,0.8-3,0.8-4.5C192.8,290.2,193.6,290.3,194.4,290.4z
	 M188.4,288.6C188.4,288.6,188.4,288.6,188.4,288.6c-1.4-0.6-3.7-1.4-3.4-2.6c0.4-1.4,2.7-0.9,4.1-0.2c1.9,1,2.9,2.1,3.9,3.5
	C191.5,289.1,190,288.8,188.4,288.6z M180.2,284.1c-0.3-2.1,2.3-3.7,5.8-2.6c2.5,0.8,4.6,2.4,5.8,4c-1.8-1.5-4.4-2.7-6.8-2.9
	c-0.1,0-0.1,0.1,0,0.2c2.1,0.8,4.3,1.5,5.9,2.8c0.9,0.7,1.4,1.5,1.9,2.2c-1.5-1.8-4.5-3.7-7.3-3.3c-1.5,0.2-1.9,1.6-1.2,2.5
	c0.5,0.6,1.1,1.1,1.9,1.4c-1.1-0.4-2.2-0.8-3-1.6c-1-1-1.3-1.9-1-2.9c0,0-0.1-0.1-0.1,0c-1.5,0.5-0.6,2.1,0.3,2.9
	c0.5,0.5,1.1,0.9,1.9,1.3c-0.1,0-0.2,0-0.3,0C182.3,286.8,180.4,285.7,180.2,284.1z M179.1,287.9c-0.6,0.2-1.2,0.4-1.7,0.6
	c-0.6,0.3-1.3,0.6-1.7,1.1c0.1-0.7,0-1.5-0.1-2.3C176.7,287.5,177.9,287.7,179.1,287.9z M176.7,292.7c-0.7-0.1-1.3-0.2-2-0.3
	c0.5-0.6,0.8-1.4,0.9-2.1c0,0,0-0.1,0-0.1c0,0,0.1,0,0.1,0c0.8-0.2,1.4-0.6,2-0.9c0.9-0.4,1.8-0.7,2.9-1c0,0,0,0,0,0
	c1.9,0.3,3.9,0.6,5.8,0.9C183.1,290.2,179.8,291.4,176.7,292.7z M178.9,294.4c-0.7,0.3-1.5,0.6-2,1c0-0.7,0-1.4-0.1-2
	c1.1,0.2,2.2,0.4,3.3,0.6C179.7,294.1,179.3,294.3,178.9,294.4z M181.2,294.2c1.4,0.2,2.8,0.5,4.1,0.7c0.4,0.1,0.8,0.1,1.2,0.2
	c-0.7,0.2-1.2,0.5-1.8,0.8c-1.1,0.5-2.2,1.1-3.3,1.6c-1.7,0.8-3.5,1.6-5,2.6c0.2-1.4,0.4-2.8,0.5-4.2c0,0,0.1,0,0.1,0
	c0.9-0.3,1.6-0.7,2.4-1C179.9,294.6,180.7,294.4,181.2,294.2z M184.6,310.5C184.6,310.5,184.5,310.5,184.6,310.5
	c0.4-0.2,0.9-0.5,1.4-0.7c0.4-0.2,0.9-0.4,1.4-0.6c-0.1,0.6-0.1,1.1-0.2,1.7C186.4,310.8,185.5,310.7,184.6,310.5z M188.2,305.6
	c-0.2,1-0.4,2-0.6,3c-0.6,0.2-1.2,0.5-1.7,0.8c-0.7,0.3-1.5,0.6-2.1,1c-2-0.3-3.9-0.7-5.9-1c0.8-0.3,1.5-0.7,2.1-1
	c1.2-0.6,2.3-1.1,3.5-1.7c1.1-0.6,2.3-1.2,3.4-1.8c0.5-0.3,1.1-0.6,1.6-0.9C188.4,304.5,188.3,305,188.2,305.6z M189.2,300
	c-0.2,1.1-0.4,2.1-0.6,3.2c-1.1,0.3-1.9,1-2.7,1.4c-1.1,0.6-2.2,1.2-3.4,1.8c-1.1,0.6-2.3,1.2-3.5,1.7c-0.7,0.3-1.6,0.6-2.2,1.1
	c-0.8-0.1-1.6-0.3-2.5-0.4c0.3-1,0.6-2,0.9-3c2.7-1,5.1-2.4,7.5-3.6c2.2-1.1,4.7-2.2,6.7-3.5C189.4,299.1,189.3,299.6,189.2,300z
	 M189.6,298.1c-2.7,1-4.9,2.5-7.3,3.7c-2.2,1.1-4.8,2.2-6.9,3.5c0.4-1.4,0.7-2.9,0.9-4.3c0-0.1,0-0.2,0-0.3c2.2-0.8,4.1-1.9,6.1-2.8
	c0.9-0.5,1.9-0.9,2.8-1.4c0.7-0.4,1.5-0.7,2.1-1.2c0.9,0.2,1.8,0.3,2.7,0.5C189.9,296.5,189.7,297.3,189.6,298.1z M190.3,294.4
	c0,0.2-0.1,0.4-0.1,0.7c-1.6-0.3-3.1-0.6-4.7-0.9c-0.4-0.1-0.8-0.1-1.2-0.2c1-0.2,2-0.7,2.8-0.9c1.3-0.5,2.6-1,3.7-1.6
	C190.6,292.5,190.5,293.5,190.3,294.4z M190.9,290.7c-1.5,0.7-2.9,1.3-4.5,1.9c-1.1,0.4-2.8,0.6-3.6,1.2c-1.6-0.3-3.3-0.6-4.9-0.9
	c3.2-1.1,6.4-2.2,9.4-3.5c0.1,0,0.1-0.1,0.1-0.2c1.2,0.2,2.5,0.4,3.7,0.6C191.1,290.2,191,290.5,190.9,290.7z M190.9,311.7
	c-1-0.2-2-0.4-3-0.5c0.6-1.7,0.8-3.6,1.2-5.4c0.4-1.9,0.7-3.7,1.1-5.6c0.3-1.4,0.5-2.8,0.8-4.2c0.8,0.1,1.7,0.3,2.5,0.4
	c0.8,0.2,1.6,0.3,2.5,0.4c-0.2,1.4-0.4,2.8-0.6,4.3c-0.3,1.9-0.5,3.7-0.8,5.6c-0.3,1.8-0.7,3.6-0.6,5.5
	C192.9,311.9,191.9,311.8,190.9,311.7z M201.9,291.7c0.1,0,0.1,0,0.2,0c-0.8,0.1-1.6,0.4-2.2,0.7c-0.9,0.3-1.8,0.6-2.5,1.1
	c0.2-0.8,0.3-1.7,0.2-2.5C199.1,291.2,200.5,291.4,201.9,291.7z M197,295.6c0.1-0.5,0.2-1,0.3-1.5c0.9-0.4,1.8-0.8,2.7-1.2
	c1-0.4,2.2-0.5,3.1-1c1.7,0.3,3.3,0.6,5,0.8c-1.3,0.4-2.4,1.1-3.6,1.6c-1.7,0.8-3.4,1.5-5,2.3c-0.8-0.1-1.7-0.2-2.5-0.4
	C197,296,197,295.8,197,295.6z M196.9,296.9c1.6,0.2,3.2,0.4,4.7,0.7c0.1,0,0.2,0,0.3,0c-1,0.3-2,0.8-2.9,1.2
	c-0.9,0.4-1.9,0.9-2.6,1.4C196.6,299.2,196.7,298,196.9,296.9z M196.3,301c1.2-0.4,2.2-1.1,3.3-1.7c1-0.5,2.2-1,3.1-1.6
	c2.1,0.3,4.1,0.6,6.2,1c-2.3,1.2-4.5,2.4-6.8,3.7c-2.1,1.2-4.5,2.3-6.5,3.6c0.2-1.6,0.5-3.2,0.7-4.9
	C196.3,301.1,196.3,301,196.3,301z M194.5,312.2c0-0.1,0.1-0.2,0.1-0.3c2.6-1,4.9-2.5,7.2-3.8c2.2-1.2,4.4-2.4,6.6-3.7
	c-0.1,0.6-0.2,1.2-0.3,1.8c-0.2,0.9-0.3,1.9-0.4,2.8c-1.4,0.7-2.7,1.4-4,2.2c-1,0.6-2.5,1.2-3.1,2c-1.2-0.2-2.3-0.4-3.5-0.5
	C196.3,312.5,195.4,312.3,194.5,312.2z M201.4,313.3c1-0.3,1.8-1,2.6-1.4c1.3-0.7,2.5-1.4,3.7-2.2c-0.2,1.5-0.2,3.1-0.2,4.7
	C205.5,313.9,203.5,313.6,201.4,313.3z M208.6,303.8c-2.4,1.3-4.9,2.5-7.3,3.8c-2.2,1.2-4.6,2.3-6.6,3.6c0.3-1.4,0.4-2.9,0.7-4.4
	c0,0,0-0.1,0-0.1c2.5-1.1,4.7-2.6,7-3.8c2.4-1.3,4.7-2.6,7-4c0.2,0,0.4,0.1,0.6,0.1C209.4,300.5,209,302.1,208.6,303.8z
	 M207.5,297.9c1.1-0.3,2-0.8,2.9-1.3c0.7-0.3,1.6-0.7,2.2-1.2c-0.1,0.3-0.2,0.6-0.2,1c-0.2,0.7-0.1,1.5,0.2,2.3
	C210.8,298.4,209.2,298.1,207.5,297.9z"/>
<path id="XMLID_202_" class="st2" d="M170,326.1c1.5,0,2.4-1.1,1.7-1.8c1.5-0.3,2.8-1,2.1-2.2c-0.6-1-3.3-0.8-4.7-0.3
	c0.3-1.1-0.2-2.2-1.4-2.9c-0.2-0.1-0.3-0.2-0.5-0.3c-1.3-0.8-3.3-0.9-4.9-0.5c-0.3,0.1-0.5,0.1-0.7,0.2c0-0.6-0.5-1.4-0.8-1.8
	c-0.6-0.6-2.3-1.5-3.5-0.9c-0.4,0.2-0.9,0.6-0.7,1c0.1,0.2,0.4,0.8-0.1,0.9c-0.3,0.1-0.6,0.1-0.9,0.3c-0.9,0.5-0.8,1.2-0.2,1.7
	c-0.8,0.5-0.9,1.4,0.3,1.8c1.2,0.4,2.5,0.3,3.5-0.2c0,0.9,0.5,1.7,1.4,2.4c1.5,1.1,3.6,1.2,5.3,0.7c-0.6,1.1-0.6,2.5,1,3
	C168.3,327.6,169.9,327,170,326.1z M156.4,319.8c0.4,0,0.6-0.4,0.2-0.6c-1.8-0.7,0.8-1.2,1.2-1.6c0.1-0.1,0.1-0.3,0.1-0.4
	c0-0.1,0-0.2-0.1-0.3c-0.2-0.4,0.2-0.6,1.4-0.7c1.3,0.5,1,1.5,1.4,2.3c-0.1-0.2-0.3-0.3-0.5-0.4c-0.4-0.2-1.2-0.6-1.7-0.3
	c0,0-0.1,0.1,0,0.1c0.1,0.1,0.2,0.1,0.4,0.2c0.3,0.1,0.5,0.2,0.7,0.3c0.3,0.2,0.5,0.4,0.7,0.6c-0.1,0.1-0.2,0.2-0.3,0.3
	c-0.3-0.2-0.7-0.3-1.1-0.4c-0.4-0.1-0.7,0.3-0.3,0.4c0.4,0.1,0.7,0.2,1.1,0.3c-0.1,0.1-0.1,0.2-0.2,0.3c-0.5,0-1.2,0.1-1.6,0.2
	c-0.3,0.1-0.1,0.4,0.2,0.4c0.3,0,0.7-0.1,1.1-0.2c-0.1,0.1-0.3,0.1-0.4,0.2c-0.3,0.1-0.7,0.2-1,0.2
	C156.4,321.1,156,320.7,156.4,319.8z M167.5,321.3c-0.4,0.2-0.3,0.5-0.3,0.8c0,0.2,0,0.3,0.1,0.5c0,0-0.1,0-0.1,0.1
	c-0.2-0.1-0.3-0.2-0.5-0.3c-0.2-0.1-0.5-0.3-0.8-0.2c-0.1,0-0.1,0.1-0.1,0.1c0,0.2,0.4,0.3,0.6,0.4c0.2,0.1,0.4,0.2,0.6,0.2
	c-1.3,0.9-3.7,1-5.3,0.2c-1.4-0.7-1.6-1.7-1.2-2.7c0,0,0.1,0.1,0.1,0.1c0.1,0.1,0.3,0.2,0.6,0.3c0.1,0,0.1,0,0.1-0.1
	c0-0.2,0-0.3-0.2-0.4c-0.1-0.1-0.1-0.1-0.2-0.2c0.5,0.1,1,0.1,1.4,0c0.1,0,0.2-0.1,0.1-0.2c-0.3-0.2-0.8-0.3-1.3-0.3
	c0.1,0,0.1-0.1,0.2-0.1c0.1,0,0.2,0,0.3,0c0.3,0,0.5,0,0.8,0c0.6,0,1.2,0,1.7-0.2c0.1,0,0.1-0.1,0-0.2c-0.6-0.2-1.4-0.1-2.1-0.1
	c0,0,0,0,0,0c0.1-0.1,0.2-0.1,0.4-0.2c0.5-0.2,1.1-0.3,1.7-0.3c0.1,0,0.2,0,0.4,0c0.4,0,0.8,0.1,1.1,0.2c1.8,0.5,2.7,1.8,2.2,3.1
	 M166.7,325c0-0.3,0.1-0.7,0.3-1c0.1,0.1,0.1,0.2,0.2,0.3c0.1,0.1,0.2,0.2,0.4,0.2c0.1,0,0.1,0,0.2-0.1c0.1-0.1,0-0.2-0.1-0.3
	c-0.1-0.1-0.2-0.2-0.3-0.3c-0.1-0.1-0.2-0.1-0.3,0c0,0,0,0,0,0c0,0,0,0,0,0c0,0,0.1,0,0.1-0.1c0,0,0,0,0.1,0
	c0.3,0.1,0.6,0.1,0.9,0.1c0.3,0.1,0.6,0.2,0.9,0.2c0.2,0,0.3-0.1,0.3-0.2c-0.2-0.4-0.8-0.6-1.4-0.6c0.1-0.1,0.3-0.2,0.4-0.3
	c0.4,0,0.7-0.1,1,0c0.3,0,0.7,0.2,1,0.1c0.1,0,0.1,0,0.1-0.1c0-0.3-0.5-0.5-0.8-0.5c-0.1,0-0.2,0-0.3-0.1c0.4,0,0.8-0.1,1.2-0.1
	c0.2,0,0.3,0,0.5-0.1c1.3-0.3,1.6,0.2,1,1.3c-0.5,0.2-1.1,0.2-1.7,0.3c-0.5,0.1-0.6,0.5-0.1,0.7c0,0.9-0.3,1.2-0.9,0.9
	c-0.4-0.1-0.9,0.2-0.7,0.5c0.2,0.4,0.1,0.7-0.4,0.9C166.7,327.3,166.6,325.4,166.7,325z"/>
<path id="XMLID_31495_" class="st2" d="M103.4,204.4c-1.9-2.1-4.5-2-7-1c0.2-1.8,0.1-3.6-0.6-5c-1.3-2.7-4-3.3-6.3-1.9
	c0.9-6.8,0.3-15.9-5.3-14.1c-2.4,0.8-4.6,3.7-5.7,6.8c-0.7,2.1-1,4.3-1.1,6.5c-1.8-1.4-5-0.2-6.8,1.9c-2.2,2.6-3,6.4-2.5,9.6
	c-2.6-0.7-5.5,3.6-6.8,7.2c-0.6,1.7-1,3.7-0.4,5.2c0.8,1.9,2.8,1.8,4.3,1.9c8.9,0.4,18.3-4.9,27-2.9c0.2,0,0.3,0,0.5-0.1
	c2.1,0.3,4.2,0.3,6.4-0.1c2.4-0.4,4.7-1.8,5.8-5.5C105.8,209.5,105.1,206.2,103.4,204.4z M102.8,214.2c-1.6,2.6-4.4,2.5-6.4,2.5
	c-2.4,0.1-4.7-0.3-6.9-1.1c-0.3-0.1-0.6,0.2-0.8,0.5c-5-0.1-10.1,1.4-15.2,2.5c-3.3,0.7-6.8,1.3-9.9,0.7c-2.5-0.5-1.6-3.7-0.4-6.2
	c1.3-2.7,3.6-5.3,5.4-3.4c0.1,0.1,0.2,0.2,0.4,0.1c0.2,0.4,0.5,0.8,0.8,1.1c0.6,0.7,1.7-0.8,1-1.5c-1.9-2.1-2.3-6.3-0.3-9.6
	c1.6-2.7,6.5-5.2,6.7-0.5c0,0.3,0.1,0.4,0.2,0.5c0.1,1,0.2,2,0.3,3c0.1,1.2,1.5,0.5,1.3-0.7c-0.6-5.6-1.1-15.2,4.6-17.9
	c2.7-1.3,4.2,1.9,4.6,5c0.4,3.4,0,7.2-0.9,10.7c-0.3,1.2,0.9,1.5,1.3,0.3c0.1-0.5,0.3-1.2,0.4-1.8c0,0,0,0,0.1,0
	c2-1.7,4.6-1.3,5.6,1.2c1,2.5,0.1,6-1.6,8.1c-0.7,0.9,0.1,2.1,0.9,1.2c0.9-1,1.5-2.4,1.9-3.7c2.4-1.2,5.1-1.5,6.8,0.7
	C104.1,208.1,104.4,211.6,102.8,214.2z"/>
<path id="XMLID_31494_" class="st2" d="M74.6,181.6c-5,0.7-9.2,6.1-9.8,12.7c-0.1,0.8,0.9,0.9,1,0.1c0.6-6.1,4.4-10.9,9-11.5
	C75.4,182.8,75.3,181.5,74.6,181.6z"/>
<path id="XMLID_31493_" class="st5" d="M68.4,177.5c-4.7,1.3-8.1,4.2-9.1,7.8c-0.3,0.9,1.5,1.4,1.8,0.5c1-3.3,3.9-5.9,8.2-7
	C70.3,178.5,69.5,177.2,68.4,177.5z"/>
<path id="XMLID_31492_" class="st2" d="M110.5,209.7c-0.3-0.7-1.1-0.1-0.8,0.6c2,5.4,0.8,12.4-2.8,16.2c-0.5,0.5,0.1,1.5,0.6,1
	C111.4,223.4,112.7,215.6,110.5,209.7z"/>
<path id="XMLID_31491_" class="st2" d="M116.5,214.9c-0.5,2.4-1,4.8-1.5,7.2c-0.2,0.8,0.7,1.3,0.8,0.4c0.5-2.4,1-4.8,1.5-7.2
	C117.5,214.4,116.7,214,116.5,214.9z"/>
<path id="XMLID_55_" class="st2" d="M194.5,267.1c2.3,0.9,4.6-0.6,4-2.3c2.5,0.2,5.1-0.2,4.9-2.6c-0.2-2-4.6-3.2-7.1-3
	c1.3-1.7,1.2-4,0-5.8c-0.2-0.3-0.3-0.6-0.5-0.9c-1.5-2.1-4.5-3.3-7.3-3.5c-0.4,0-0.9,0-1.3,0c0.5-1.1,0.3-2.8,0-3.5
	c-0.5-1.4-2.5-3.9-4.8-3.4c-0.8,0.2-1.8,0.6-1.8,1.3c0,0.4,0.1,1.6-0.7,1.5c-0.5-0.1-1.1-0.1-1.6,0c-1.7,0.3-2.1,1.6-1.5,2.8
	c-1.6,0.3-2.4,2-0.9,3.3c1.5,1.3,3.7,1.9,5.6,1.5c-0.6,1.5-0.5,3.3,0.4,5c1.5,2.6,4.7,4,7.8,4.1c-1.7,1.7-2.8,4.1-0.6,5.8
	C190.9,268.8,193.8,268.6,194.5,267.1z M177.9,248.9c0.6,0.1,1.2-0.4,0.7-0.9c-2.4-2.1,2.1-1.7,3-2.1c0.2-0.1,0.4-0.4,0.5-0.6
	c0.1-0.2,0.1-0.4,0.1-0.6c-0.1-0.8,0.8-0.9,2.7-0.4c1.6,1.5,0.5,3.1,0.5,4.7c-0.1-0.4-0.3-0.7-0.5-1c-0.4-0.5-1.5-1.7-2.4-1.5
	c-0.1,0-0.2,0.1-0.1,0.2c0.1,0.2,0.2,0.4,0.5,0.6c0.3,0.3,0.6,0.6,0.9,0.9c0.4,0.5,0.5,1,0.6,1.5c-0.2,0.1-0.5,0.2-0.7,0.4
	c-0.4-0.5-0.8-0.9-1.3-1.3c-0.5-0.3-1.2,0.1-0.8,0.5c0.5,0.4,1,0.8,1.6,1.2c-0.2,0.1-0.4,0.3-0.5,0.5c-0.8-0.3-1.9-0.5-2.7-0.5
	c-0.6,0-0.5,0.6,0,0.7c0.5,0.2,1.2,0.3,1.8,0.3c-0.3,0.1-0.5,0.1-0.8,0.1c-0.6,0-1.2,0-1.8-0.1C177.1,251,176.7,250.2,177.9,248.9z
	 M194.1,257.5c-0.8,0.1-0.9,0.8-1.1,1.3c-0.1,0.3-0.2,0.6-0.2,0.9c-0.1,0-0.1,0-0.2,0.1c-0.2-0.3-0.4-0.6-0.6-0.9
	c-0.3-0.4-0.6-0.8-1.1-0.9c-0.1,0-0.2,0.1-0.3,0.1c-0.2,0.4,0.3,0.8,0.6,1.1c0.3,0.3,0.5,0.5,0.8,0.7c-2.7,0.9-6.4-0.2-8.3-2.4
	c-1.6-1.9-1.3-3.9,0.1-5.2c0,0.1,0.1,0.2,0.1,0.3c0.1,0.3,0.3,0.6,0.7,0.8c0.1,0.1,0.2,0,0.3-0.1c0.2-0.3,0.1-0.5,0.1-0.8
	c0-0.2-0.1-0.3-0.2-0.5c0.6,0.4,1.4,0.7,2.2,0.8c0.2,0,0.3-0.1,0.2-0.3c-0.4-0.5-1-1-1.7-1.3c0.1-0.1,0.2-0.1,0.4-0.2
	c0.1,0,0.3,0.1,0.4,0.1c0.4,0.1,0.9,0.3,1.3,0.4c0.9,0.3,1.9,0.6,2.8,0.6c0.2,0,0.2-0.2,0.1-0.3c-0.8-0.7-2.1-0.9-3.1-1.2
	c0,0,0,0,0,0c0.2,0,0.5-0.1,0.7-0.1c1-0.1,1.9,0.1,2.8,0.4c0.2,0.1,0.4,0.1,0.5,0.2c0.6,0.2,1.1,0.6,1.7,0.9c2.4,1.8,3,4.6,1.2,6.6
	 M190.2,263.4c0.3-0.6,0.7-1.1,1.1-1.6c0,0.2,0.1,0.4,0.2,0.6c0.1,0.2,0.2,0.5,0.5,0.6c0.1,0,0.2,0,0.3,0c0.2-0.1,0.1-0.4,0.1-0.6
	c0-0.2-0.1-0.5-0.2-0.7c-0.1-0.1-0.2-0.2-0.5-0.2c0,0,0,0-0.1,0c0,0,0,0,0,0c0.1,0,0.2,0,0.3,0c0,0,0.1,0.1,0.1,0.1
	c0.4,0.3,0.9,0.4,1.2,0.7c0.4,0.3,0.8,0.6,1.3,0.9c0.3,0.2,0.6-0.1,0.6-0.3c0-0.7-0.9-1.4-1.8-1.7c0.3-0.1,0.5-0.2,0.8-0.3
	c0.6,0.1,1.1,0.2,1.7,0.5c0.5,0.2,1,0.7,1.5,0.7c0.1,0,0.2,0,0.3-0.1c0.3-0.5-0.4-1-0.9-1.4c-0.1-0.1-0.2-0.2-0.4-0.2
	c0.6,0.2,1.2,0.3,2,0.4c0.3,0.1,0.6,0.1,0.8,0.2c2.2,0.2,2.4,1.2,0.6,2.9c-0.9,0.1-1.9-0.2-2.8-0.4c-0.8-0.2-1.3,0.6-0.6,1.1
	c-0.6,1.6-1.2,1.9-2,1.1c-0.5-0.5-1.5-0.1-1.4,0.5c0.1,0.8-0.4,1.2-1.2,1.3C188.5,267.4,189.8,264,190.2,263.4z"/>
<path id="XMLID_210_" class="st2" d="M74.5,301.4c1.3,0.1,2.1-2.3,1.4-3.9c1.3-0.7,2.4-2.1,1.8-4.5c-0.5-2.1-2.9-1.8-4-0.7
	c0.3-2.2-0.2-4.6-1.2-6.1c-0.1-0.3-0.3-0.5-0.4-0.7c-1.1-1.7-2.9-1.8-4.2-1c-0.2,0.1-0.4,0.3-0.6,0.5c0-1.3-0.4-3-0.7-3.7
	c-0.5-1.3-2-3.2-3-1.8c-0.3,0.5-0.8,1.2-0.6,2.1c0.1,0.4,0.4,1.6-0.1,1.8c-0.3,0.1-0.5,0.3-0.8,0.6c-0.7,1-0.7,2.5-0.2,3.5
	c-0.7,1-0.7,3,0.3,3.8c1,0.9,2.2,0.6,3-0.4c0,1.8,0.4,3.7,1.2,5.1c1.3,2.2,3.1,2.5,4.6,1.5c-0.5,2.4-0.5,5.4,0.9,6.4
	C73.1,304.5,74.5,303.2,74.5,301.4z M62.9,288.1c0.3-0.1,0.5-0.9,0.2-1.2c-1.6-1.4,0.7-2.6,1-3.3c0.1-0.2,0.1-0.6,0.1-0.8
	c0-0.2,0-0.5-0.1-0.7c-0.2-0.8,0.2-1.3,1.2-1.4c1.1,1,0.9,3.1,1.2,4.8c-0.1-0.3-0.3-0.7-0.5-0.9c-0.3-0.4-1.1-1.3-1.4-0.7
	c0,0.1-0.1,0.2,0,0.2c0.1,0.2,0.2,0.3,0.3,0.4c0.2,0.2,0.4,0.4,0.6,0.6c0.3,0.4,0.5,0.8,0.6,1.3c-0.1,0.2-0.2,0.4-0.3,0.7
	c-0.3-0.3-0.6-0.6-0.9-0.8c-0.3-0.2-0.6,0.5-0.3,0.8c0.3,0.3,0.6,0.5,1,0.7c-0.1,0.2-0.1,0.4-0.2,0.7c-0.5-0.1-1,0.1-1.4,0.4
	c-0.3,0.2-0.1,0.8,0.1,0.8c0.3,0,0.6-0.1,0.9-0.3c-0.1,0.1-0.2,0.3-0.4,0.4c-0.3,0.2-0.6,0.4-0.9,0.5
	C62.9,290.7,62.5,290,62.9,288.1z M72.4,291.3c-0.4,0.4-0.3,1.2-0.3,1.8c0,0.3,0,0.7,0.1,1c0,0.1,0,0.1-0.1,0.1
	c-0.1-0.2-0.3-0.5-0.5-0.7c-0.2-0.3-0.4-0.7-0.7-0.5c-0.1,0-0.1,0.1-0.1,0.2c0,0.5,0.3,0.7,0.5,0.9c0.2,0.2,0.4,0.3,0.5,0.5
	c-1.1,1.9-3.2,2.1-4.5,0.4c-1.2-1.4-1.4-3.6-1-5.6c0,0.1,0.1,0.2,0.1,0.2c0.1,0.3,0.3,0.5,0.5,0.6c0.1,0,0.1-0.1,0.1-0.2
	c0-0.3,0-0.6-0.1-0.9c-0.1-0.2-0.1-0.3-0.2-0.5c0.4,0.2,0.8,0.2,1.2,0c0.1,0,0.1-0.2,0-0.3c-0.3-0.4-0.7-0.6-1.1-0.7
	c0-0.1,0.1-0.2,0.1-0.3c0.1,0,0.2,0,0.2,0c0.2,0,0.5,0,0.7,0c0.5,0,1,0,1.5-0.4c0.1-0.1,0.1-0.3,0-0.3c-0.5-0.4-1.2-0.2-1.8-0.2
	c0,0,0,0,0,0c0.1-0.1,0.2-0.2,0.3-0.3c0.5-0.4,0.9-0.6,1.4-0.6c0.1,0,0.2,0,0.3,0c0.3,0,0.7,0.2,1,0.4c1.5,1,2.4,3.8,1.9,6.5
	 M71.7,299.1c0-0.7,0.1-1.4,0.2-2.1c0,0.2,0.1,0.4,0.2,0.6c0.1,0.2,0.2,0.4,0.3,0.4c0.1,0,0.1,0,0.1-0.1c0.1-0.2,0-0.4,0-0.6
	c0-0.2-0.1-0.5-0.3-0.7c-0.1-0.1-0.2-0.2-0.3-0.1c0,0,0,0,0,0c0,0,0,0,0,0c0,0,0.1-0.1,0.1-0.1c0,0,0,0,0.1,0.1
	c0.2,0.1,0.5,0.2,0.7,0.3c0.3,0.2,0.5,0.4,0.8,0.4c0.2,0.1,0.3-0.3,0.2-0.5c-0.2-0.8-0.7-1.2-1.2-1.2c0.1-0.2,0.2-0.4,0.3-0.6
	c0.3-0.1,0.6-0.1,0.9-0.1c0.3,0,0.6,0.4,0.9,0.2c0.1,0,0.1-0.1,0.1-0.2c0-0.6-0.4-0.9-0.7-1.2c-0.1-0.1-0.1-0.1-0.2-0.1
	c0.3,0,0.7-0.2,1-0.3c0.1,0,0.3-0.1,0.4-0.1c1.1-0.5,1.4,0.4,0.9,2.8c-0.4,0.4-1,0.5-1.4,0.6c-0.4,0.1-0.5,1.1-0.1,1.4
	c0,1.9-0.2,2.5-0.8,1.9c-0.3-0.3-0.7,0.4-0.6,1c0.2,0.8,0.1,1.4-0.3,1.8C71.7,303.9,71.7,299.8,71.7,299.1z"/>
</svg>
