<?xml version="1.0" standalone="no"?>
<!DOCTYPE svg PUBLIC "-//W3C//DTD SVG 20010904//EN"
 "http://www.w3.org/TR/2001/REC-SVG-20010904/DTD/svg10.dtd">
<svg version="1.0" xmlns="http://www.w3.org/2000/svg"
 width="260.000000pt" height="260.000000pt" viewBox="0 0 260.000000 260.000000"
 preserveAspectRatio="xMidYMid meet">
<metadata>
Created by potrace 1.11, written by Peter Selinger 2001-2013
</metadata>
<g transform="translate(0.000000,260.000000) scale(0.100000,-0.100000)"
fill="#000000" stroke="none">
<path d="M1363 2574 c-13 -14 -23 -29 -23 -33 0 -9 -81 -71 -92 -71 -5 0 -36
-27 -69 -60 -33 -33 -65 -60 -72 -60 -19 0 -107 -63 -158 -113 -26 -25 -56
-48 -68 -52 -11 -3 -21 -12 -21 -19 0 -7 59 -68 132 -137 73 -68 141 -133 152
-143 19 -19 19 -19 -15 -48 -19 -16 -43 -37 -54 -47 -65 -57 -62 -57 -150 25
-297 280 -261 251 -283 231 -10 -10 -21 -17 -24 -17 -3 0 -43 -22 -90 -49 -47
-27 -105 -58 -129 -69 -24 -11 -57 -32 -74 -46 -16 -15 -55 -49 -85 -76 -30
-27 -75 -60 -100 -73 -27 -14 -46 -32 -48 -43 -3 -19 101 -126 255 -265 57
-52 58 -56 16 -75 -138 -61 -205 -101 -256 -150 -38 -37 -57 -63 -57 -79 0
-26 2 -28 190 -205 73 -69 147 -139 164 -156 17 -16 54 -52 83 -78 52 -48 52
-48 90 -35 21 7 49 23 64 36 14 13 29 23 33 23 5 0 22 11 38 26 17 14 52 36
78 49 26 13 62 43 80 65 18 22 36 40 40 38 18 -6 140 -123 140 -133 0 -6 -16
-19 -35 -29 -19 -11 -35 -23 -35 -27 0 -4 -30 -29 -67 -55 -38 -26 -70 -50
-73 -53 -13 -15 -82 -63 -93 -65 -7 -1 -23 -8 -36 -15 l-24 -13 60 -57 c32
-31 129 -122 214 -202 223 -212 220 -209 234 -209 7 0 31 17 54 38 53 49 69
63 111 92 19 13 41 30 48 37 25 24 99 83 105 83 3 0 38 15 79 34 40 18 83 36
96 40 12 4 22 12 22 17 0 5 8 9 18 9 9 0 23 10 31 22 13 20 10 25 -47 77 -171
158 -262 246 -262 252 0 4 16 17 35 29 19 12 54 37 76 56 26 21 46 31 54 26
12 -6 88 -77 261 -245 39 -37 57 -48 72 -43 11 4 56 41 99 84 44 42 98 91 119
108 87 68 251 191 277 207 25 16 38 47 20 47 -7 0 -64 53 -236 218 l-59 56 29
14 c23 12 115 83 133 102 14 16 140 99 173 115 20 9 37 20 37 24 0 4 -55 59
-122 122 -67 63 -141 132 -163 154 -23 22 -79 75 -125 118 l-82 78 -46 -27
c-26 -15 -54 -32 -62 -39 -8 -6 -34 -19 -58 -29 -45 -17 -135 -79 -188 -127
l-30 -29 -67 62 c-37 35 -67 67 -67 71 0 5 6 14 13 22 7 7 25 26 39 43 14 16
40 38 59 47 19 10 62 40 96 67 35 27 67 47 72 44 5 -4 12 -2 15 3 3 5 22 12
41 15 19 4 35 9 35 12 0 4 -28 31 -174 168 -22 21 -105 100 -184 175 -79 75
-147 137 -150 138 -4 2 -17 -9 -29 -23z m51 -56 c23 -23 300 -284 351 -332 41
-38 47 -48 35 -56 -8 -5 -19 -10 -24 -10 -6 0 -35 -20 -65 -44 -31 -24 -75
-53 -97 -64 -23 -12 -57 -39 -76 -61 l-34 -40 -49 49 -49 50 55 52 c30 29 65
61 77 70 12 10 22 22 22 26 0 17 -147 151 -172 157 -31 8 -91 -20 -140 -65
-18 -17 -45 -39 -60 -47 -52 -32 -45 -44 110 -190 80 -76 183 -174 229 -218
l83 -80 -23 -25 c-13 -14 -38 -38 -55 -54 l-31 -29 -78 76 c-43 41 -101 97
-130 123 -78 75 -294 277 -333 314 l-34 32 45 41 c68 63 88 78 154 121 33 22
78 57 100 78 21 21 52 44 67 50 15 7 42 29 60 50 36 41 43 44 62 26z m84 -355
c3 -1 -17 -21 -43 -45 -26 -24 -56 -51 -66 -60 -30 -28 -47 -22 -115 44 l-64
62 32 30 c18 16 56 42 83 58 l50 27 60 -57 c33 -31 61 -58 63 -59z m-807 -190
c19 -16 47 -41 65 -58 17 -16 68 -65 113 -107 l81 -77 -37 -21 c-21 -11 -52
-29 -69 -39 l-32 -19 -78 74 c-72 68 -82 75 -112 70 -29 -4 -98 -48 -127 -81
-5 -6 -26 -19 -46 -28 -58 -27 -57 -42 9 -106 57 -55 289 -273 380 -359 l46
-42 -44 -40 c-67 -61 -77 -60 -146 7 -52 50 -305 289 -384 363 -82 77 -160
152 -160 155 0 2 20 15 44 29 25 14 71 51 103 82 60 59 134 114 152 114 15 0
125 60 133 74 4 6 8 7 8 3 0 -5 12 1 28 12 35 26 34 26 73 -6z m1489 -179 c41
-39 94 -89 116 -110 23 -21 72 -67 108 -102 l67 -63 -58 -39 c-92 -63 -105
-72 -158 -121 -81 -74 -82 -75 -145 -19 -64 56 -64 56 41 126 42 27 69 52 69
63 0 15 -48 65 -151 158 -40 36 -66 36 -149 0 -27 -12 -77 -61 -125 -120 -26
-33 -137 -123 -187 -152 -9 -5 -36 -22 -60 -36 -71 -43 -78 -43 -130 5 -27 24
-48 46 -48 50 0 11 34 46 45 46 24 0 146 86 216 152 152 146 226 208 251 208
9 0 20 5 23 10 3 6 14 10 23 10 9 0 37 16 62 34 l45 34 35 -32 c19 -17 68 -63
110 -102z m-950 -23 l53 -50 -29 -26 c-16 -14 -67 -51 -113 -82 -46 -32 -96
-67 -109 -80 -14 -13 -50 -37 -79 -54 -29 -17 -76 -48 -103 -70 -27 -21 -54
-39 -59 -39 -6 0 -33 22 -61 49 -41 38 -48 49 -36 54 9 4 17 6 19 5 6 -5 67
38 67 47 1 10 159 124 191 137 26 10 119 79 119 87 0 4 18 17 40 30 22 12 40
26 40 32 0 15 5 11 60 -40z m-515 -96 c92 -85 94 -73 -29 -146 l-68 -41 -71
68 c-39 38 -73 69 -74 70 -7 3 10 34 18 34 5 0 37 20 71 45 34 25 64 45 68 45
3 0 41 -34 85 -75z m642 7 c76 -65 114 -105 110 -116 -3 -6 -17 -18 -33 -26
-16 -8 -50 -29 -77 -47 -26 -18 -49 -33 -51 -33 -8 0 -130 119 -125 123 59 42
87 64 99 76 8 9 24 21 35 28 11 6 20 12 21 12 1 1 10 -7 21 -17z m732 -79 c39
-37 71 -70 71 -74 0 -4 -22 -21 -50 -39 -27 -18 -50 -35 -50 -39 0 -3 -13 -14
-29 -23 l-30 -16 -70 65 c-39 36 -71 72 -71 79 0 27 111 114 147 114 6 0 43
-30 82 -67z m-899 -105 c40 -36 332 -312 367 -347 12 -11 7 -18 -29 -44 -24
-18 -49 -37 -56 -44 -7 -7 -16 -13 -19 -13 -8 0 -66 52 -233 211 -80 75 -157
148 -172 162 l-27 25 57 46 c31 25 59 45 62 45 3 1 25 -18 50 -41z m674 -20
c22 -22 250 -236 327 -309 20 -19 75 -71 122 -115 l86 -82 -62 -48 c-34 -27
-81 -62 -104 -77 -24 -16 -43 -32 -43 -36 0 -4 -27 -29 -61 -57 -33 -27 -88
-75 -121 -106 -33 -32 -64 -58 -68 -58 -4 0 -38 29 -76 64 -38 35 -98 91 -134
124 l-65 60 36 34 c84 78 74 78 143 10 97 -94 95 -94 172 -19 36 35 80 73 99
83 19 10 35 26 35 35 0 9 -59 72 -132 140 -72 68 -169 161 -216 205 l-86 81
45 28 c24 15 51 36 59 46 19 23 16 23 44 -3z m-784 -147 l25 -23 -25 -16 c-13
-10 -48 -36 -77 -60 -30 -24 -58 -42 -63 -40 -4 2 -37 30 -71 62 l-63 60 29
20 c15 12 51 40 79 63 l51 41 45 -41 c25 -23 56 -53 70 -66z m653 -2 c37 -34
67 -65 67 -68 0 -15 -136 -110 -157 -111 -19 0 -160 141 -146 147 7 2 39 22
72 43 34 22 61 37 61 33 0 -4 5 -2 12 5 7 7 15 12 18 12 4 0 37 -28 73 -61z
m-1238 -93 l30 -27 -25 -19 c-13 -10 -28 -16 -32 -14 -4 3 -32 -13 -63 -36
-64 -47 -65 -61 -14 -111 127 -121 171 -159 188 -159 16 0 119 69 157 104 7 6
24 20 39 31 16 11 53 39 84 62 31 24 79 58 106 77 28 20 72 55 100 80 l49 44
53 -51 c29 -28 53 -54 53 -58 0 -5 -26 -26 -58 -48 -33 -22 -83 -62 -113 -89
-30 -27 -70 -59 -89 -71 -19 -11 -69 -48 -110 -81 -93 -74 -266 -190 -290
-193 -10 -1 -78 55 -170 143 -85 80 -185 175 -224 211 l-70 67 63 61 c35 34
68 61 74 61 7 0 50 20 97 44 l85 44 25 -22 c14 -13 39 -35 55 -50z m1380 -74
l46 -44 -35 -26 c-19 -15 -66 -47 -104 -71 -39 -24 -85 -58 -103 -75 -19 -18
-50 -43 -69 -56 -19 -13 -68 -48 -108 -78 l-73 -54 -57 54 c-31 29 -58 56 -60
59 -2 4 31 26 73 50 41 24 101 64 133 88 64 49 219 151 230 151 4 1 21 12 37
25 17 14 33 24 37 22 3 -1 27 -22 53 -45z m-1212 -52 c67 -66 71 -71 52 -82
-11 -6 -44 -34 -72 -61 -52 -49 -53 -49 -79 -33 -14 10 -54 45 -89 78 l-64 60
50 35 c28 19 64 39 80 45 16 5 29 14 29 19 0 21 25 5 93 -61z m695 -41 c34
-33 62 -63 62 -68 0 -4 -12 -14 -27 -22 -16 -7 -53 -30 -83 -50 l-55 -36 -68
62 -68 63 21 20 c11 10 38 28 58 38 20 11 48 27 61 37 13 9 26 17 30 17 3 0
34 -27 69 -61z m676 -25 l60 -56 -29 -21 c-15 -12 -49 -41 -74 -65 -24 -23
-48 -41 -52 -40 -14 5 -129 119 -129 128 0 5 24 22 53 39 29 17 62 40 72 51
10 11 23 20 29 20 6 0 38 -25 70 -56z m-865 -134 c163 -153 338 -318 371 -350
20 -19 67 -64 104 -99 37 -35 66 -64 64 -65 -2 0 -17 -9 -35 -18 -17 -10 -38
-18 -47 -18 -9 0 -16 -3 -16 -8 0 -4 -28 -18 -62 -31 -91 -35 -170 -91 -294
-210 l-56 -53 -41 38 c-22 22 -50 48 -62 59 -12 11 -86 81 -165 155 -78 74
-147 138 -154 143 -7 5 -3 14 14 27 14 11 29 20 34 20 8 0 63 45 121 98 11 11
34 27 50 37 17 10 40 28 53 39 l23 20 52 -52 c59 -59 61 -50 -40 -118 -89 -59
-89 -63 13 -160 48 -46 94 -84 103 -84 8 0 40 22 72 50 32 27 62 50 68 50 18
0 91 49 91 61 0 11 -18 30 -235 234 -232 219 -220 206 -204 216 8 5 16 9 19 9
3 0 23 16 45 35 22 19 42 35 45 35 3 0 34 -27 69 -60z m131 -401 l65 -61 -25
-17 c-13 -9 -48 -35 -76 -58 -29 -24 -56 -43 -61 -43 -9 0 -126 113 -127 123
-1 9 136 116 149 116 6 0 39 -27 75 -60z"/>
</g>
</svg>
