<?xml version="1.0" encoding="utf-8"?>
<!-- Generator: Adobe Illustrator 19.0.0, SVG Export Plug-In . SVG Version: 6.00 Build 0)  -->
<svg version="1.1" id="Layer_1" xmlns="http://www.w3.org/2000/svg" xmlns:xlink="http://www.w3.org/1999/xlink" x="0px" y="0px"
	 viewBox="0 0 1796 751" style="enable-background:new 0 0 1796 751;" xml:space="preserve">
<style type="text/css">
	.st0{fill:#FFFFFF;}
	.st1{fill:#838384;}
</style>
<g id="XMLID_13_">
	<g id="XMLID_6_">
		<g id="XMLID_34_">
			<path id="XMLID_122_" class="st0" d="M733.5,248.7h8c15.1,0,30.9,5.5,47.5,16.7c7.2,5.5,10.9,10.3,10.9,14.6v3.4
				c0,7.9-5.3,13.2-16.2,15.8l-2.9,0.3c-5.5,0-11.6-2.9-18.5-8.9c-7.4-4.8-15.3-7.2-23.3-7.2h-3.8c-14.7,0-26.5,6.7-35.5,20.1
				c-3.2,5.3-4.8,11.2-4.8,17v1.7c0,17,10.5,29,31.3,36.3l9,0.9h3.8c10.9,0,21.7-4.6,32.2-14.1c4.6-1.4,7.6-2.1,9.5-2.1
				c9.3,0,15.6,4.8,18.9,14.6v5.2c0,7.9-10.7,16.5-32.2,26.1c-10.7,3.4-19.5,5.2-26.1,5.2h-8c-20.8,0-40.2-8.8-58.4-26.1
				c-12.4-14.6-18.5-29-18.5-43.1v-6.9c0-18.7,9.7-36.3,29-52.6C701.8,254.2,717.9,248.7,733.5,248.7z"/>
			<path id="XMLID_124_" class="st0" d="M883.2,248.7c16.8,0,31.9,7.7,45,23c5.9,9.4,9,17.9,9,25.6v5.2c0,16-9.3,29.9-28,41.9
				c17.9,15.3,27.1,24.2,27.1,27c0.6,1.2,1,2.7,1,4.6v1.7c0,7.6-5.1,12.9-15.3,16.1h-4.8c-6.5,0-14.5-5-23.7-14.9l-31.1-27.7h-0.4
				v17.9c0,11.5-2.3,18.2-6.7,20.1c0,1.5-3.4,3.1-10.5,4.6h-4.8c-7.1,0-12.6-4.6-16.6-13.7V263.7c0-6.4,5.1-11.3,15.3-14.9H883.2z
				 M862.1,282.9v33.7h20.8c6.9,0,12.4-4.5,16.2-13.2v-5.5c0-6.2-5-11.2-14.7-14.6l-9.9-0.3L862.1,282.9L862.1,282.9z"/>
			<path id="XMLID_127_" class="st0" d="M982.4,248.7c7.1,0,12.6,4.6,16.6,13.7v64.8c0,14.6,4.2,23.9,12.8,27.8
				c4.4,2.9,8.8,4.3,13.4,4.3h4.8c10.1,0,17.9-5.3,23.7-15.8c1.3-2.4,1.9-4.8,1.9-7.2v-64.9c0-11.7,3.8-18.6,11.4-21
				c0-0.7,1.9-1.2,5.7-1.7h4.8c7.1,0,12.6,4.6,16.6,13.7v74.4c0,18.6-10.3,34.7-30.9,48.3c-11.6,6-22.5,8.9-32.8,8.9h-5.7
				c-20.6,0-38.5-9.3-53.6-27.8c-6.7-10.5-9.9-20.3-9.9-29.5v-73c0-6.4,5.1-11.3,15.3-14.9H982.4z"/>
			<path id="XMLID_129_" class="st0" d="M1163.6,248.7h8c17.9,0,29.6,4.3,35.1,12.9c1.3,2.9,1.9,5.3,1.9,7.2v1.2
				c0,7.4-5.3,13.2-16.2,17.5l-4.8,0.9c-1.7,0-8.6-1.7-20.4-5.2h-3.2c-5.3,0.9-8,3.3-8,7.2v1.7c0,4.1,10.1,8.9,30.3,14.6
				c20.6,7.6,30.9,20.1,30.9,37.6v4.3c0,17.5-10.3,31.3-30.9,41.4c-6.9,2.6-13.4,3.8-19.5,3.8h-4.2c-13.4,0-26.1-4.1-38.3-12.4
				c-4.2-3.6-6.3-7.4-6.7-11.2V366c0-6.5,5.3-11.7,16.2-15.8h4.8c1.9,0,9.7,2.9,23.3,8.9h4.2c5.7,0,10.1-3.6,12.8-10.7v-3.4
				c0-7.6-10.3-13.1-30.9-16.1c-20.2-6.5-30.3-18.2-30.3-35.4v-3.4c0-15.6,9-28.2,27.1-37.6C1151.2,249.9,1157.5,248.7,1163.6,248.7
				z"/>
			<path id="XMLID_131_" class="st0" d="M1321.3,248.7c9.2,0,16.6,7,22.3,21c36.4,63.9,55.7,98.4,57.8,103.4v5.2
				c0,4-4.2,8.8-12.8,14.6l-5.2,1.2h-2.9c-8,0-14.5-5.5-19.5-16.7l-5.1-8.9h-70.6c-7.4,15.6-12.8,23.5-16.2,23.5
				c-1.3,1.4-4,2.1-7.6,2.1h-3.8c-5.9,0-11.3-3.8-16.2-11.5l-1-3.8V375c0-2.2,7.6-17,22.7-44.5c19.8-37.8,33.8-63.1,42.2-75.6
				c3.8-3.6,7.8-5.7,11.8-6h4L1321.3,248.7L1321.3,248.7z M1304.8,333.7h31.3l-15.6-28.7C1317.9,308.5,1312.6,318.1,1304.8,333.7z"
				/>
			<path id="XMLID_134_" class="st0" d="M1481.2,248.7c20.8,0,40.2,8.8,58.4,26.1c12.4,14.6,18.5,29,18.5,43.1v6.9
				c0,18.7-9.7,36.3-29,52.6c-16.2,11.2-32.2,16.7-47.9,16.7h-39.3c-7.1,0-12.6-4.6-16.6-13.7V263.7c0-6.4,5.2-11.3,15.3-14.9
				H1481.2z M1463.6,282.9v40.5l-0.4,36.3c19.5,0,31.3-1.9,35.5-5.5c13.9-8.1,20.8-18.6,20.8-31.1v-3.4c0-14.8-9-26.1-27.1-34.2
				c-5-1.7-13-2.6-24.2-2.6H1463.6L1463.6,282.9z"/>
			<path id="XMLID_137_" class="st0" d="M1679,248.7c7.1,0,12.6,4.6,16.6,13.7v5.5c0,6.4-5.1,11.3-15.3,14.9l-40.8,0.3H1620v21h49.4
				c7.1,0,12.6,4.6,16.6,13.7v5.5c0,6.4-5.1,11.3-15.3,14.9l-9.9,0.3H1620v21l47.5-0.3h2.9c13,0,20.6,3.4,23.3,10.3
				c0.8,0,1.3,1.7,1.9,5.2v4.3c0,6.4-5.1,11.3-15.3,14.9h-82c-7.1,0-12.6-4.6-16.6-13.7V263.7c0-6.4,5.1-11.3,15.3-14.9H1679z"/>
		</g>
		<g id="XMLID_33_">
			<path id="XMLID_103_" class="st0" d="M794,429.6v127.3h-10.3v-60.6h-94.6v60.6h-10.3V429.6h10.3v58.6h94.6v-58.6H794z"/>
			<path id="XMLID_105_" class="st0" d="M843.4,429.6h10.3v127.3h-10.3V429.6z"/>
			<path id="XMLID_107_" class="st0" d="M1036.8,556.9l-0.2-108.9l-59.1,92.1h-5l-59.1-91.7v108.6h-10.1V429.6h8.8l63.3,98.4
				l63.3-98.4h8.4l0.2,127.3L1036.8,556.9L1036.8,556.9z"/>
			<path id="XMLID_109_" class="st0" d="M1183.6,521h-82l-17.9,35.9h-11.1l65-127.3h10.3l65,127.3h-11.1L1183.6,521z M1179.8,513.3
				l-37.2-73.5l-37,73.5H1179.8z"/>
			<path id="XMLID_112_" class="st0" d="M1238.6,429.6h10.3v119.1h81.4v8.4h-91.7L1238.6,429.6L1238.6,429.6z"/>
			<path id="XMLID_114_" class="st0" d="M1444.4,521h-82l-17.9,35.9h-11.1l65-127.3h10.3l65,127.3h-11.1L1444.4,521z M1440.6,513.3
				l-37.2-73.5l-37,73.5H1440.6z"/>
			<path id="XMLID_117_" class="st0" d="M1534.8,513.1v43.8h-10.3v-43.8l-57-83.5h11.3l51.1,74.9l51.1-74.9h10.7L1534.8,513.1z"/>
			<path id="XMLID_119_" class="st0" d="M1696.5,521h-82l-17.9,35.9h-11.1l65-127.3h10.3l65,127.3h-11.1L1696.5,521z M1692.7,513.3
				l-37.2-73.5l-37,73.5H1692.7z"/>
		</g>
	</g>
	<g id="XMLID_7_">
		<path id="XMLID_32_" class="st0" d="M219.5,278.9v26.8v46.4v46.4v17.2v103.1v7.9c0-34.2-30.7-62-68.9-62s-68.7,27.8-68.7,62V278.9
			c0,34.2,30.7,62,68.9,62S219.5,313.1,219.5,278.9z"/>
		<path id="XMLID_39_" class="st0" d="M494.5,280.7c0,17.7-7.6,33.5-20.2,45c-12.4,11.5-29.6,18.7-48.6,18.7
			c-19.1,0-36.2-7.1-48.6-18.7c-12.4-11.5-20.2-27.4-20.2-45c0-35.1-30.7-63.7-68.9-63.7c-19.1,0-36.2,7.1-48.6,18.7
			c-12.4,11.5-20.2,27.4-20.2,45c0,35.1-30.7,63.7-68.9,63.7s-68.5-28.6-68.5-63.7c0-0.7,0-1.2,0-1.8
			c1.1-104.7,93.1-189.1,206.4-189.1c57,0,108.5,21.4,145.9,56C471.4,180.2,494.5,227.9,494.5,280.7z"/>
		<path id="XMLID_42_" class="st0" d="M494.5,525c0,51.4-23.1,97.8-60.5,131.4s-88.9,54.5-145.9,54.5s-108.5-20.8-145.9-54.5
			c-36.8-33.3-59.9-79-60.5-129.7c0-0.7,0-1.2,0-1.7c0-34.2,30.7-62,68.9-62c31.4,0,57.7,18.7,66.1,44.5c1.8,5.6,2.8,11.5,2.8,17.6
			c0,8.6,1.9,16.8,5.4,24.2c3.1,6.7,7.5,12.8,12.9,18c12.6,12.2,30.5,19.8,50.5,19.8c19.1,0,36.2-6.9,48.6-18.2
			c12.4-11.2,20.2-26.6,20.2-43.8c0-17.2,7.6-32.6,20.2-43.8c12.4-11.2,29.6-18.2,48.6-18.2c19.1,0,36.2,6.9,48.6,18.2
			C486.7,492.5,494.5,508,494.5,525z"/>
	</g>
</g>
<g id="XMLID_1_">
	<path id="XMLID_3_" class="st1" d="M494.5,533.9l1.1,2.2c-14.5-27-8.8-44.6-38.1-61.3l-21.9-5c-44.2,0-67.9,23.1-67.9,59.4l0,0
		c0,36.1-35.8,65.6-80.2,65.6l0,0c-44.2,0-80.2-29.2-80.2-65.6V267.4c0-36.1,35.8-65.6,80.2-65.6l0,0c44.2,0,80.2,29.2,80.2,65.6
		l0,0c0,75.6,79.5,60.6,82.2,57.8l1.3-1.1l17.6-8.8c32.5-30.7,16.4-34.1,25.8-42.4"/>
</g>
<g id="XMLID_35_">
	<path id="XMLID_38_" class="st0" d="M494.5,274.6L494.5,274.6c0-34.6,30.7-62.8,68.9-62.8l0,0c38,0,68.9,28,68.9,62.8v250.9
		c0,34.6-30.7,62.8-68.9,62.8l0,0c-38,0-68.9-28-68.9-62.8l0,0c0-34.6-30.7-62.8-68.9-62.8l0,0c-38,0-68.9,28-68.9,62.8l0,0
		c0,34.6-30.7,62.8-68.9,62.8l0,0c-38,0-68.9-28-68.9-62.8V274.6c0-34.6,30.7-62.8,68.9-62.8l0,0c38,0,68.9,28,68.9,62.8l0,0
		c0,34.6,30.7,62.8,68.9,62.8l0,0C463.6,337.2,494.5,309.2,494.5,274.6z"/>
</g>
</svg>
